%TF.GenerationSoftware,KiCad,Pcbnew,9.0.3-9.0.3-0~ubuntu22.04.1*%
%TF.CreationDate,2025-08-06T08:54:34+07:00*%
%TF.ProjectId,USB_HUB_4Port,5553425f-4855-4425-9f34-506f72742e6b,rev?*%
%TF.SameCoordinates,Original*%
%TF.FileFunction,Soldermask,Top*%
%TF.FilePolarity,Negative*%
%FSLAX46Y46*%
G04 Gerber Fmt 4.6, Leading zero omitted, Abs format (unit mm)*
G04 Created by KiCad (PCBNEW 9.0.3-9.0.3-0~ubuntu22.04.1) date 2025-08-06 08:54:34*
%MOMM*%
%LPD*%
G01*
G04 APERTURE LIST*
G04 Aperture macros list*
%AMRoundRect*
0 Rectangle with rounded corners*
0 $1 Rounding radius*
0 $2 $3 $4 $5 $6 $7 $8 $9 X,Y pos of 4 corners*
0 Add a 4 corners polygon primitive as box body*
4,1,4,$2,$3,$4,$5,$6,$7,$8,$9,$2,$3,0*
0 Add four circle primitives for the rounded corners*
1,1,$1+$1,$2,$3*
1,1,$1+$1,$4,$5*
1,1,$1+$1,$6,$7*
1,1,$1+$1,$8,$9*
0 Add four rect primitives between the rounded corners*
20,1,$1+$1,$2,$3,$4,$5,0*
20,1,$1+$1,$4,$5,$6,$7,0*
20,1,$1+$1,$6,$7,$8,$9,0*
20,1,$1+$1,$8,$9,$2,$3,0*%
%AMRotRect*
0 Rectangle, with rotation*
0 The origin of the aperture is its center*
0 $1 length*
0 $2 width*
0 $3 Rotation angle, in degrees counterclockwise*
0 Add horizontal line*
21,1,$1,$2,0,0,$3*%
G04 Aperture macros list end*
%ADD10RoundRect,0.062500X-0.062500X0.412500X-0.062500X-0.412500X0.062500X-0.412500X0.062500X0.412500X0*%
%ADD11RoundRect,0.062500X-0.412500X0.062500X-0.412500X-0.062500X0.412500X-0.062500X0.412500X0.062500X0*%
%ADD12R,3.100000X3.100000*%
%ADD13RoundRect,0.200000X-0.200000X-0.275000X0.200000X-0.275000X0.200000X0.275000X-0.200000X0.275000X0*%
%ADD14RoundRect,0.225000X-0.017678X0.335876X-0.335876X0.017678X0.017678X-0.335876X0.335876X-0.017678X0*%
%ADD15RoundRect,0.225000X-0.250000X0.225000X-0.250000X-0.225000X0.250000X-0.225000X0.250000X0.225000X0*%
%ADD16RoundRect,0.200000X0.200000X0.275000X-0.200000X0.275000X-0.200000X-0.275000X0.200000X-0.275000X0*%
%ADD17RoundRect,0.225000X0.335876X0.017678X0.017678X0.335876X-0.335876X-0.017678X-0.017678X-0.335876X0*%
%ADD18RoundRect,0.218750X0.218750X0.256250X-0.218750X0.256250X-0.218750X-0.256250X0.218750X-0.256250X0*%
%ADD19RoundRect,0.225000X0.250000X-0.225000X0.250000X0.225000X-0.250000X0.225000X-0.250000X-0.225000X0*%
%ADD20C,0.650000*%
%ADD21R,1.240000X0.600000*%
%ADD22R,1.240000X0.300000*%
%ADD23O,2.100000X1.000000*%
%ADD24O,1.800000X1.000000*%
%ADD25RoundRect,0.225000X-0.225000X-0.250000X0.225000X-0.250000X0.225000X0.250000X-0.225000X0.250000X0*%
%ADD26R,1.600000X1.500000*%
%ADD27C,1.600000*%
%ADD28C,3.000000*%
%ADD29R,3.500000X3.500000*%
%ADD30RoundRect,0.750000X-0.750000X-1.000000X0.750000X-1.000000X0.750000X1.000000X-0.750000X1.000000X0*%
%ADD31RoundRect,0.875000X-0.875000X-0.875000X0.875000X-0.875000X0.875000X0.875000X-0.875000X0.875000X0*%
%ADD32RoundRect,0.200000X0.275000X-0.200000X0.275000X0.200000X-0.275000X0.200000X-0.275000X-0.200000X0*%
%ADD33RoundRect,0.200000X-0.275000X0.200000X-0.275000X-0.200000X0.275000X-0.200000X0.275000X0.200000X0*%
%ADD34RoundRect,0.250000X0.550000X-1.500000X0.550000X1.500000X-0.550000X1.500000X-0.550000X-1.500000X0*%
%ADD35R,1.800000X1.800000*%
%ADD36C,1.800000*%
%ADD37RoundRect,0.250000X1.500000X0.550000X-1.500000X0.550000X-1.500000X-0.550000X1.500000X-0.550000X0*%
%ADD38RoundRect,0.243750X-0.456250X0.243750X-0.456250X-0.243750X0.456250X-0.243750X0.456250X0.243750X0*%
%ADD39RotRect,1.300000X1.100000X225.000000*%
%ADD40RoundRect,0.250000X0.650000X-1.000000X0.650000X1.000000X-0.650000X1.000000X-0.650000X-1.000000X0*%
G04 APERTURE END LIST*
D10*
%TO.C,U1*%
X83770000Y-143585000D03*
X83270000Y-143585000D03*
X82770000Y-143585000D03*
X82270000Y-143585000D03*
X81770000Y-143585000D03*
X81270000Y-143585000D03*
X80770000Y-143585000D03*
D11*
X79895000Y-144460000D03*
X79895000Y-144960000D03*
X79895000Y-145460000D03*
X79895000Y-145960000D03*
X79895000Y-146460000D03*
X79895000Y-146960000D03*
X79895000Y-147460000D03*
D10*
X80770000Y-148335000D03*
X81270000Y-148335000D03*
X81770000Y-148335000D03*
X82270000Y-148335000D03*
X82770000Y-148335000D03*
X83270000Y-148335000D03*
X83770000Y-148335000D03*
D11*
X84645000Y-147460000D03*
X84645000Y-146960000D03*
X84645000Y-146460000D03*
X84645000Y-145960000D03*
X84645000Y-145460000D03*
X84645000Y-144960000D03*
X84645000Y-144460000D03*
D12*
X82270000Y-145960000D03*
%TD*%
D13*
%TO.C,R6*%
X88155000Y-146760000D03*
X89805000Y-146760000D03*
%TD*%
D14*
%TO.C,C1*%
X72888008Y-143141992D03*
X71791992Y-144238008D03*
%TD*%
D15*
%TO.C,C10*%
X77760000Y-151995000D03*
X77760000Y-153545000D03*
%TD*%
D16*
%TO.C,R3*%
X120695000Y-137340000D03*
X119045000Y-137340000D03*
%TD*%
D17*
%TO.C,C2*%
X72838008Y-148748008D03*
X71741992Y-147651992D03*
%TD*%
D18*
%TO.C,D2*%
X89805000Y-149990000D03*
X88230000Y-149990000D03*
%TD*%
D19*
%TO.C,C3*%
X80930000Y-140355000D03*
X80930000Y-138805000D03*
%TD*%
%TO.C,C9*%
X82560000Y-140355000D03*
X82560000Y-138805000D03*
%TD*%
D16*
%TO.C,R2*%
X120695000Y-155550000D03*
X119045000Y-155550000D03*
%TD*%
D20*
%TO.C,J1*%
X118675000Y-149480000D03*
X118675000Y-143700000D03*
D21*
X117555000Y-149790000D03*
X117555000Y-148990000D03*
D22*
X117555000Y-147840000D03*
X117555000Y-146840000D03*
X117555000Y-146340000D03*
X117555000Y-145340000D03*
D21*
X117555000Y-144190000D03*
X117555000Y-143390000D03*
X117555000Y-143390000D03*
X117555000Y-144190000D03*
D22*
X117555000Y-144840000D03*
X117555000Y-145840000D03*
X117555000Y-147340000D03*
X117555000Y-148340000D03*
D21*
X117555000Y-148990000D03*
X117555000Y-149790000D03*
D23*
X118155000Y-150910000D03*
D24*
X122355000Y-150910000D03*
D23*
X118155000Y-142270000D03*
D24*
X122355000Y-142270000D03*
%TD*%
D13*
%TO.C,R9*%
X110725000Y-166860000D03*
X112375000Y-166860000D03*
%TD*%
D25*
%TO.C,C7*%
X88205000Y-145165000D03*
X89755000Y-145165000D03*
%TD*%
D26*
%TO.C,J3*%
X52740000Y-155770000D03*
D27*
X55240000Y-155770000D03*
X57240000Y-155770000D03*
X59740000Y-155770000D03*
D28*
X49670000Y-158480000D03*
X62810000Y-158480000D03*
%TD*%
D29*
%TO.C,J6*%
X61730000Y-144910000D03*
D30*
X55730000Y-144910000D03*
D31*
X58730000Y-149610000D03*
%TD*%
D13*
%TO.C,R8*%
X88162500Y-148355000D03*
X89812500Y-148355000D03*
%TD*%
D26*
%TO.C,J5*%
X97300000Y-135710000D03*
D27*
X94800000Y-135710000D03*
X92800000Y-135710000D03*
X90300000Y-135710000D03*
D28*
X100370000Y-133000000D03*
X87230000Y-133000000D03*
%TD*%
D32*
%TO.C,R4*%
X79430000Y-153595000D03*
X79430000Y-151945000D03*
%TD*%
D26*
%TO.C,J2*%
X90300000Y-155960000D03*
D27*
X92800000Y-155960000D03*
X94800000Y-155960000D03*
X97300000Y-155960000D03*
D28*
X87230000Y-158670000D03*
X100370000Y-158670000D03*
%TD*%
D19*
%TO.C,C5*%
X84200000Y-140355000D03*
X84200000Y-138805000D03*
%TD*%
D33*
%TO.C,R5*%
X82770000Y-151945000D03*
X82770000Y-153595000D03*
%TD*%
D34*
%TO.C,C12*%
X81570000Y-165960000D03*
X81570000Y-160360000D03*
%TD*%
D35*
%TO.C,D3*%
X110270000Y-162615000D03*
D36*
X112810000Y-162615000D03*
%TD*%
D25*
%TO.C,C8*%
X88205000Y-143570000D03*
X89755000Y-143570000D03*
%TD*%
D32*
%TO.C,R1*%
X77850000Y-140405000D03*
X77850000Y-138755000D03*
%TD*%
D26*
%TO.C,J4*%
X59660000Y-135780000D03*
D27*
X57160000Y-135780000D03*
X55160000Y-135780000D03*
X52660000Y-135780000D03*
D28*
X62730000Y-133070000D03*
X49590000Y-133070000D03*
%TD*%
D19*
%TO.C,C4*%
X79390000Y-140355000D03*
X79390000Y-138805000D03*
%TD*%
D37*
%TO.C,C11*%
X72660000Y-156280000D03*
X67060000Y-156280000D03*
%TD*%
D38*
%TO.C,F1*%
X72840000Y-160982500D03*
X72840000Y-162857500D03*
%TD*%
D32*
%TO.C,R7*%
X84390000Y-153595000D03*
X84390000Y-151945000D03*
%TD*%
D15*
%TO.C,C6*%
X81100000Y-151995000D03*
X81100000Y-153545000D03*
%TD*%
D39*
%TO.C,Y1*%
X74659099Y-144464175D03*
X73174175Y-145949099D03*
X74340901Y-147115825D03*
X75825825Y-145630901D03*
%TD*%
D40*
%TO.C,D1*%
X112670000Y-156460000D03*
X112670000Y-152460000D03*
%TD*%
M02*
