M48
; DRILL file {KiCad 9.0.3-9.0.3-0~ubuntu22.04.1} date 2025-08-06T08:54:36+0700
; FORMAT={-:-/ absolute / inch / decimal}
; #@! TF.CreationDate,2025-08-06T08:54:36+07:00
; #@! TF.GenerationSoftware,Kicad,Pcbnew,9.0.3-9.0.3-0~ubuntu22.04.1
; #@! TF.FileFunction,Plated,1,2,PTH
FMAT,2
INCH
; #@! TA.AperFunction,Plated,PTH,ViaDrill
T1C0.0118
; #@! TA.AperFunction,Plated,PTH,ComponentDrill
T2C0.0236
; #@! TA.AperFunction,Plated,PTH,ComponentDrill
T3C0.0354
; #@! TA.AperFunction,Plated,PTH,ComponentDrill
T4C0.0374
; #@! TA.AperFunction,Plated,PTH,ComponentDrill
T5C0.0394
; #@! TA.AperFunction,Plated,PTH,ComponentDrill
T6C0.0906
%
G90
G05
T1
X2.8673Y-6.0433
X2.8673Y-6.0827
X2.9067Y-6.0433
X2.9067Y-6.0827
X3.0173Y-5.5291
X3.1Y-5.6291
X3.1264Y-5.8866
X3.1276Y-6.102
X3.1427Y-5.6531
X3.2323Y-5.887
X3.3665Y-5.9795
X3.3673Y-5.5378
X3.3772Y-5.8437
X3.3783Y-5.6835
X3.4213Y-5.7063
X3.4396Y-5.7522
X3.4405Y-5.9406
X3.4835Y-6.0465
X3.5874Y-5.8449
X3.613Y-5.902
X4.0728Y-6.3087
X4.5126Y-5.6744
X4.5441Y-5.8646
X4.685Y-5.7602
X4.7223Y-5.7898
T3
X4.3413Y-6.4022
X4.4413Y-6.4022
T4
X2.0732Y-5.3457
X2.0764Y-6.1327
X2.1717Y-5.3457
X2.1748Y-6.1327
X2.2504Y-5.3457
X2.2535Y-6.1327
X2.3488Y-5.3457
X2.352Y-6.1327
X3.5551Y-5.3429
X3.5551Y-6.1402
X3.6535Y-5.3429
X3.6535Y-6.1402
X3.7323Y-5.3429
X3.7323Y-6.1402
X3.8307Y-5.3429
X3.8307Y-6.1402
T6
X1.9524Y-5.239
X1.9555Y-6.2394
X2.4697Y-5.239
X2.4728Y-6.2394
X3.4343Y-5.2362
X3.4343Y-6.2469
X3.9516Y-5.2362
X3.9516Y-6.2469
T2
G00X4.6301Y-5.6012
M15
G01X4.6734Y-5.6012
M16
G05
G00X4.6301Y-5.9413
M15
G01X4.6734Y-5.9413
M16
G05
G00X4.8014Y-5.6012
M15
G01X4.8329Y-5.6012
M16
G05
G00X4.8014Y-5.9413
M15
G01X4.8329Y-5.9413
M16
G05
T5
G00X2.1941Y-5.6657
M15
G01X2.1941Y-5.7445
M16
G05
G00X2.2728Y-5.8902
M15
G01X2.3516Y-5.8902
M16
G05
G00X2.4303Y-5.6657
M15
G01X2.4303Y-5.7445
M16
G05
M30
