%TF.GenerationSoftware,KiCad,Pcbnew,9.0.1-9.0.1-0~ubuntu22.04.1*%
%TF.CreationDate,2025-04-15T09:20:31+07:00*%
%TF.ProjectId,USB_HUB_4Port,5553425f-4855-4425-9f34-506f72742e6b,rev?*%
%TF.SameCoordinates,Original*%
%TF.FileFunction,Legend,Top*%
%TF.FilePolarity,Positive*%
%FSLAX46Y46*%
G04 Gerber Fmt 4.6, Leading zero omitted, Abs format (unit mm)*
G04 Created by KiCad (PCBNEW 9.0.1-9.0.1-0~ubuntu22.04.1) date 2025-04-15 09:20:31*
%MOMM*%
%LPD*%
G01*
G04 APERTURE LIST*
%ADD10C,0.200000*%
%ADD11C,0.150000*%
%ADD12C,0.120000*%
G04 APERTURE END LIST*
D10*
X64497219Y-146564136D02*
X64497219Y-147040326D01*
X64497219Y-147040326D02*
X64973409Y-147087945D01*
X64973409Y-147087945D02*
X64925790Y-147040326D01*
X64925790Y-147040326D02*
X64878171Y-146945088D01*
X64878171Y-146945088D02*
X64878171Y-146706993D01*
X64878171Y-146706993D02*
X64925790Y-146611755D01*
X64925790Y-146611755D02*
X64973409Y-146564136D01*
X64973409Y-146564136D02*
X65068647Y-146516517D01*
X65068647Y-146516517D02*
X65306742Y-146516517D01*
X65306742Y-146516517D02*
X65401980Y-146564136D01*
X65401980Y-146564136D02*
X65449600Y-146611755D01*
X65449600Y-146611755D02*
X65497219Y-146706993D01*
X65497219Y-146706993D02*
X65497219Y-146945088D01*
X65497219Y-146945088D02*
X65449600Y-147040326D01*
X65449600Y-147040326D02*
X65401980Y-147087945D01*
X64497219Y-146230802D02*
X65497219Y-145897469D01*
X65497219Y-145897469D02*
X64497219Y-145564136D01*
X64497219Y-144278421D02*
X64497219Y-144087945D01*
X64497219Y-144087945D02*
X64544838Y-143992707D01*
X64544838Y-143992707D02*
X64640076Y-143897469D01*
X64640076Y-143897469D02*
X64830552Y-143849850D01*
X64830552Y-143849850D02*
X65163885Y-143849850D01*
X65163885Y-143849850D02*
X65354361Y-143897469D01*
X65354361Y-143897469D02*
X65449600Y-143992707D01*
X65449600Y-143992707D02*
X65497219Y-144087945D01*
X65497219Y-144087945D02*
X65497219Y-144278421D01*
X65497219Y-144278421D02*
X65449600Y-144373659D01*
X65449600Y-144373659D02*
X65354361Y-144468897D01*
X65354361Y-144468897D02*
X65163885Y-144516516D01*
X65163885Y-144516516D02*
X64830552Y-144516516D01*
X64830552Y-144516516D02*
X64640076Y-144468897D01*
X64640076Y-144468897D02*
X64544838Y-144373659D01*
X64544838Y-144373659D02*
X64497219Y-144278421D01*
X64830552Y-143421278D02*
X65497219Y-143421278D01*
X64925790Y-143421278D02*
X64878171Y-143373659D01*
X64878171Y-143373659D02*
X64830552Y-143278421D01*
X64830552Y-143278421D02*
X64830552Y-143135564D01*
X64830552Y-143135564D02*
X64878171Y-143040326D01*
X64878171Y-143040326D02*
X64973409Y-142992707D01*
X64973409Y-142992707D02*
X65497219Y-142992707D01*
X65497219Y-142373659D02*
X65449600Y-142468897D01*
X65449600Y-142468897D02*
X65354361Y-142516516D01*
X65354361Y-142516516D02*
X64497219Y-142516516D01*
X64830552Y-142087944D02*
X65497219Y-141849849D01*
X64830552Y-141611754D02*
X65497219Y-141849849D01*
X65497219Y-141849849D02*
X65735314Y-141945087D01*
X65735314Y-141945087D02*
X65782933Y-141992706D01*
X65782933Y-141992706D02*
X65830552Y-142087944D01*
D11*
X91513333Y-147324819D02*
X91180000Y-146848628D01*
X90941905Y-147324819D02*
X90941905Y-146324819D01*
X90941905Y-146324819D02*
X91322857Y-146324819D01*
X91322857Y-146324819D02*
X91418095Y-146372438D01*
X91418095Y-146372438D02*
X91465714Y-146420057D01*
X91465714Y-146420057D02*
X91513333Y-146515295D01*
X91513333Y-146515295D02*
X91513333Y-146658152D01*
X91513333Y-146658152D02*
X91465714Y-146753390D01*
X91465714Y-146753390D02*
X91418095Y-146801009D01*
X91418095Y-146801009D02*
X91322857Y-146848628D01*
X91322857Y-146848628D02*
X90941905Y-146848628D01*
X92370476Y-146324819D02*
X92180000Y-146324819D01*
X92180000Y-146324819D02*
X92084762Y-146372438D01*
X92084762Y-146372438D02*
X92037143Y-146420057D01*
X92037143Y-146420057D02*
X91941905Y-146562914D01*
X91941905Y-146562914D02*
X91894286Y-146753390D01*
X91894286Y-146753390D02*
X91894286Y-147134342D01*
X91894286Y-147134342D02*
X91941905Y-147229580D01*
X91941905Y-147229580D02*
X91989524Y-147277200D01*
X91989524Y-147277200D02*
X92084762Y-147324819D01*
X92084762Y-147324819D02*
X92275238Y-147324819D01*
X92275238Y-147324819D02*
X92370476Y-147277200D01*
X92370476Y-147277200D02*
X92418095Y-147229580D01*
X92418095Y-147229580D02*
X92465714Y-147134342D01*
X92465714Y-147134342D02*
X92465714Y-146896247D01*
X92465714Y-146896247D02*
X92418095Y-146801009D01*
X92418095Y-146801009D02*
X92370476Y-146753390D01*
X92370476Y-146753390D02*
X92275238Y-146705771D01*
X92275238Y-146705771D02*
X92084762Y-146705771D01*
X92084762Y-146705771D02*
X91989524Y-146753390D01*
X91989524Y-146753390D02*
X91941905Y-146801009D01*
X91941905Y-146801009D02*
X91894286Y-146896247D01*
X71286411Y-142882112D02*
X71286411Y-142949456D01*
X71286411Y-142949456D02*
X71219067Y-143084143D01*
X71219067Y-143084143D02*
X71151724Y-143151486D01*
X71151724Y-143151486D02*
X71017037Y-143218830D01*
X71017037Y-143218830D02*
X70882350Y-143218830D01*
X70882350Y-143218830D02*
X70781335Y-143185158D01*
X70781335Y-143185158D02*
X70612976Y-143084143D01*
X70612976Y-143084143D02*
X70511961Y-142983128D01*
X70511961Y-142983128D02*
X70410945Y-142814769D01*
X70410945Y-142814769D02*
X70377274Y-142713754D01*
X70377274Y-142713754D02*
X70377274Y-142579067D01*
X70377274Y-142579067D02*
X70444617Y-142444380D01*
X70444617Y-142444380D02*
X70511961Y-142377036D01*
X70511961Y-142377036D02*
X70646648Y-142309693D01*
X70646648Y-142309693D02*
X70713991Y-142309693D01*
X72027189Y-142276021D02*
X71623128Y-142680082D01*
X71825159Y-142478051D02*
X71118052Y-141770945D01*
X71118052Y-141770945D02*
X71151724Y-141939303D01*
X71151724Y-141939303D02*
X71151724Y-142073990D01*
X71151724Y-142073990D02*
X71118052Y-142175006D01*
X78169580Y-156032857D02*
X78217200Y-156080476D01*
X78217200Y-156080476D02*
X78264819Y-156223333D01*
X78264819Y-156223333D02*
X78264819Y-156318571D01*
X78264819Y-156318571D02*
X78217200Y-156461428D01*
X78217200Y-156461428D02*
X78121961Y-156556666D01*
X78121961Y-156556666D02*
X78026723Y-156604285D01*
X78026723Y-156604285D02*
X77836247Y-156651904D01*
X77836247Y-156651904D02*
X77693390Y-156651904D01*
X77693390Y-156651904D02*
X77502914Y-156604285D01*
X77502914Y-156604285D02*
X77407676Y-156556666D01*
X77407676Y-156556666D02*
X77312438Y-156461428D01*
X77312438Y-156461428D02*
X77264819Y-156318571D01*
X77264819Y-156318571D02*
X77264819Y-156223333D01*
X77264819Y-156223333D02*
X77312438Y-156080476D01*
X77312438Y-156080476D02*
X77360057Y-156032857D01*
X78264819Y-155080476D02*
X78264819Y-155651904D01*
X78264819Y-155366190D02*
X77264819Y-155366190D01*
X77264819Y-155366190D02*
X77407676Y-155461428D01*
X77407676Y-155461428D02*
X77502914Y-155556666D01*
X77502914Y-155556666D02*
X77550533Y-155651904D01*
X77264819Y-154461428D02*
X77264819Y-154366190D01*
X77264819Y-154366190D02*
X77312438Y-154270952D01*
X77312438Y-154270952D02*
X77360057Y-154223333D01*
X77360057Y-154223333D02*
X77455295Y-154175714D01*
X77455295Y-154175714D02*
X77645771Y-154128095D01*
X77645771Y-154128095D02*
X77883866Y-154128095D01*
X77883866Y-154128095D02*
X78074342Y-154175714D01*
X78074342Y-154175714D02*
X78169580Y-154223333D01*
X78169580Y-154223333D02*
X78217200Y-154270952D01*
X78217200Y-154270952D02*
X78264819Y-154366190D01*
X78264819Y-154366190D02*
X78264819Y-154461428D01*
X78264819Y-154461428D02*
X78217200Y-154556666D01*
X78217200Y-154556666D02*
X78169580Y-154604285D01*
X78169580Y-154604285D02*
X78074342Y-154651904D01*
X78074342Y-154651904D02*
X77883866Y-154699523D01*
X77883866Y-154699523D02*
X77645771Y-154699523D01*
X77645771Y-154699523D02*
X77455295Y-154651904D01*
X77455295Y-154651904D02*
X77360057Y-154604285D01*
X77360057Y-154604285D02*
X77312438Y-154556666D01*
X77312438Y-154556666D02*
X77264819Y-154461428D01*
X119713333Y-136114819D02*
X119380000Y-135638628D01*
X119141905Y-136114819D02*
X119141905Y-135114819D01*
X119141905Y-135114819D02*
X119522857Y-135114819D01*
X119522857Y-135114819D02*
X119618095Y-135162438D01*
X119618095Y-135162438D02*
X119665714Y-135210057D01*
X119665714Y-135210057D02*
X119713333Y-135305295D01*
X119713333Y-135305295D02*
X119713333Y-135448152D01*
X119713333Y-135448152D02*
X119665714Y-135543390D01*
X119665714Y-135543390D02*
X119618095Y-135591009D01*
X119618095Y-135591009D02*
X119522857Y-135638628D01*
X119522857Y-135638628D02*
X119141905Y-135638628D01*
X120046667Y-135114819D02*
X120665714Y-135114819D01*
X120665714Y-135114819D02*
X120332381Y-135495771D01*
X120332381Y-135495771D02*
X120475238Y-135495771D01*
X120475238Y-135495771D02*
X120570476Y-135543390D01*
X120570476Y-135543390D02*
X120618095Y-135591009D01*
X120618095Y-135591009D02*
X120665714Y-135686247D01*
X120665714Y-135686247D02*
X120665714Y-135924342D01*
X120665714Y-135924342D02*
X120618095Y-136019580D01*
X120618095Y-136019580D02*
X120570476Y-136067200D01*
X120570476Y-136067200D02*
X120475238Y-136114819D01*
X120475238Y-136114819D02*
X120189524Y-136114819D01*
X120189524Y-136114819D02*
X120094286Y-136067200D01*
X120094286Y-136067200D02*
X120046667Y-136019580D01*
X70906724Y-149347574D02*
X70839380Y-149347574D01*
X70839380Y-149347574D02*
X70704693Y-149280230D01*
X70704693Y-149280230D02*
X70637350Y-149212887D01*
X70637350Y-149212887D02*
X70570006Y-149078200D01*
X70570006Y-149078200D02*
X70570006Y-148943513D01*
X70570006Y-148943513D02*
X70603678Y-148842498D01*
X70603678Y-148842498D02*
X70704693Y-148674139D01*
X70704693Y-148674139D02*
X70805708Y-148573124D01*
X70805708Y-148573124D02*
X70974067Y-148472108D01*
X70974067Y-148472108D02*
X71075082Y-148438437D01*
X71075082Y-148438437D02*
X71209769Y-148438437D01*
X71209769Y-148438437D02*
X71344456Y-148505780D01*
X71344456Y-148505780D02*
X71411800Y-148573124D01*
X71411800Y-148573124D02*
X71479143Y-148707811D01*
X71479143Y-148707811D02*
X71479143Y-148775154D01*
X71748517Y-149044528D02*
X71815861Y-149044528D01*
X71815861Y-149044528D02*
X71916876Y-149078200D01*
X71916876Y-149078200D02*
X72085235Y-149246559D01*
X72085235Y-149246559D02*
X72118907Y-149347574D01*
X72118907Y-149347574D02*
X72118907Y-149414917D01*
X72118907Y-149414917D02*
X72085235Y-149515933D01*
X72085235Y-149515933D02*
X72017891Y-149583276D01*
X72017891Y-149583276D02*
X71883204Y-149650620D01*
X71883204Y-149650620D02*
X71075082Y-149650620D01*
X71075082Y-149650620D02*
X71512815Y-150088352D01*
X90941905Y-150474819D02*
X90941905Y-149474819D01*
X90941905Y-149474819D02*
X91180000Y-149474819D01*
X91180000Y-149474819D02*
X91322857Y-149522438D01*
X91322857Y-149522438D02*
X91418095Y-149617676D01*
X91418095Y-149617676D02*
X91465714Y-149712914D01*
X91465714Y-149712914D02*
X91513333Y-149903390D01*
X91513333Y-149903390D02*
X91513333Y-150046247D01*
X91513333Y-150046247D02*
X91465714Y-150236723D01*
X91465714Y-150236723D02*
X91418095Y-150331961D01*
X91418095Y-150331961D02*
X91322857Y-150427200D01*
X91322857Y-150427200D02*
X91180000Y-150474819D01*
X91180000Y-150474819D02*
X90941905Y-150474819D01*
X91894286Y-149570057D02*
X91941905Y-149522438D01*
X91941905Y-149522438D02*
X92037143Y-149474819D01*
X92037143Y-149474819D02*
X92275238Y-149474819D01*
X92275238Y-149474819D02*
X92370476Y-149522438D01*
X92370476Y-149522438D02*
X92418095Y-149570057D01*
X92418095Y-149570057D02*
X92465714Y-149665295D01*
X92465714Y-149665295D02*
X92465714Y-149760533D01*
X92465714Y-149760533D02*
X92418095Y-149903390D01*
X92418095Y-149903390D02*
X91846667Y-150474819D01*
X91846667Y-150474819D02*
X92465714Y-150474819D01*
X81289580Y-137126666D02*
X81337200Y-137174285D01*
X81337200Y-137174285D02*
X81384819Y-137317142D01*
X81384819Y-137317142D02*
X81384819Y-137412380D01*
X81384819Y-137412380D02*
X81337200Y-137555237D01*
X81337200Y-137555237D02*
X81241961Y-137650475D01*
X81241961Y-137650475D02*
X81146723Y-137698094D01*
X81146723Y-137698094D02*
X80956247Y-137745713D01*
X80956247Y-137745713D02*
X80813390Y-137745713D01*
X80813390Y-137745713D02*
X80622914Y-137698094D01*
X80622914Y-137698094D02*
X80527676Y-137650475D01*
X80527676Y-137650475D02*
X80432438Y-137555237D01*
X80432438Y-137555237D02*
X80384819Y-137412380D01*
X80384819Y-137412380D02*
X80384819Y-137317142D01*
X80384819Y-137317142D02*
X80432438Y-137174285D01*
X80432438Y-137174285D02*
X80480057Y-137126666D01*
X80384819Y-136793332D02*
X80384819Y-136174285D01*
X80384819Y-136174285D02*
X80765771Y-136507618D01*
X80765771Y-136507618D02*
X80765771Y-136364761D01*
X80765771Y-136364761D02*
X80813390Y-136269523D01*
X80813390Y-136269523D02*
X80861009Y-136221904D01*
X80861009Y-136221904D02*
X80956247Y-136174285D01*
X80956247Y-136174285D02*
X81194342Y-136174285D01*
X81194342Y-136174285D02*
X81289580Y-136221904D01*
X81289580Y-136221904D02*
X81337200Y-136269523D01*
X81337200Y-136269523D02*
X81384819Y-136364761D01*
X81384819Y-136364761D02*
X81384819Y-136650475D01*
X81384819Y-136650475D02*
X81337200Y-136745713D01*
X81337200Y-136745713D02*
X81289580Y-136793332D01*
X82859580Y-137126666D02*
X82907200Y-137174285D01*
X82907200Y-137174285D02*
X82954819Y-137317142D01*
X82954819Y-137317142D02*
X82954819Y-137412380D01*
X82954819Y-137412380D02*
X82907200Y-137555237D01*
X82907200Y-137555237D02*
X82811961Y-137650475D01*
X82811961Y-137650475D02*
X82716723Y-137698094D01*
X82716723Y-137698094D02*
X82526247Y-137745713D01*
X82526247Y-137745713D02*
X82383390Y-137745713D01*
X82383390Y-137745713D02*
X82192914Y-137698094D01*
X82192914Y-137698094D02*
X82097676Y-137650475D01*
X82097676Y-137650475D02*
X82002438Y-137555237D01*
X82002438Y-137555237D02*
X81954819Y-137412380D01*
X81954819Y-137412380D02*
X81954819Y-137317142D01*
X81954819Y-137317142D02*
X82002438Y-137174285D01*
X82002438Y-137174285D02*
X82050057Y-137126666D01*
X82954819Y-136650475D02*
X82954819Y-136459999D01*
X82954819Y-136459999D02*
X82907200Y-136364761D01*
X82907200Y-136364761D02*
X82859580Y-136317142D01*
X82859580Y-136317142D02*
X82716723Y-136221904D01*
X82716723Y-136221904D02*
X82526247Y-136174285D01*
X82526247Y-136174285D02*
X82145295Y-136174285D01*
X82145295Y-136174285D02*
X82050057Y-136221904D01*
X82050057Y-136221904D02*
X82002438Y-136269523D01*
X82002438Y-136269523D02*
X81954819Y-136364761D01*
X81954819Y-136364761D02*
X81954819Y-136555237D01*
X81954819Y-136555237D02*
X82002438Y-136650475D01*
X82002438Y-136650475D02*
X82050057Y-136698094D01*
X82050057Y-136698094D02*
X82145295Y-136745713D01*
X82145295Y-136745713D02*
X82383390Y-136745713D01*
X82383390Y-136745713D02*
X82478628Y-136698094D01*
X82478628Y-136698094D02*
X82526247Y-136650475D01*
X82526247Y-136650475D02*
X82573866Y-136555237D01*
X82573866Y-136555237D02*
X82573866Y-136364761D01*
X82573866Y-136364761D02*
X82526247Y-136269523D01*
X82526247Y-136269523D02*
X82478628Y-136221904D01*
X82478628Y-136221904D02*
X82383390Y-136174285D01*
X78278095Y-142414819D02*
X78278095Y-143224342D01*
X78278095Y-143224342D02*
X78325714Y-143319580D01*
X78325714Y-143319580D02*
X78373333Y-143367200D01*
X78373333Y-143367200D02*
X78468571Y-143414819D01*
X78468571Y-143414819D02*
X78659047Y-143414819D01*
X78659047Y-143414819D02*
X78754285Y-143367200D01*
X78754285Y-143367200D02*
X78801904Y-143319580D01*
X78801904Y-143319580D02*
X78849523Y-143224342D01*
X78849523Y-143224342D02*
X78849523Y-142414819D01*
X79849523Y-143414819D02*
X79278095Y-143414819D01*
X79563809Y-143414819D02*
X79563809Y-142414819D01*
X79563809Y-142414819D02*
X79468571Y-142557676D01*
X79468571Y-142557676D02*
X79373333Y-142652914D01*
X79373333Y-142652914D02*
X79278095Y-142700533D01*
X119703333Y-154414819D02*
X119370000Y-153938628D01*
X119131905Y-154414819D02*
X119131905Y-153414819D01*
X119131905Y-153414819D02*
X119512857Y-153414819D01*
X119512857Y-153414819D02*
X119608095Y-153462438D01*
X119608095Y-153462438D02*
X119655714Y-153510057D01*
X119655714Y-153510057D02*
X119703333Y-153605295D01*
X119703333Y-153605295D02*
X119703333Y-153748152D01*
X119703333Y-153748152D02*
X119655714Y-153843390D01*
X119655714Y-153843390D02*
X119608095Y-153891009D01*
X119608095Y-153891009D02*
X119512857Y-153938628D01*
X119512857Y-153938628D02*
X119131905Y-153938628D01*
X120084286Y-153510057D02*
X120131905Y-153462438D01*
X120131905Y-153462438D02*
X120227143Y-153414819D01*
X120227143Y-153414819D02*
X120465238Y-153414819D01*
X120465238Y-153414819D02*
X120560476Y-153462438D01*
X120560476Y-153462438D02*
X120608095Y-153510057D01*
X120608095Y-153510057D02*
X120655714Y-153605295D01*
X120655714Y-153605295D02*
X120655714Y-153700533D01*
X120655714Y-153700533D02*
X120608095Y-153843390D01*
X120608095Y-153843390D02*
X120036667Y-154414819D01*
X120036667Y-154414819D02*
X120655714Y-154414819D01*
X115234819Y-146923333D02*
X115949104Y-146923333D01*
X115949104Y-146923333D02*
X116091961Y-146970952D01*
X116091961Y-146970952D02*
X116187200Y-147066190D01*
X116187200Y-147066190D02*
X116234819Y-147209047D01*
X116234819Y-147209047D02*
X116234819Y-147304285D01*
X116234819Y-145923333D02*
X116234819Y-146494761D01*
X116234819Y-146209047D02*
X115234819Y-146209047D01*
X115234819Y-146209047D02*
X115377676Y-146304285D01*
X115377676Y-146304285D02*
X115472914Y-146399523D01*
X115472914Y-146399523D02*
X115520533Y-146494761D01*
X111403333Y-165974819D02*
X111070000Y-165498628D01*
X110831905Y-165974819D02*
X110831905Y-164974819D01*
X110831905Y-164974819D02*
X111212857Y-164974819D01*
X111212857Y-164974819D02*
X111308095Y-165022438D01*
X111308095Y-165022438D02*
X111355714Y-165070057D01*
X111355714Y-165070057D02*
X111403333Y-165165295D01*
X111403333Y-165165295D02*
X111403333Y-165308152D01*
X111403333Y-165308152D02*
X111355714Y-165403390D01*
X111355714Y-165403390D02*
X111308095Y-165451009D01*
X111308095Y-165451009D02*
X111212857Y-165498628D01*
X111212857Y-165498628D02*
X110831905Y-165498628D01*
X111879524Y-165974819D02*
X112070000Y-165974819D01*
X112070000Y-165974819D02*
X112165238Y-165927200D01*
X112165238Y-165927200D02*
X112212857Y-165879580D01*
X112212857Y-165879580D02*
X112308095Y-165736723D01*
X112308095Y-165736723D02*
X112355714Y-165546247D01*
X112355714Y-165546247D02*
X112355714Y-165165295D01*
X112355714Y-165165295D02*
X112308095Y-165070057D01*
X112308095Y-165070057D02*
X112260476Y-165022438D01*
X112260476Y-165022438D02*
X112165238Y-164974819D01*
X112165238Y-164974819D02*
X111974762Y-164974819D01*
X111974762Y-164974819D02*
X111879524Y-165022438D01*
X111879524Y-165022438D02*
X111831905Y-165070057D01*
X111831905Y-165070057D02*
X111784286Y-165165295D01*
X111784286Y-165165295D02*
X111784286Y-165403390D01*
X111784286Y-165403390D02*
X111831905Y-165498628D01*
X111831905Y-165498628D02*
X111879524Y-165546247D01*
X111879524Y-165546247D02*
X111974762Y-165593866D01*
X111974762Y-165593866D02*
X112165238Y-165593866D01*
X112165238Y-165593866D02*
X112260476Y-165546247D01*
X112260476Y-165546247D02*
X112308095Y-165498628D01*
X112308095Y-165498628D02*
X112355714Y-165403390D01*
X91513333Y-145829580D02*
X91465714Y-145877200D01*
X91465714Y-145877200D02*
X91322857Y-145924819D01*
X91322857Y-145924819D02*
X91227619Y-145924819D01*
X91227619Y-145924819D02*
X91084762Y-145877200D01*
X91084762Y-145877200D02*
X90989524Y-145781961D01*
X90989524Y-145781961D02*
X90941905Y-145686723D01*
X90941905Y-145686723D02*
X90894286Y-145496247D01*
X90894286Y-145496247D02*
X90894286Y-145353390D01*
X90894286Y-145353390D02*
X90941905Y-145162914D01*
X90941905Y-145162914D02*
X90989524Y-145067676D01*
X90989524Y-145067676D02*
X91084762Y-144972438D01*
X91084762Y-144972438D02*
X91227619Y-144924819D01*
X91227619Y-144924819D02*
X91322857Y-144924819D01*
X91322857Y-144924819D02*
X91465714Y-144972438D01*
X91465714Y-144972438D02*
X91513333Y-145020057D01*
X91846667Y-144924819D02*
X92513333Y-144924819D01*
X92513333Y-144924819D02*
X92084762Y-145924819D01*
X55906666Y-152034819D02*
X55906666Y-152749104D01*
X55906666Y-152749104D02*
X55859047Y-152891961D01*
X55859047Y-152891961D02*
X55763809Y-152987200D01*
X55763809Y-152987200D02*
X55620952Y-153034819D01*
X55620952Y-153034819D02*
X55525714Y-153034819D01*
X56287619Y-152034819D02*
X56906666Y-152034819D01*
X56906666Y-152034819D02*
X56573333Y-152415771D01*
X56573333Y-152415771D02*
X56716190Y-152415771D01*
X56716190Y-152415771D02*
X56811428Y-152463390D01*
X56811428Y-152463390D02*
X56859047Y-152511009D01*
X56859047Y-152511009D02*
X56906666Y-152606247D01*
X56906666Y-152606247D02*
X56906666Y-152844342D01*
X56906666Y-152844342D02*
X56859047Y-152939580D01*
X56859047Y-152939580D02*
X56811428Y-152987200D01*
X56811428Y-152987200D02*
X56716190Y-153034819D01*
X56716190Y-153034819D02*
X56430476Y-153034819D01*
X56430476Y-153034819D02*
X56335238Y-152987200D01*
X56335238Y-152987200D02*
X56287619Y-152939580D01*
X52946666Y-150114819D02*
X52946666Y-150829104D01*
X52946666Y-150829104D02*
X52899047Y-150971961D01*
X52899047Y-150971961D02*
X52803809Y-151067200D01*
X52803809Y-151067200D02*
X52660952Y-151114819D01*
X52660952Y-151114819D02*
X52565714Y-151114819D01*
X53851428Y-150114819D02*
X53660952Y-150114819D01*
X53660952Y-150114819D02*
X53565714Y-150162438D01*
X53565714Y-150162438D02*
X53518095Y-150210057D01*
X53518095Y-150210057D02*
X53422857Y-150352914D01*
X53422857Y-150352914D02*
X53375238Y-150543390D01*
X53375238Y-150543390D02*
X53375238Y-150924342D01*
X53375238Y-150924342D02*
X53422857Y-151019580D01*
X53422857Y-151019580D02*
X53470476Y-151067200D01*
X53470476Y-151067200D02*
X53565714Y-151114819D01*
X53565714Y-151114819D02*
X53756190Y-151114819D01*
X53756190Y-151114819D02*
X53851428Y-151067200D01*
X53851428Y-151067200D02*
X53899047Y-151019580D01*
X53899047Y-151019580D02*
X53946666Y-150924342D01*
X53946666Y-150924342D02*
X53946666Y-150686247D01*
X53946666Y-150686247D02*
X53899047Y-150591009D01*
X53899047Y-150591009D02*
X53851428Y-150543390D01*
X53851428Y-150543390D02*
X53756190Y-150495771D01*
X53756190Y-150495771D02*
X53565714Y-150495771D01*
X53565714Y-150495771D02*
X53470476Y-150543390D01*
X53470476Y-150543390D02*
X53422857Y-150591009D01*
X53422857Y-150591009D02*
X53375238Y-150686247D01*
X91513333Y-148974819D02*
X91180000Y-148498628D01*
X90941905Y-148974819D02*
X90941905Y-147974819D01*
X90941905Y-147974819D02*
X91322857Y-147974819D01*
X91322857Y-147974819D02*
X91418095Y-148022438D01*
X91418095Y-148022438D02*
X91465714Y-148070057D01*
X91465714Y-148070057D02*
X91513333Y-148165295D01*
X91513333Y-148165295D02*
X91513333Y-148308152D01*
X91513333Y-148308152D02*
X91465714Y-148403390D01*
X91465714Y-148403390D02*
X91418095Y-148451009D01*
X91418095Y-148451009D02*
X91322857Y-148498628D01*
X91322857Y-148498628D02*
X90941905Y-148498628D01*
X92084762Y-148403390D02*
X91989524Y-148355771D01*
X91989524Y-148355771D02*
X91941905Y-148308152D01*
X91941905Y-148308152D02*
X91894286Y-148212914D01*
X91894286Y-148212914D02*
X91894286Y-148165295D01*
X91894286Y-148165295D02*
X91941905Y-148070057D01*
X91941905Y-148070057D02*
X91989524Y-148022438D01*
X91989524Y-148022438D02*
X92084762Y-147974819D01*
X92084762Y-147974819D02*
X92275238Y-147974819D01*
X92275238Y-147974819D02*
X92370476Y-148022438D01*
X92370476Y-148022438D02*
X92418095Y-148070057D01*
X92418095Y-148070057D02*
X92465714Y-148165295D01*
X92465714Y-148165295D02*
X92465714Y-148212914D01*
X92465714Y-148212914D02*
X92418095Y-148308152D01*
X92418095Y-148308152D02*
X92370476Y-148355771D01*
X92370476Y-148355771D02*
X92275238Y-148403390D01*
X92275238Y-148403390D02*
X92084762Y-148403390D01*
X92084762Y-148403390D02*
X91989524Y-148451009D01*
X91989524Y-148451009D02*
X91941905Y-148498628D01*
X91941905Y-148498628D02*
X91894286Y-148593866D01*
X91894286Y-148593866D02*
X91894286Y-148784342D01*
X91894286Y-148784342D02*
X91941905Y-148879580D01*
X91941905Y-148879580D02*
X91989524Y-148927200D01*
X91989524Y-148927200D02*
X92084762Y-148974819D01*
X92084762Y-148974819D02*
X92275238Y-148974819D01*
X92275238Y-148974819D02*
X92370476Y-148927200D01*
X92370476Y-148927200D02*
X92418095Y-148879580D01*
X92418095Y-148879580D02*
X92465714Y-148784342D01*
X92465714Y-148784342D02*
X92465714Y-148593866D01*
X92465714Y-148593866D02*
X92418095Y-148498628D01*
X92418095Y-148498628D02*
X92370476Y-148451009D01*
X92370476Y-148451009D02*
X92275238Y-148403390D01*
X93466666Y-138354819D02*
X93466666Y-139069104D01*
X93466666Y-139069104D02*
X93419047Y-139211961D01*
X93419047Y-139211961D02*
X93323809Y-139307200D01*
X93323809Y-139307200D02*
X93180952Y-139354819D01*
X93180952Y-139354819D02*
X93085714Y-139354819D01*
X94419047Y-138354819D02*
X93942857Y-138354819D01*
X93942857Y-138354819D02*
X93895238Y-138831009D01*
X93895238Y-138831009D02*
X93942857Y-138783390D01*
X93942857Y-138783390D02*
X94038095Y-138735771D01*
X94038095Y-138735771D02*
X94276190Y-138735771D01*
X94276190Y-138735771D02*
X94371428Y-138783390D01*
X94371428Y-138783390D02*
X94419047Y-138831009D01*
X94419047Y-138831009D02*
X94466666Y-138926247D01*
X94466666Y-138926247D02*
X94466666Y-139164342D01*
X94466666Y-139164342D02*
X94419047Y-139259580D01*
X94419047Y-139259580D02*
X94371428Y-139307200D01*
X94371428Y-139307200D02*
X94276190Y-139354819D01*
X94276190Y-139354819D02*
X94038095Y-139354819D01*
X94038095Y-139354819D02*
X93942857Y-139307200D01*
X93942857Y-139307200D02*
X93895238Y-139259580D01*
X79854819Y-155176666D02*
X79378628Y-155509999D01*
X79854819Y-155748094D02*
X78854819Y-155748094D01*
X78854819Y-155748094D02*
X78854819Y-155367142D01*
X78854819Y-155367142D02*
X78902438Y-155271904D01*
X78902438Y-155271904D02*
X78950057Y-155224285D01*
X78950057Y-155224285D02*
X79045295Y-155176666D01*
X79045295Y-155176666D02*
X79188152Y-155176666D01*
X79188152Y-155176666D02*
X79283390Y-155224285D01*
X79283390Y-155224285D02*
X79331009Y-155271904D01*
X79331009Y-155271904D02*
X79378628Y-155367142D01*
X79378628Y-155367142D02*
X79378628Y-155748094D01*
X79188152Y-154319523D02*
X79854819Y-154319523D01*
X78807200Y-154557618D02*
X79521485Y-154795713D01*
X79521485Y-154795713D02*
X79521485Y-154176666D01*
X93466666Y-152224819D02*
X93466666Y-152939104D01*
X93466666Y-152939104D02*
X93419047Y-153081961D01*
X93419047Y-153081961D02*
X93323809Y-153177200D01*
X93323809Y-153177200D02*
X93180952Y-153224819D01*
X93180952Y-153224819D02*
X93085714Y-153224819D01*
X93895238Y-152320057D02*
X93942857Y-152272438D01*
X93942857Y-152272438D02*
X94038095Y-152224819D01*
X94038095Y-152224819D02*
X94276190Y-152224819D01*
X94276190Y-152224819D02*
X94371428Y-152272438D01*
X94371428Y-152272438D02*
X94419047Y-152320057D01*
X94419047Y-152320057D02*
X94466666Y-152415295D01*
X94466666Y-152415295D02*
X94466666Y-152510533D01*
X94466666Y-152510533D02*
X94419047Y-152653390D01*
X94419047Y-152653390D02*
X93847619Y-153224819D01*
X93847619Y-153224819D02*
X94466666Y-153224819D01*
X84429580Y-137126666D02*
X84477200Y-137174285D01*
X84477200Y-137174285D02*
X84524819Y-137317142D01*
X84524819Y-137317142D02*
X84524819Y-137412380D01*
X84524819Y-137412380D02*
X84477200Y-137555237D01*
X84477200Y-137555237D02*
X84381961Y-137650475D01*
X84381961Y-137650475D02*
X84286723Y-137698094D01*
X84286723Y-137698094D02*
X84096247Y-137745713D01*
X84096247Y-137745713D02*
X83953390Y-137745713D01*
X83953390Y-137745713D02*
X83762914Y-137698094D01*
X83762914Y-137698094D02*
X83667676Y-137650475D01*
X83667676Y-137650475D02*
X83572438Y-137555237D01*
X83572438Y-137555237D02*
X83524819Y-137412380D01*
X83524819Y-137412380D02*
X83524819Y-137317142D01*
X83524819Y-137317142D02*
X83572438Y-137174285D01*
X83572438Y-137174285D02*
X83620057Y-137126666D01*
X83524819Y-136221904D02*
X83524819Y-136698094D01*
X83524819Y-136698094D02*
X84001009Y-136745713D01*
X84001009Y-136745713D02*
X83953390Y-136698094D01*
X83953390Y-136698094D02*
X83905771Y-136602856D01*
X83905771Y-136602856D02*
X83905771Y-136364761D01*
X83905771Y-136364761D02*
X83953390Y-136269523D01*
X83953390Y-136269523D02*
X84001009Y-136221904D01*
X84001009Y-136221904D02*
X84096247Y-136174285D01*
X84096247Y-136174285D02*
X84334342Y-136174285D01*
X84334342Y-136174285D02*
X84429580Y-136221904D01*
X84429580Y-136221904D02*
X84477200Y-136269523D01*
X84477200Y-136269523D02*
X84524819Y-136364761D01*
X84524819Y-136364761D02*
X84524819Y-136602856D01*
X84524819Y-136602856D02*
X84477200Y-136698094D01*
X84477200Y-136698094D02*
X84429580Y-136745713D01*
X83304819Y-155286666D02*
X82828628Y-155619999D01*
X83304819Y-155858094D02*
X82304819Y-155858094D01*
X82304819Y-155858094D02*
X82304819Y-155477142D01*
X82304819Y-155477142D02*
X82352438Y-155381904D01*
X82352438Y-155381904D02*
X82400057Y-155334285D01*
X82400057Y-155334285D02*
X82495295Y-155286666D01*
X82495295Y-155286666D02*
X82638152Y-155286666D01*
X82638152Y-155286666D02*
X82733390Y-155334285D01*
X82733390Y-155334285D02*
X82781009Y-155381904D01*
X82781009Y-155381904D02*
X82828628Y-155477142D01*
X82828628Y-155477142D02*
X82828628Y-155858094D01*
X82304819Y-154381904D02*
X82304819Y-154858094D01*
X82304819Y-154858094D02*
X82781009Y-154905713D01*
X82781009Y-154905713D02*
X82733390Y-154858094D01*
X82733390Y-154858094D02*
X82685771Y-154762856D01*
X82685771Y-154762856D02*
X82685771Y-154524761D01*
X82685771Y-154524761D02*
X82733390Y-154429523D01*
X82733390Y-154429523D02*
X82781009Y-154381904D01*
X82781009Y-154381904D02*
X82876247Y-154334285D01*
X82876247Y-154334285D02*
X83114342Y-154334285D01*
X83114342Y-154334285D02*
X83209580Y-154381904D01*
X83209580Y-154381904D02*
X83257200Y-154429523D01*
X83257200Y-154429523D02*
X83304819Y-154524761D01*
X83304819Y-154524761D02*
X83304819Y-154762856D01*
X83304819Y-154762856D02*
X83257200Y-154858094D01*
X83257200Y-154858094D02*
X83209580Y-154905713D01*
X77579580Y-163802857D02*
X77627200Y-163850476D01*
X77627200Y-163850476D02*
X77674819Y-163993333D01*
X77674819Y-163993333D02*
X77674819Y-164088571D01*
X77674819Y-164088571D02*
X77627200Y-164231428D01*
X77627200Y-164231428D02*
X77531961Y-164326666D01*
X77531961Y-164326666D02*
X77436723Y-164374285D01*
X77436723Y-164374285D02*
X77246247Y-164421904D01*
X77246247Y-164421904D02*
X77103390Y-164421904D01*
X77103390Y-164421904D02*
X76912914Y-164374285D01*
X76912914Y-164374285D02*
X76817676Y-164326666D01*
X76817676Y-164326666D02*
X76722438Y-164231428D01*
X76722438Y-164231428D02*
X76674819Y-164088571D01*
X76674819Y-164088571D02*
X76674819Y-163993333D01*
X76674819Y-163993333D02*
X76722438Y-163850476D01*
X76722438Y-163850476D02*
X76770057Y-163802857D01*
X77674819Y-162850476D02*
X77674819Y-163421904D01*
X77674819Y-163136190D02*
X76674819Y-163136190D01*
X76674819Y-163136190D02*
X76817676Y-163231428D01*
X76817676Y-163231428D02*
X76912914Y-163326666D01*
X76912914Y-163326666D02*
X76960533Y-163421904D01*
X76770057Y-162469523D02*
X76722438Y-162421904D01*
X76722438Y-162421904D02*
X76674819Y-162326666D01*
X76674819Y-162326666D02*
X76674819Y-162088571D01*
X76674819Y-162088571D02*
X76722438Y-161993333D01*
X76722438Y-161993333D02*
X76770057Y-161945714D01*
X76770057Y-161945714D02*
X76865295Y-161898095D01*
X76865295Y-161898095D02*
X76960533Y-161898095D01*
X76960533Y-161898095D02*
X77103390Y-161945714D01*
X77103390Y-161945714D02*
X77674819Y-162517142D01*
X77674819Y-162517142D02*
X77674819Y-161898095D01*
X110801905Y-160109819D02*
X110801905Y-159109819D01*
X110801905Y-159109819D02*
X111040000Y-159109819D01*
X111040000Y-159109819D02*
X111182857Y-159157438D01*
X111182857Y-159157438D02*
X111278095Y-159252676D01*
X111278095Y-159252676D02*
X111325714Y-159347914D01*
X111325714Y-159347914D02*
X111373333Y-159538390D01*
X111373333Y-159538390D02*
X111373333Y-159681247D01*
X111373333Y-159681247D02*
X111325714Y-159871723D01*
X111325714Y-159871723D02*
X111278095Y-159966961D01*
X111278095Y-159966961D02*
X111182857Y-160062200D01*
X111182857Y-160062200D02*
X111040000Y-160109819D01*
X111040000Y-160109819D02*
X110801905Y-160109819D01*
X111706667Y-159109819D02*
X112325714Y-159109819D01*
X112325714Y-159109819D02*
X111992381Y-159490771D01*
X111992381Y-159490771D02*
X112135238Y-159490771D01*
X112135238Y-159490771D02*
X112230476Y-159538390D01*
X112230476Y-159538390D02*
X112278095Y-159586009D01*
X112278095Y-159586009D02*
X112325714Y-159681247D01*
X112325714Y-159681247D02*
X112325714Y-159919342D01*
X112325714Y-159919342D02*
X112278095Y-160014580D01*
X112278095Y-160014580D02*
X112230476Y-160062200D01*
X112230476Y-160062200D02*
X112135238Y-160109819D01*
X112135238Y-160109819D02*
X111849524Y-160109819D01*
X111849524Y-160109819D02*
X111754286Y-160062200D01*
X111754286Y-160062200D02*
X111706667Y-160014580D01*
X91513333Y-144059580D02*
X91465714Y-144107200D01*
X91465714Y-144107200D02*
X91322857Y-144154819D01*
X91322857Y-144154819D02*
X91227619Y-144154819D01*
X91227619Y-144154819D02*
X91084762Y-144107200D01*
X91084762Y-144107200D02*
X90989524Y-144011961D01*
X90989524Y-144011961D02*
X90941905Y-143916723D01*
X90941905Y-143916723D02*
X90894286Y-143726247D01*
X90894286Y-143726247D02*
X90894286Y-143583390D01*
X90894286Y-143583390D02*
X90941905Y-143392914D01*
X90941905Y-143392914D02*
X90989524Y-143297676D01*
X90989524Y-143297676D02*
X91084762Y-143202438D01*
X91084762Y-143202438D02*
X91227619Y-143154819D01*
X91227619Y-143154819D02*
X91322857Y-143154819D01*
X91322857Y-143154819D02*
X91465714Y-143202438D01*
X91465714Y-143202438D02*
X91513333Y-143250057D01*
X92084762Y-143583390D02*
X91989524Y-143535771D01*
X91989524Y-143535771D02*
X91941905Y-143488152D01*
X91941905Y-143488152D02*
X91894286Y-143392914D01*
X91894286Y-143392914D02*
X91894286Y-143345295D01*
X91894286Y-143345295D02*
X91941905Y-143250057D01*
X91941905Y-143250057D02*
X91989524Y-143202438D01*
X91989524Y-143202438D02*
X92084762Y-143154819D01*
X92084762Y-143154819D02*
X92275238Y-143154819D01*
X92275238Y-143154819D02*
X92370476Y-143202438D01*
X92370476Y-143202438D02*
X92418095Y-143250057D01*
X92418095Y-143250057D02*
X92465714Y-143345295D01*
X92465714Y-143345295D02*
X92465714Y-143392914D01*
X92465714Y-143392914D02*
X92418095Y-143488152D01*
X92418095Y-143488152D02*
X92370476Y-143535771D01*
X92370476Y-143535771D02*
X92275238Y-143583390D01*
X92275238Y-143583390D02*
X92084762Y-143583390D01*
X92084762Y-143583390D02*
X91989524Y-143631009D01*
X91989524Y-143631009D02*
X91941905Y-143678628D01*
X91941905Y-143678628D02*
X91894286Y-143773866D01*
X91894286Y-143773866D02*
X91894286Y-143964342D01*
X91894286Y-143964342D02*
X91941905Y-144059580D01*
X91941905Y-144059580D02*
X91989524Y-144107200D01*
X91989524Y-144107200D02*
X92084762Y-144154819D01*
X92084762Y-144154819D02*
X92275238Y-144154819D01*
X92275238Y-144154819D02*
X92370476Y-144107200D01*
X92370476Y-144107200D02*
X92418095Y-144059580D01*
X92418095Y-144059580D02*
X92465714Y-143964342D01*
X92465714Y-143964342D02*
X92465714Y-143773866D01*
X92465714Y-143773866D02*
X92418095Y-143678628D01*
X92418095Y-143678628D02*
X92370476Y-143631009D01*
X92370476Y-143631009D02*
X92275238Y-143583390D01*
X78204819Y-137126666D02*
X77728628Y-137459999D01*
X78204819Y-137698094D02*
X77204819Y-137698094D01*
X77204819Y-137698094D02*
X77204819Y-137317142D01*
X77204819Y-137317142D02*
X77252438Y-137221904D01*
X77252438Y-137221904D02*
X77300057Y-137174285D01*
X77300057Y-137174285D02*
X77395295Y-137126666D01*
X77395295Y-137126666D02*
X77538152Y-137126666D01*
X77538152Y-137126666D02*
X77633390Y-137174285D01*
X77633390Y-137174285D02*
X77681009Y-137221904D01*
X77681009Y-137221904D02*
X77728628Y-137317142D01*
X77728628Y-137317142D02*
X77728628Y-137698094D01*
X78204819Y-136174285D02*
X78204819Y-136745713D01*
X78204819Y-136459999D02*
X77204819Y-136459999D01*
X77204819Y-136459999D02*
X77347676Y-136555237D01*
X77347676Y-136555237D02*
X77442914Y-136650475D01*
X77442914Y-136650475D02*
X77490533Y-136745713D01*
X56456666Y-138254819D02*
X56456666Y-138969104D01*
X56456666Y-138969104D02*
X56409047Y-139111961D01*
X56409047Y-139111961D02*
X56313809Y-139207200D01*
X56313809Y-139207200D02*
X56170952Y-139254819D01*
X56170952Y-139254819D02*
X56075714Y-139254819D01*
X57361428Y-138588152D02*
X57361428Y-139254819D01*
X57123333Y-138207200D02*
X56885238Y-138921485D01*
X56885238Y-138921485D02*
X57504285Y-138921485D01*
X79839580Y-137126666D02*
X79887200Y-137174285D01*
X79887200Y-137174285D02*
X79934819Y-137317142D01*
X79934819Y-137317142D02*
X79934819Y-137412380D01*
X79934819Y-137412380D02*
X79887200Y-137555237D01*
X79887200Y-137555237D02*
X79791961Y-137650475D01*
X79791961Y-137650475D02*
X79696723Y-137698094D01*
X79696723Y-137698094D02*
X79506247Y-137745713D01*
X79506247Y-137745713D02*
X79363390Y-137745713D01*
X79363390Y-137745713D02*
X79172914Y-137698094D01*
X79172914Y-137698094D02*
X79077676Y-137650475D01*
X79077676Y-137650475D02*
X78982438Y-137555237D01*
X78982438Y-137555237D02*
X78934819Y-137412380D01*
X78934819Y-137412380D02*
X78934819Y-137317142D01*
X78934819Y-137317142D02*
X78982438Y-137174285D01*
X78982438Y-137174285D02*
X79030057Y-137126666D01*
X79268152Y-136269523D02*
X79934819Y-136269523D01*
X78887200Y-136507618D02*
X79601485Y-136745713D01*
X79601485Y-136745713D02*
X79601485Y-136126666D01*
X69217142Y-160989580D02*
X69169523Y-161037200D01*
X69169523Y-161037200D02*
X69026666Y-161084819D01*
X69026666Y-161084819D02*
X68931428Y-161084819D01*
X68931428Y-161084819D02*
X68788571Y-161037200D01*
X68788571Y-161037200D02*
X68693333Y-160941961D01*
X68693333Y-160941961D02*
X68645714Y-160846723D01*
X68645714Y-160846723D02*
X68598095Y-160656247D01*
X68598095Y-160656247D02*
X68598095Y-160513390D01*
X68598095Y-160513390D02*
X68645714Y-160322914D01*
X68645714Y-160322914D02*
X68693333Y-160227676D01*
X68693333Y-160227676D02*
X68788571Y-160132438D01*
X68788571Y-160132438D02*
X68931428Y-160084819D01*
X68931428Y-160084819D02*
X69026666Y-160084819D01*
X69026666Y-160084819D02*
X69169523Y-160132438D01*
X69169523Y-160132438D02*
X69217142Y-160180057D01*
X70169523Y-161084819D02*
X69598095Y-161084819D01*
X69883809Y-161084819D02*
X69883809Y-160084819D01*
X69883809Y-160084819D02*
X69788571Y-160227676D01*
X69788571Y-160227676D02*
X69693333Y-160322914D01*
X69693333Y-160322914D02*
X69598095Y-160370533D01*
X71121904Y-161084819D02*
X70550476Y-161084819D01*
X70836190Y-161084819D02*
X70836190Y-160084819D01*
X70836190Y-160084819D02*
X70740952Y-160227676D01*
X70740952Y-160227676D02*
X70645714Y-160322914D01*
X70645714Y-160322914D02*
X70550476Y-160370533D01*
X74421009Y-162253333D02*
X74421009Y-162586666D01*
X74944819Y-162586666D02*
X73944819Y-162586666D01*
X73944819Y-162586666D02*
X73944819Y-162110476D01*
X74944819Y-161205714D02*
X74944819Y-161777142D01*
X74944819Y-161491428D02*
X73944819Y-161491428D01*
X73944819Y-161491428D02*
X74087676Y-161586666D01*
X74087676Y-161586666D02*
X74182914Y-161681904D01*
X74182914Y-161681904D02*
X74230533Y-161777142D01*
X85064819Y-155356666D02*
X84588628Y-155689999D01*
X85064819Y-155928094D02*
X84064819Y-155928094D01*
X84064819Y-155928094D02*
X84064819Y-155547142D01*
X84064819Y-155547142D02*
X84112438Y-155451904D01*
X84112438Y-155451904D02*
X84160057Y-155404285D01*
X84160057Y-155404285D02*
X84255295Y-155356666D01*
X84255295Y-155356666D02*
X84398152Y-155356666D01*
X84398152Y-155356666D02*
X84493390Y-155404285D01*
X84493390Y-155404285D02*
X84541009Y-155451904D01*
X84541009Y-155451904D02*
X84588628Y-155547142D01*
X84588628Y-155547142D02*
X84588628Y-155928094D01*
X84064819Y-155023332D02*
X84064819Y-154356666D01*
X84064819Y-154356666D02*
X85064819Y-154785237D01*
X81479580Y-155276666D02*
X81527200Y-155324285D01*
X81527200Y-155324285D02*
X81574819Y-155467142D01*
X81574819Y-155467142D02*
X81574819Y-155562380D01*
X81574819Y-155562380D02*
X81527200Y-155705237D01*
X81527200Y-155705237D02*
X81431961Y-155800475D01*
X81431961Y-155800475D02*
X81336723Y-155848094D01*
X81336723Y-155848094D02*
X81146247Y-155895713D01*
X81146247Y-155895713D02*
X81003390Y-155895713D01*
X81003390Y-155895713D02*
X80812914Y-155848094D01*
X80812914Y-155848094D02*
X80717676Y-155800475D01*
X80717676Y-155800475D02*
X80622438Y-155705237D01*
X80622438Y-155705237D02*
X80574819Y-155562380D01*
X80574819Y-155562380D02*
X80574819Y-155467142D01*
X80574819Y-155467142D02*
X80622438Y-155324285D01*
X80622438Y-155324285D02*
X80670057Y-155276666D01*
X80574819Y-154419523D02*
X80574819Y-154609999D01*
X80574819Y-154609999D02*
X80622438Y-154705237D01*
X80622438Y-154705237D02*
X80670057Y-154752856D01*
X80670057Y-154752856D02*
X80812914Y-154848094D01*
X80812914Y-154848094D02*
X81003390Y-154895713D01*
X81003390Y-154895713D02*
X81384342Y-154895713D01*
X81384342Y-154895713D02*
X81479580Y-154848094D01*
X81479580Y-154848094D02*
X81527200Y-154800475D01*
X81527200Y-154800475D02*
X81574819Y-154705237D01*
X81574819Y-154705237D02*
X81574819Y-154514761D01*
X81574819Y-154514761D02*
X81527200Y-154419523D01*
X81527200Y-154419523D02*
X81479580Y-154371904D01*
X81479580Y-154371904D02*
X81384342Y-154324285D01*
X81384342Y-154324285D02*
X81146247Y-154324285D01*
X81146247Y-154324285D02*
X81051009Y-154371904D01*
X81051009Y-154371904D02*
X81003390Y-154419523D01*
X81003390Y-154419523D02*
X80955771Y-154514761D01*
X80955771Y-154514761D02*
X80955771Y-154705237D01*
X80955771Y-154705237D02*
X81003390Y-154800475D01*
X81003390Y-154800475D02*
X81051009Y-154848094D01*
X81051009Y-154848094D02*
X81146247Y-154895713D01*
X75880582Y-147844017D02*
X76217300Y-148180735D01*
X75274491Y-147709330D02*
X75880582Y-147844017D01*
X75880582Y-147844017D02*
X75745895Y-147237926D01*
X77059093Y-147338941D02*
X76655032Y-147743002D01*
X76857063Y-147540971D02*
X76149956Y-146833865D01*
X76149956Y-146833865D02*
X76183628Y-147002223D01*
X76183628Y-147002223D02*
X76183628Y-147136910D01*
X76183628Y-147136910D02*
X76149956Y-147237926D01*
X110624819Y-155198094D02*
X109624819Y-155198094D01*
X109624819Y-155198094D02*
X109624819Y-154959999D01*
X109624819Y-154959999D02*
X109672438Y-154817142D01*
X109672438Y-154817142D02*
X109767676Y-154721904D01*
X109767676Y-154721904D02*
X109862914Y-154674285D01*
X109862914Y-154674285D02*
X110053390Y-154626666D01*
X110053390Y-154626666D02*
X110196247Y-154626666D01*
X110196247Y-154626666D02*
X110386723Y-154674285D01*
X110386723Y-154674285D02*
X110481961Y-154721904D01*
X110481961Y-154721904D02*
X110577200Y-154817142D01*
X110577200Y-154817142D02*
X110624819Y-154959999D01*
X110624819Y-154959999D02*
X110624819Y-155198094D01*
X110624819Y-153674285D02*
X110624819Y-154245713D01*
X110624819Y-153959999D02*
X109624819Y-153959999D01*
X109624819Y-153959999D02*
X109767676Y-154055237D01*
X109767676Y-154055237D02*
X109862914Y-154150475D01*
X109862914Y-154150475D02*
X109910533Y-154245713D01*
D12*
%TO.C,R6*%
X88742742Y-146237500D02*
X89217258Y-146237500D01*
X88742742Y-147282500D02*
X89217258Y-147282500D01*
%TO.C,C1*%
X72078781Y-143229970D02*
X71879970Y-143428781D01*
X72800030Y-143951219D02*
X72601219Y-144150030D01*
%TO.C,C10*%
X77250000Y-152254420D02*
X77250000Y-152535580D01*
X78270000Y-152254420D02*
X78270000Y-152535580D01*
%TO.C,R3*%
X120107258Y-136817500D02*
X119632742Y-136817500D01*
X120107258Y-137862500D02*
X119632742Y-137862500D01*
%TO.C,C2*%
X72028781Y-148660030D02*
X71829970Y-148461219D01*
X72750030Y-147938781D02*
X72551219Y-147739970D01*
%TO.C,D2*%
X88217500Y-150725000D02*
X90502500Y-150725000D01*
X90502500Y-149255000D02*
X88217500Y-149255000D01*
X90502500Y-150725000D02*
X90502500Y-149255000D01*
%TO.C,C3*%
X80420000Y-139720580D02*
X80420000Y-139439420D01*
X81440000Y-139720580D02*
X81440000Y-139439420D01*
%TO.C,C9*%
X82050000Y-139720580D02*
X82050000Y-139439420D01*
X83070000Y-139720580D02*
X83070000Y-139439420D01*
%TO.C,U1*%
X80160000Y-143850000D02*
X80535000Y-143850000D01*
X80160000Y-144225000D02*
X80160000Y-143850000D01*
X80160000Y-147695000D02*
X80160000Y-148070000D01*
X80160000Y-148070000D02*
X80535000Y-148070000D01*
X84005000Y-143850000D02*
X84140000Y-143850000D01*
X84380000Y-147695000D02*
X84380000Y-148070000D01*
X84380000Y-148070000D02*
X84005000Y-148070000D01*
X84710000Y-144090000D02*
X84380000Y-143850000D01*
X84710000Y-143610000D01*
X84710000Y-144090000D01*
G36*
X84710000Y-144090000D02*
G01*
X84380000Y-143850000D01*
X84710000Y-143610000D01*
X84710000Y-144090000D01*
G37*
%TO.C,R2*%
X120107258Y-155027500D02*
X119632742Y-155027500D01*
X120107258Y-156072500D02*
X119632742Y-156072500D01*
%TO.C,J1*%
X119430000Y-151170000D02*
X121350000Y-151170000D01*
X121350000Y-142010000D02*
X119430000Y-142010000D01*
X123360000Y-142010000D02*
X125065000Y-142010000D01*
X125065000Y-142010000D02*
X125065000Y-151170000D01*
X125065000Y-151170000D02*
X123360000Y-151170000D01*
%TO.C,R9*%
X111312742Y-166337500D02*
X111787258Y-166337500D01*
X111312742Y-167382500D02*
X111787258Y-167382500D01*
%TO.C,C7*%
X88839420Y-144655000D02*
X89120580Y-144655000D01*
X88839420Y-145675000D02*
X89120580Y-145675000D01*
%TO.C,J3*%
X48930000Y-168350000D02*
X48930000Y-168870000D01*
X48930000Y-168870000D02*
X63550000Y-168870000D01*
X49580000Y-153390000D02*
X49580000Y-156720000D01*
X49580000Y-153390000D02*
X62900000Y-153390000D01*
X49580000Y-168350000D02*
X48930000Y-168350000D01*
X49580000Y-168350000D02*
X49580000Y-160240000D01*
X51840000Y-153170000D02*
X53640000Y-153170000D01*
X62900000Y-153390000D02*
X62900000Y-156720000D01*
X62900000Y-160240000D02*
X62900000Y-168350000D01*
X63550000Y-168350000D02*
X62900000Y-168350000D01*
X63550000Y-168870000D02*
X63550000Y-168350000D01*
%TO.C,J6*%
X47930000Y-140310000D02*
X62630000Y-140310000D01*
X47930000Y-149510000D02*
X47930000Y-140310000D01*
X56730000Y-149510000D02*
X47930000Y-149510000D01*
X61780000Y-140110000D02*
X62830000Y-140110000D01*
X62630000Y-140310000D02*
X62630000Y-142910000D01*
X62630000Y-146810000D02*
X62630000Y-149510000D01*
X62630000Y-149510000D02*
X60730000Y-149510000D01*
X62830000Y-141160000D02*
X62830000Y-140110000D01*
%TO.C,R8*%
X88750242Y-147832500D02*
X89224758Y-147832500D01*
X88750242Y-148877500D02*
X89224758Y-148877500D01*
%TO.C,J5*%
X86490000Y-122610000D02*
X86490000Y-123130000D01*
X86490000Y-123130000D02*
X87140000Y-123130000D01*
X87140000Y-131240000D02*
X87140000Y-123130000D01*
X87140000Y-138090000D02*
X87140000Y-134760000D01*
X98200000Y-138310000D02*
X96400000Y-138310000D01*
X100460000Y-123130000D02*
X100460000Y-131240000D01*
X100460000Y-123130000D02*
X101110000Y-123130000D01*
X100460000Y-138090000D02*
X87140000Y-138090000D01*
X100460000Y-138090000D02*
X100460000Y-134760000D01*
X101110000Y-122610000D02*
X86490000Y-122610000D01*
X101110000Y-123130000D02*
X101110000Y-122610000D01*
%TO.C,R4*%
X78907500Y-152647258D02*
X78907500Y-152172742D01*
X79952500Y-152647258D02*
X79952500Y-152172742D01*
%TO.C,J2*%
X86490000Y-168540000D02*
X86490000Y-169060000D01*
X86490000Y-169060000D02*
X101110000Y-169060000D01*
X87140000Y-153580000D02*
X87140000Y-156910000D01*
X87140000Y-153580000D02*
X100460000Y-153580000D01*
X87140000Y-168540000D02*
X86490000Y-168540000D01*
X87140000Y-168540000D02*
X87140000Y-160430000D01*
X89400000Y-153360000D02*
X91200000Y-153360000D01*
X100460000Y-153580000D02*
X100460000Y-156910000D01*
X100460000Y-160430000D02*
X100460000Y-168540000D01*
X101110000Y-168540000D02*
X100460000Y-168540000D01*
X101110000Y-169060000D02*
X101110000Y-168540000D01*
%TO.C,C5*%
X83690000Y-139720580D02*
X83690000Y-139439420D01*
X84710000Y-139720580D02*
X84710000Y-139439420D01*
%TO.C,R5*%
X82247500Y-152212742D02*
X82247500Y-152687258D01*
X83292500Y-152212742D02*
X83292500Y-152687258D01*
%TO.C,C12*%
X78160000Y-159750000D02*
X80510000Y-159750000D01*
X78160000Y-165505563D02*
X78160000Y-159750000D01*
X79224437Y-166570000D02*
X78160000Y-165505563D01*
X79224437Y-166570000D02*
X80510000Y-166570000D01*
X79328750Y-167203750D02*
X80116250Y-167203750D01*
X79722500Y-167597500D02*
X79722500Y-166810000D01*
X83915563Y-166570000D02*
X82630000Y-166570000D01*
X83915563Y-166570000D02*
X84980000Y-165505563D01*
X84980000Y-159750000D02*
X82630000Y-159750000D01*
X84980000Y-165505563D02*
X84980000Y-159750000D01*
%TO.C,D3*%
X109980000Y-161379000D02*
X109980000Y-161535000D01*
X109980000Y-163695000D02*
X109980000Y-163851000D01*
X109980000Y-161379484D02*
G75*
G02*
X113211397Y-161534939I1560000J-1235516D01*
G01*
X110499039Y-161535000D02*
G75*
G02*
X112580910Y-161534951I1040961J-1080000D01*
G01*
X112580910Y-163695049D02*
G75*
G02*
X110499039Y-163695000I-1040910J1080049D01*
G01*
X113211397Y-163695061D02*
G75*
G02*
X109980000Y-163850516I-1671397J1080061D01*
G01*
%TO.C,C8*%
X88839420Y-143060000D02*
X89120580Y-143060000D01*
X88839420Y-144080000D02*
X89120580Y-144080000D01*
%TO.C,R1*%
X77327500Y-139817258D02*
X77327500Y-139342742D01*
X78372500Y-139817258D02*
X78372500Y-139342742D01*
%TO.C,J4*%
X48850000Y-122680000D02*
X48850000Y-123200000D01*
X48850000Y-123200000D02*
X49500000Y-123200000D01*
X49500000Y-131310000D02*
X49500000Y-123200000D01*
X49500000Y-138160000D02*
X49500000Y-134830000D01*
X60560000Y-138380000D02*
X58760000Y-138380000D01*
X62820000Y-123200000D02*
X62820000Y-131310000D01*
X62820000Y-123200000D02*
X63470000Y-123200000D01*
X62820000Y-138160000D02*
X49500000Y-138160000D01*
X62820000Y-138160000D02*
X62820000Y-134830000D01*
X63470000Y-122680000D02*
X48850000Y-122680000D01*
X63470000Y-123200000D02*
X63470000Y-122680000D01*
%TO.C,C4*%
X78880000Y-139720580D02*
X78880000Y-139439420D01*
X79900000Y-139720580D02*
X79900000Y-139439420D01*
%TO.C,C11*%
X66450000Y-152870000D02*
X66450000Y-155220000D01*
X66450000Y-159690000D02*
X66450000Y-157340000D01*
X72205563Y-152870000D02*
X66450000Y-152870000D01*
X72205563Y-159690000D02*
X66450000Y-159690000D01*
X73270000Y-153934437D02*
X72205563Y-152870000D01*
X73270000Y-153934437D02*
X73270000Y-155220000D01*
X73270000Y-158625563D02*
X72205563Y-159690000D01*
X73270000Y-158625563D02*
X73270000Y-157340000D01*
X73903750Y-158521250D02*
X73903750Y-157733750D01*
X74297500Y-158127500D02*
X73510000Y-158127500D01*
%TO.C,F1*%
X72130000Y-161661422D02*
X72130000Y-162178578D01*
X73550000Y-161661422D02*
X73550000Y-162178578D01*
%TO.C,R7*%
X83917500Y-152677258D02*
X83917500Y-152202742D01*
X84962500Y-152677258D02*
X84962500Y-152202742D01*
%TO.C,C6*%
X80590000Y-152264420D02*
X80590000Y-152545580D01*
X81610000Y-152264420D02*
X81610000Y-152545580D01*
%TO.C,Y1*%
X74729810Y-143332804D02*
X72042804Y-146019810D01*
X76957196Y-145560190D02*
X74729810Y-143332804D01*
%TO.C,D1*%
X111020000Y-157970000D02*
X111020000Y-152460000D01*
X111020000Y-157970000D02*
X114320000Y-157970000D01*
X114320000Y-157970000D02*
X114320000Y-152460000D01*
%TD*%
M02*
