%TF.GenerationSoftware,KiCad,Pcbnew,9.0.1-9.0.1-0~ubuntu22.04.1*%
%TF.CreationDate,2025-04-15T09:20:31+07:00*%
%TF.ProjectId,USB_HUB_4Port,5553425f-4855-4425-9f34-506f72742e6b,rev?*%
%TF.SameCoordinates,Original*%
%TF.FileFunction,Copper,L2,Bot*%
%TF.FilePolarity,Positive*%
%FSLAX46Y46*%
G04 Gerber Fmt 4.6, Leading zero omitted, Abs format (unit mm)*
G04 Created by KiCad (PCBNEW 9.0.1-9.0.1-0~ubuntu22.04.1) date 2025-04-15 09:20:31*
%MOMM*%
%LPD*%
G01*
G04 APERTURE LIST*
G04 Aperture macros list*
%AMRoundRect*
0 Rectangle with rounded corners*
0 $1 Rounding radius*
0 $2 $3 $4 $5 $6 $7 $8 $9 X,Y pos of 4 corners*
0 Add a 4 corners polygon primitive as box body*
4,1,4,$2,$3,$4,$5,$6,$7,$8,$9,$2,$3,0*
0 Add four circle primitives for the rounded corners*
1,1,$1+$1,$2,$3*
1,1,$1+$1,$4,$5*
1,1,$1+$1,$6,$7*
1,1,$1+$1,$8,$9*
0 Add four rect primitives between the rounded corners*
20,1,$1+$1,$2,$3,$4,$5,0*
20,1,$1+$1,$4,$5,$6,$7,0*
20,1,$1+$1,$6,$7,$8,$9,0*
20,1,$1+$1,$8,$9,$2,$3,0*%
G04 Aperture macros list end*
%TA.AperFunction,HeatsinkPad*%
%ADD10O,2.100000X1.000000*%
%TD*%
%TA.AperFunction,HeatsinkPad*%
%ADD11O,1.800000X1.000000*%
%TD*%
%TA.AperFunction,ComponentPad*%
%ADD12R,1.600000X1.500000*%
%TD*%
%TA.AperFunction,ComponentPad*%
%ADD13C,1.600000*%
%TD*%
%TA.AperFunction,ComponentPad*%
%ADD14C,3.000000*%
%TD*%
%TA.AperFunction,ComponentPad*%
%ADD15R,3.500000X3.500000*%
%TD*%
%TA.AperFunction,ComponentPad*%
%ADD16RoundRect,0.750000X-0.750000X-1.000000X0.750000X-1.000000X0.750000X1.000000X-0.750000X1.000000X0*%
%TD*%
%TA.AperFunction,ComponentPad*%
%ADD17RoundRect,0.875000X-0.875000X-0.875000X0.875000X-0.875000X0.875000X0.875000X-0.875000X0.875000X0*%
%TD*%
%TA.AperFunction,ComponentPad*%
%ADD18R,1.800000X1.800000*%
%TD*%
%TA.AperFunction,ComponentPad*%
%ADD19C,1.800000*%
%TD*%
%TA.AperFunction,ViaPad*%
%ADD20C,0.600000*%
%TD*%
%TA.AperFunction,Conductor*%
%ADD21C,0.200000*%
%TD*%
%TA.AperFunction,Conductor*%
%ADD22C,0.500000*%
%TD*%
%TA.AperFunction,Conductor*%
%ADD23C,0.300000*%
%TD*%
%TA.AperFunction,Conductor*%
%ADD24C,1.000000*%
%TD*%
G04 APERTURE END LIST*
D10*
%TO.P,J1,S1,SHIELD*%
%TO.N,GND*%
X118155000Y-150910000D03*
D11*
X122355000Y-150910000D03*
D10*
X118155000Y-142270000D03*
D11*
X122355000Y-142270000D03*
%TD*%
D12*
%TO.P,J3,1,VBUS*%
%TO.N,VBUS1*%
X52740000Y-155770000D03*
D13*
%TO.P,J3,2,D-*%
%TO.N,D3-*%
X55240000Y-155770000D03*
%TO.P,J3,3,D+*%
%TO.N,D3+*%
X57240000Y-155770000D03*
%TO.P,J3,4,GND*%
%TO.N,GND*%
X59740000Y-155770000D03*
D14*
%TO.P,J3,5,Shield*%
X49670000Y-158480000D03*
X62810000Y-158480000D03*
%TD*%
D15*
%TO.P,J6,1*%
%TO.N,+5VP*%
X61730000Y-144910000D03*
D16*
%TO.P,J6,2*%
%TO.N,GND*%
X55730000Y-144910000D03*
D17*
%TO.P,J6,3*%
%TO.N,N/C*%
X58730000Y-149610000D03*
%TD*%
D12*
%TO.P,J5,1,VBUS*%
%TO.N,VBUS1*%
X97300000Y-135710000D03*
D13*
%TO.P,J5,2,D-*%
%TO.N,D1-*%
X94800000Y-135710000D03*
%TO.P,J5,3,D+*%
%TO.N,D1+*%
X92800000Y-135710000D03*
%TO.P,J5,4,GND*%
%TO.N,GND*%
X90300000Y-135710000D03*
D14*
%TO.P,J5,5,Shield*%
X100370000Y-133000000D03*
X87230000Y-133000000D03*
%TD*%
D12*
%TO.P,J2,1,VBUS*%
%TO.N,VBUS1*%
X90300000Y-155960000D03*
D13*
%TO.P,J2,2,D-*%
%TO.N,D4-*%
X92800000Y-155960000D03*
%TO.P,J2,3,D+*%
%TO.N,D4+*%
X94800000Y-155960000D03*
%TO.P,J2,4,GND*%
%TO.N,GND*%
X97300000Y-155960000D03*
D14*
%TO.P,J2,5,Shield*%
X87230000Y-158670000D03*
X100370000Y-158670000D03*
%TD*%
D18*
%TO.P,D3,1,K*%
%TO.N,GND*%
X110270000Y-162615000D03*
D19*
%TO.P,D3,2,A*%
%TO.N,Net-(D3-A)*%
X112810000Y-162615000D03*
%TD*%
D12*
%TO.P,J4,1,VBUS*%
%TO.N,VBUS1*%
X59660000Y-135780000D03*
D13*
%TO.P,J4,2,D-*%
%TO.N,D2-*%
X57160000Y-135780000D03*
%TO.P,J4,3,D+*%
%TO.N,D2+*%
X55160000Y-135780000D03*
%TO.P,J4,4,GND*%
%TO.N,GND*%
X52660000Y-135780000D03*
D14*
%TO.P,J4,5,Shield*%
X62730000Y-133070000D03*
X49590000Y-133070000D03*
%TD*%
D20*
%TO.N,+3.3V*%
X91160000Y-146850000D03*
X84460000Y-148070000D03*
X84490000Y-150601000D03*
X82440000Y-141670000D03*
X84390000Y-143770000D03*
X87230000Y-147770000D03*
X80040000Y-143110000D03*
%TO.N,Net-(U1-RESET{slash})*%
X81080000Y-150360000D03*
X82840000Y-149000000D03*
%TO.N,VBUS*%
X79360000Y-154580000D03*
X85380000Y-145010000D03*
X114620000Y-144130000D03*
X115420000Y-148960000D03*
%TO.N,+5VP*%
X103450000Y-160240000D03*
X72830000Y-154500000D03*
X72830000Y-153500000D03*
X73830000Y-154500000D03*
X73830000Y-153500000D03*
%TO.N,Net-(U1-DM0)*%
X119946101Y-147061371D03*
X119000000Y-146309000D03*
%TO.N,Net-(U1-RREF)*%
X80270000Y-143930000D03*
X76520000Y-140480000D03*
%TO.N,Net-(D2-K)*%
X89680000Y-151220000D03*
X87200000Y-153090000D03*
X86030000Y-146710000D03*
%TD*%
D21*
%TO.N,+3.3V*%
X82440000Y-141670000D02*
X80650000Y-141670000D01*
X82440000Y-141670000D02*
X83710000Y-141670000D01*
X84460000Y-148070000D02*
X84470000Y-148060000D01*
X84460000Y-148070000D02*
X84460000Y-148250000D01*
X84460000Y-143840000D02*
X84390000Y-143770000D01*
X83710000Y-141670000D02*
X84390000Y-142350000D01*
X87640000Y-146850000D02*
X87230000Y-147260000D01*
X91160000Y-146850000D02*
X87640000Y-146850000D01*
X80650000Y-141670000D02*
X80040000Y-142280000D01*
X87230000Y-147260000D02*
X87230000Y-147770000D01*
X84490000Y-148280000D02*
X84490000Y-150601000D01*
X84460000Y-148250000D02*
X84490000Y-148280000D01*
X80040000Y-142280000D02*
X80040000Y-143110000D01*
X84460000Y-148070000D02*
X84460000Y-143840000D01*
X84390000Y-142350000D02*
X84390000Y-143770000D01*
%TO.N,Net-(U1-RESET{slash})*%
X81610000Y-149020000D02*
X81080000Y-149550000D01*
X82840000Y-149000000D02*
X82820000Y-149020000D01*
X81080000Y-149550000D02*
X81080000Y-150360000D01*
X82820000Y-149020000D02*
X81610000Y-149020000D01*
D22*
%TO.N,VBUS*%
X114620000Y-144170000D02*
X115500000Y-145050000D01*
X114620000Y-144130000D02*
X114620000Y-144170000D01*
X114510000Y-144020000D02*
X86370000Y-144020000D01*
X114620000Y-144130000D02*
X114510000Y-144020000D01*
D23*
X83250000Y-154580000D02*
X79360000Y-154580000D01*
D22*
X115500000Y-148880000D02*
X115420000Y-148960000D01*
X115500000Y-145050000D02*
X115500000Y-148880000D01*
X86370000Y-144020000D02*
X85380000Y-145010000D01*
D23*
X85380000Y-152450000D02*
X83250000Y-154580000D01*
X85380000Y-145010000D02*
X85380000Y-152450000D01*
D22*
%TO.N,+5VP*%
X103450000Y-160240000D02*
X101260000Y-162430000D01*
X75650000Y-162430000D02*
X73340000Y-160120000D01*
X73340000Y-160120000D02*
X73340000Y-154030000D01*
X101260000Y-162430000D02*
X75650000Y-162430000D01*
D24*
%TO.N,VBUS1*%
X52740000Y-155770000D02*
X52740000Y-143090000D01*
X54440000Y-141390000D02*
X58290000Y-141390000D01*
X52740000Y-143090000D02*
X54440000Y-141390000D01*
X59660000Y-140020000D02*
X59660000Y-135780000D01*
X58290000Y-141390000D02*
X59660000Y-140020000D01*
D21*
%TO.N,Net-(U1-DM0)*%
X119860584Y-147146888D02*
X119860584Y-147040584D01*
X119946101Y-147061371D02*
X119860584Y-147146888D01*
X119860584Y-147040584D02*
X119179000Y-146359000D01*
D23*
%TO.N,Net-(U1-RREF)*%
X78070000Y-143930000D02*
X76520000Y-142380000D01*
X80270000Y-143930000D02*
X78070000Y-143930000D01*
X76520000Y-142380000D02*
X76520000Y-140480000D01*
D21*
%TO.N,Net-(D2-K)*%
X87047941Y-148488761D02*
X86030000Y-147470820D01*
X88800000Y-153090000D02*
X87200000Y-153090000D01*
X89680000Y-151220000D02*
X89680000Y-149500000D01*
X88668761Y-148488761D02*
X87047941Y-148488761D01*
X89680000Y-149500000D02*
X88668761Y-148488761D01*
X89680000Y-152210000D02*
X88800000Y-153090000D01*
X89680000Y-151220000D02*
X89680000Y-152210000D01*
X86030000Y-147470820D02*
X86030000Y-146710000D01*
%TD*%
%TA.AperFunction,Conductor*%
%TO.N,GND*%
G36*
X124632539Y-122610185D02*
G01*
X124678294Y-122662989D01*
X124689500Y-122714500D01*
X124689500Y-168665500D01*
X124669815Y-168732539D01*
X124617011Y-168778294D01*
X124565500Y-168789500D01*
X48414500Y-168789500D01*
X48347461Y-168769815D01*
X48301706Y-168717011D01*
X48290500Y-168665500D01*
X48290500Y-163621491D01*
X65089500Y-163621491D01*
X65089500Y-163958508D01*
X65127231Y-164293381D01*
X65127233Y-164293397D01*
X65202223Y-164621953D01*
X65202227Y-164621965D01*
X65313532Y-164940054D01*
X65459752Y-165243683D01*
X65459754Y-165243686D01*
X65639054Y-165529039D01*
X65849175Y-165792523D01*
X66087477Y-166030825D01*
X66350961Y-166240946D01*
X66636314Y-166420246D01*
X66939949Y-166566469D01*
X67178848Y-166650063D01*
X67258034Y-166677772D01*
X67258046Y-166677776D01*
X67586606Y-166752767D01*
X67921492Y-166790499D01*
X67921493Y-166790500D01*
X67921496Y-166790500D01*
X68258507Y-166790500D01*
X68258507Y-166790499D01*
X68593394Y-166752767D01*
X68921954Y-166677776D01*
X69240051Y-166566469D01*
X69543686Y-166420246D01*
X69829039Y-166240946D01*
X70092523Y-166030825D01*
X70330825Y-165792523D01*
X70540946Y-165529039D01*
X70720246Y-165243686D01*
X70866469Y-164940051D01*
X70977776Y-164621954D01*
X71052767Y-164293394D01*
X71090500Y-163958504D01*
X71090500Y-163621496D01*
X71052767Y-163286606D01*
X70977776Y-162958046D01*
X70972494Y-162942952D01*
X70878469Y-162674244D01*
X70866469Y-162639949D01*
X70720246Y-162336314D01*
X70540946Y-162050961D01*
X70330825Y-161787477D01*
X70092523Y-161549175D01*
X69829039Y-161339054D01*
X69543686Y-161159754D01*
X69543683Y-161159752D01*
X69240054Y-161013532D01*
X68921965Y-160902227D01*
X68921953Y-160902223D01*
X68593397Y-160827233D01*
X68593381Y-160827231D01*
X68258508Y-160789500D01*
X68258504Y-160789500D01*
X67921496Y-160789500D01*
X67921491Y-160789500D01*
X67586618Y-160827231D01*
X67586602Y-160827233D01*
X67258046Y-160902223D01*
X67258034Y-160902227D01*
X66939945Y-161013532D01*
X66636316Y-161159752D01*
X66350962Y-161339053D01*
X66087477Y-161549174D01*
X65849174Y-161787477D01*
X65639053Y-162050962D01*
X65459752Y-162336316D01*
X65313532Y-162639945D01*
X65202227Y-162958034D01*
X65202223Y-162958046D01*
X65127233Y-163286602D01*
X65127231Y-163286618D01*
X65089500Y-163621491D01*
X48290500Y-163621491D01*
X48290500Y-160193863D01*
X48310185Y-160126824D01*
X48362989Y-160081069D01*
X48432147Y-160071125D01*
X48489987Y-160095488D01*
X48556470Y-160146503D01*
X48783517Y-160277590D01*
X48783528Y-160277595D01*
X49025744Y-160377924D01*
X49278979Y-160445777D01*
X49278990Y-160445779D01*
X49538905Y-160479999D01*
X49538920Y-160480000D01*
X49801080Y-160480000D01*
X49801094Y-160479999D01*
X50061009Y-160445779D01*
X50061020Y-160445777D01*
X50314255Y-160377924D01*
X50556471Y-160277595D01*
X50556482Y-160277590D01*
X50783516Y-160146511D01*
X50783534Y-160146499D01*
X50896365Y-160059919D01*
X50896365Y-160059917D01*
X50288534Y-159452086D01*
X50419175Y-159357171D01*
X50547171Y-159229175D01*
X50642086Y-159098534D01*
X51249917Y-159706365D01*
X51249919Y-159706365D01*
X51336499Y-159593534D01*
X51336511Y-159593516D01*
X51467590Y-159366482D01*
X51467595Y-159366471D01*
X51567924Y-159124255D01*
X51635777Y-158871020D01*
X51635779Y-158871009D01*
X51669999Y-158611094D01*
X51670000Y-158611080D01*
X51670000Y-158348919D01*
X51669999Y-158348905D01*
X60810000Y-158348905D01*
X60810000Y-158611094D01*
X60844220Y-158871009D01*
X60844222Y-158871020D01*
X60912075Y-159124255D01*
X61012404Y-159366471D01*
X61012409Y-159366482D01*
X61143488Y-159593516D01*
X61143494Y-159593524D01*
X61230080Y-159706365D01*
X61837912Y-159098532D01*
X61932829Y-159229175D01*
X62060825Y-159357171D01*
X62191465Y-159452086D01*
X61583633Y-160059917D01*
X61583633Y-160059918D01*
X61696475Y-160146505D01*
X61696483Y-160146511D01*
X61923517Y-160277590D01*
X61923528Y-160277595D01*
X62165744Y-160377924D01*
X62418979Y-160445777D01*
X62418990Y-160445779D01*
X62678905Y-160479999D01*
X62678920Y-160480000D01*
X62941080Y-160480000D01*
X62941094Y-160479999D01*
X63201009Y-160445779D01*
X63201020Y-160445777D01*
X63454255Y-160377924D01*
X63696471Y-160277595D01*
X63696482Y-160277590D01*
X63923516Y-160146511D01*
X63923534Y-160146499D01*
X64036365Y-160059919D01*
X64036365Y-160059917D01*
X63428534Y-159452086D01*
X63559175Y-159357171D01*
X63687171Y-159229175D01*
X63782086Y-159098534D01*
X64389917Y-159706365D01*
X64389919Y-159706365D01*
X64476499Y-159593534D01*
X64476511Y-159593516D01*
X64607590Y-159366482D01*
X64607595Y-159366471D01*
X64707924Y-159124255D01*
X64775777Y-158871020D01*
X64775779Y-158871009D01*
X64809999Y-158611094D01*
X64810000Y-158611080D01*
X64810000Y-158348919D01*
X64809999Y-158348905D01*
X64775779Y-158088990D01*
X64775777Y-158088979D01*
X64707924Y-157835744D01*
X64607595Y-157593528D01*
X64607590Y-157593517D01*
X64476511Y-157366483D01*
X64476505Y-157366475D01*
X64389918Y-157253633D01*
X64389917Y-157253633D01*
X63782085Y-157861465D01*
X63687171Y-157730825D01*
X63559175Y-157602829D01*
X63428532Y-157507912D01*
X64036365Y-156900080D01*
X63923524Y-156813494D01*
X63923516Y-156813488D01*
X63696482Y-156682409D01*
X63696471Y-156682404D01*
X63454255Y-156582075D01*
X63201020Y-156514222D01*
X63201009Y-156514220D01*
X62941094Y-156480000D01*
X62678905Y-156480000D01*
X62418990Y-156514220D01*
X62418979Y-156514222D01*
X62165744Y-156582075D01*
X61923528Y-156682404D01*
X61923517Y-156682409D01*
X61696471Y-156813496D01*
X61583633Y-156900079D01*
X61583633Y-156900080D01*
X62191466Y-157507913D01*
X62060825Y-157602829D01*
X61932829Y-157730825D01*
X61837913Y-157861466D01*
X61230080Y-157253633D01*
X61230079Y-157253633D01*
X61143496Y-157366471D01*
X61012409Y-157593517D01*
X61012404Y-157593528D01*
X60912075Y-157835744D01*
X60844222Y-158088979D01*
X60844220Y-158088990D01*
X60810000Y-158348905D01*
X51669999Y-158348905D01*
X51635779Y-158088990D01*
X51635777Y-158088979D01*
X51567924Y-157835744D01*
X51467595Y-157593528D01*
X51467590Y-157593517D01*
X51336511Y-157366483D01*
X51336505Y-157366475D01*
X51249918Y-157253633D01*
X51249917Y-157253633D01*
X50642085Y-157861465D01*
X50547171Y-157730825D01*
X50419175Y-157602829D01*
X50288532Y-157507912D01*
X50896365Y-156900080D01*
X50783524Y-156813494D01*
X50783516Y-156813488D01*
X50556482Y-156682409D01*
X50556471Y-156682404D01*
X50314255Y-156582075D01*
X50061020Y-156514222D01*
X50061009Y-156514220D01*
X49801094Y-156480000D01*
X49538905Y-156480000D01*
X49278990Y-156514220D01*
X49278979Y-156514222D01*
X49025744Y-156582075D01*
X48783528Y-156682404D01*
X48783517Y-156682409D01*
X48556471Y-156813496D01*
X48489986Y-156864512D01*
X48424817Y-156889706D01*
X48356372Y-156875667D01*
X48306382Y-156826853D01*
X48290500Y-156766136D01*
X48290500Y-135677682D01*
X51360000Y-135677682D01*
X51360000Y-135882317D01*
X51392009Y-136084417D01*
X51455244Y-136279031D01*
X51548141Y-136461350D01*
X51548147Y-136461359D01*
X51580523Y-136505921D01*
X51580524Y-136505922D01*
X52197449Y-135888997D01*
X52217370Y-135963343D01*
X52279905Y-136071657D01*
X52368343Y-136160095D01*
X52476657Y-136222630D01*
X52551002Y-136242550D01*
X51934076Y-136859474D01*
X51978650Y-136891859D01*
X52160968Y-136984755D01*
X52355582Y-137047990D01*
X52557683Y-137080000D01*
X52762317Y-137080000D01*
X52964417Y-137047990D01*
X53159031Y-136984755D01*
X53341349Y-136891859D01*
X53385921Y-136859474D01*
X52768997Y-136242550D01*
X52843343Y-136222630D01*
X52951657Y-136160095D01*
X53040095Y-136071657D01*
X53102630Y-135963343D01*
X53122550Y-135888997D01*
X53739474Y-136505921D01*
X53771859Y-136461349D01*
X53799233Y-136407624D01*
X53847207Y-136356827D01*
X53915028Y-136340031D01*
X53981163Y-136362567D01*
X54020203Y-136407621D01*
X54047713Y-136461611D01*
X54168028Y-136627213D01*
X54312786Y-136771971D01*
X54433226Y-136859474D01*
X54478390Y-136892287D01*
X54594607Y-136951503D01*
X54660776Y-136985218D01*
X54660778Y-136985218D01*
X54660781Y-136985220D01*
X54737046Y-137010000D01*
X54855465Y-137048477D01*
X54956557Y-137064488D01*
X55057648Y-137080500D01*
X55057649Y-137080500D01*
X55262351Y-137080500D01*
X55262352Y-137080500D01*
X55464534Y-137048477D01*
X55659219Y-136985220D01*
X55841610Y-136892287D01*
X55944486Y-136817544D01*
X56007213Y-136771971D01*
X56007215Y-136771968D01*
X56007219Y-136771966D01*
X56072319Y-136706866D01*
X56133642Y-136673381D01*
X56203334Y-136678365D01*
X56247681Y-136706866D01*
X56312786Y-136771971D01*
X56433226Y-136859474D01*
X56478390Y-136892287D01*
X56594607Y-136951503D01*
X56660776Y-136985218D01*
X56660778Y-136985218D01*
X56660781Y-136985220D01*
X56737046Y-137010000D01*
X56855465Y-137048477D01*
X56956557Y-137064488D01*
X57057648Y-137080500D01*
X57057649Y-137080500D01*
X57262351Y-137080500D01*
X57262352Y-137080500D01*
X57464534Y-137048477D01*
X57659219Y-136985220D01*
X57841610Y-136892287D01*
X57944486Y-136817544D01*
X58007213Y-136771971D01*
X58007215Y-136771968D01*
X58007219Y-136771966D01*
X58151966Y-136627219D01*
X58155025Y-136623009D01*
X58210352Y-136580339D01*
X58279965Y-136574355D01*
X58341762Y-136606957D01*
X58371530Y-136652554D01*
X58416202Y-136772328D01*
X58416206Y-136772335D01*
X58453601Y-136822287D01*
X58502454Y-136887546D01*
X58609811Y-136967914D01*
X58651682Y-137023847D01*
X58659500Y-137067180D01*
X58659500Y-139554217D01*
X58639815Y-139621256D01*
X58623181Y-139641898D01*
X57911899Y-140353181D01*
X57850576Y-140386666D01*
X57824218Y-140389500D01*
X54341458Y-140389500D01*
X54321923Y-140393386D01*
X54282851Y-140401158D01*
X54148167Y-140427947D01*
X54148159Y-140427950D01*
X54094834Y-140450037D01*
X54094834Y-140450038D01*
X54049315Y-140468892D01*
X53966089Y-140503366D01*
X53966079Y-140503371D01*
X53802219Y-140612859D01*
X53757299Y-140657780D01*
X53662861Y-140752218D01*
X53662858Y-140752221D01*
X52102221Y-142312858D01*
X52102218Y-142312861D01*
X52063028Y-142352051D01*
X51962859Y-142452219D01*
X51853371Y-142616080D01*
X51853364Y-142616093D01*
X51834021Y-142662792D01*
X51834014Y-142662809D01*
X51832731Y-142665909D01*
X51777949Y-142798164D01*
X51768724Y-142844541D01*
X51767002Y-142853197D01*
X51767002Y-142853198D01*
X51739500Y-142991456D01*
X51739500Y-154482819D01*
X51719815Y-154549858D01*
X51689812Y-154582085D01*
X51582452Y-154662455D01*
X51496206Y-154777664D01*
X51496202Y-154777671D01*
X51445908Y-154912517D01*
X51439501Y-154972116D01*
X51439500Y-154972135D01*
X51439500Y-156567870D01*
X51439501Y-156567876D01*
X51445908Y-156627483D01*
X51496202Y-156762328D01*
X51496206Y-156762335D01*
X51582452Y-156877544D01*
X51582455Y-156877547D01*
X51697664Y-156963793D01*
X51697671Y-156963797D01*
X51832517Y-157014091D01*
X51832516Y-157014091D01*
X51839444Y-157014835D01*
X51892127Y-157020500D01*
X53587872Y-157020499D01*
X53647483Y-157014091D01*
X53782331Y-156963796D01*
X53897546Y-156877546D01*
X53983796Y-156762331D01*
X53987574Y-156752203D01*
X54008213Y-156696866D01*
X54028470Y-156642553D01*
X54070339Y-156586621D01*
X54135803Y-156562203D01*
X54204076Y-156577054D01*
X54244968Y-156613001D01*
X54248026Y-156617210D01*
X54248032Y-156617217D01*
X54392786Y-156761971D01*
X54544787Y-156872404D01*
X54558390Y-156882287D01*
X54674607Y-156941503D01*
X54740776Y-156975218D01*
X54740778Y-156975218D01*
X54740781Y-156975220D01*
X54827806Y-157003496D01*
X54935465Y-157038477D01*
X55036557Y-157054488D01*
X55137648Y-157070500D01*
X55137649Y-157070500D01*
X55342351Y-157070500D01*
X55342352Y-157070500D01*
X55544534Y-157038477D01*
X55739219Y-156975220D01*
X55921610Y-156882287D01*
X56024941Y-156807213D01*
X56087213Y-156761971D01*
X56087215Y-156761968D01*
X56087219Y-156761966D01*
X56152319Y-156696866D01*
X56213642Y-156663381D01*
X56283334Y-156668365D01*
X56327681Y-156696866D01*
X56392786Y-156761971D01*
X56544787Y-156872404D01*
X56558390Y-156882287D01*
X56674607Y-156941503D01*
X56740776Y-156975218D01*
X56740778Y-156975218D01*
X56740781Y-156975220D01*
X56827806Y-157003496D01*
X56935465Y-157038477D01*
X57036557Y-157054488D01*
X57137648Y-157070500D01*
X57137649Y-157070500D01*
X57342351Y-157070500D01*
X57342352Y-157070500D01*
X57544534Y-157038477D01*
X57739219Y-156975220D01*
X57921610Y-156882287D01*
X58024941Y-156807213D01*
X58087213Y-156761971D01*
X58087215Y-156761968D01*
X58087219Y-156761966D01*
X58231966Y-156617219D01*
X58231968Y-156617215D01*
X58231971Y-156617213D01*
X58352286Y-156451611D01*
X58352415Y-156451359D01*
X58379795Y-156397621D01*
X58427769Y-156346826D01*
X58495589Y-156330030D01*
X58561725Y-156352567D01*
X58600765Y-156397621D01*
X58628141Y-156451350D01*
X58628147Y-156451359D01*
X58660523Y-156495921D01*
X58660524Y-156495922D01*
X59277449Y-155878996D01*
X59297370Y-155953343D01*
X59359905Y-156061657D01*
X59448343Y-156150095D01*
X59556657Y-156212630D01*
X59631002Y-156232550D01*
X59014076Y-156849474D01*
X59058650Y-156881859D01*
X59240968Y-156974755D01*
X59435582Y-157037990D01*
X59637683Y-157070000D01*
X59842317Y-157070000D01*
X60044417Y-157037990D01*
X60239031Y-156974755D01*
X60421351Y-156881858D01*
X60421353Y-156881857D01*
X60465921Y-156849475D01*
X60465921Y-156849474D01*
X59848997Y-156232550D01*
X59923343Y-156212630D01*
X60031657Y-156150095D01*
X60120095Y-156061657D01*
X60182630Y-155953343D01*
X60202550Y-155878997D01*
X60819474Y-156495921D01*
X60851859Y-156451349D01*
X60944755Y-156269031D01*
X61007990Y-156074417D01*
X61040000Y-155872315D01*
X61040382Y-155867462D01*
X61042443Y-155867624D01*
X61059685Y-155808905D01*
X61112489Y-155763150D01*
X61181647Y-155753206D01*
X61188450Y-155754543D01*
X61188476Y-155754414D01*
X61191575Y-155755022D01*
X61191578Y-155755022D01*
X61191580Y-155755023D01*
X61191584Y-155755024D01*
X61334000Y-155775500D01*
X72465500Y-155775500D01*
X72532539Y-155795185D01*
X72578294Y-155847989D01*
X72589500Y-155899500D01*
X72589500Y-160193918D01*
X72589500Y-160193920D01*
X72589499Y-160193920D01*
X72618340Y-160338907D01*
X72618343Y-160338917D01*
X72674914Y-160475492D01*
X72674915Y-160475494D01*
X72674916Y-160475495D01*
X72677925Y-160479999D01*
X72707812Y-160524727D01*
X72707813Y-160524730D01*
X72757046Y-160598414D01*
X72757052Y-160598421D01*
X74494947Y-162336314D01*
X75067048Y-162908415D01*
X75067049Y-162908416D01*
X75119936Y-162961303D01*
X75171585Y-163012952D01*
X75294498Y-163095080D01*
X75294511Y-163095087D01*
X75420522Y-163147282D01*
X75431087Y-163151658D01*
X75431091Y-163151658D01*
X75431092Y-163151659D01*
X75576079Y-163180500D01*
X75576082Y-163180500D01*
X101333920Y-163180500D01*
X101431462Y-163161096D01*
X101478913Y-163151658D01*
X101615495Y-163095084D01*
X101664729Y-163062186D01*
X101738416Y-163012952D01*
X101765746Y-162985621D01*
X101772601Y-162980444D01*
X101797560Y-162971011D01*
X101820979Y-162958224D01*
X101829741Y-162958850D01*
X101837960Y-162955745D01*
X101864053Y-162961303D01*
X101890670Y-162963207D01*
X101897704Y-162968472D01*
X101906296Y-162970303D01*
X101925243Y-162989087D01*
X101946605Y-163005078D01*
X101949675Y-163013308D01*
X101955914Y-163019494D01*
X101961698Y-163045542D01*
X101971023Y-163070542D01*
X101970054Y-163083175D01*
X101971060Y-163087703D01*
X101969351Y-163092343D01*
X101968230Y-163106982D01*
X101927233Y-163286601D01*
X101927231Y-163286618D01*
X101889500Y-163621491D01*
X101889500Y-163958508D01*
X101927231Y-164293381D01*
X101927233Y-164293397D01*
X102002223Y-164621953D01*
X102002227Y-164621965D01*
X102113532Y-164940054D01*
X102259752Y-165243683D01*
X102259754Y-165243686D01*
X102439054Y-165529039D01*
X102649175Y-165792523D01*
X102887477Y-166030825D01*
X103150961Y-166240946D01*
X103436314Y-166420246D01*
X103739949Y-166566469D01*
X103978848Y-166650063D01*
X104058034Y-166677772D01*
X104058046Y-166677776D01*
X104386606Y-166752767D01*
X104721492Y-166790499D01*
X104721493Y-166790500D01*
X104721496Y-166790500D01*
X105058507Y-166790500D01*
X105058507Y-166790499D01*
X105393394Y-166752767D01*
X105721954Y-166677776D01*
X106040051Y-166566469D01*
X106343686Y-166420246D01*
X106629039Y-166240946D01*
X106892523Y-166030825D01*
X107130825Y-165792523D01*
X107340946Y-165529039D01*
X107520246Y-165243686D01*
X107666469Y-164940051D01*
X107777776Y-164621954D01*
X107852767Y-164293394D01*
X107890500Y-163958504D01*
X107890500Y-163621496D01*
X107852767Y-163286606D01*
X107777776Y-162958046D01*
X107776971Y-162955745D01*
X107741577Y-162854593D01*
X107678469Y-162674244D01*
X107666469Y-162639949D01*
X107520246Y-162336314D01*
X107340946Y-162050961D01*
X107130825Y-161787477D01*
X107010503Y-161667155D01*
X108870000Y-161667155D01*
X108870000Y-162365000D01*
X109894722Y-162365000D01*
X109850667Y-162441306D01*
X109820000Y-162555756D01*
X109820000Y-162674244D01*
X109850667Y-162788694D01*
X109894722Y-162865000D01*
X108870000Y-162865000D01*
X108870000Y-163562844D01*
X108876401Y-163622372D01*
X108876403Y-163622379D01*
X108926645Y-163757086D01*
X108926649Y-163757093D01*
X109012809Y-163872187D01*
X109012812Y-163872190D01*
X109127906Y-163958350D01*
X109127913Y-163958354D01*
X109262620Y-164008596D01*
X109262627Y-164008598D01*
X109322155Y-164014999D01*
X109322172Y-164015000D01*
X110020000Y-164015000D01*
X110020000Y-162990277D01*
X110096306Y-163034333D01*
X110210756Y-163065000D01*
X110329244Y-163065000D01*
X110443694Y-163034333D01*
X110520000Y-162990277D01*
X110520000Y-164015000D01*
X111217828Y-164015000D01*
X111217844Y-164014999D01*
X111277372Y-164008598D01*
X111277379Y-164008596D01*
X111412086Y-163958354D01*
X111412093Y-163958350D01*
X111527187Y-163872190D01*
X111527190Y-163872187D01*
X111613350Y-163757093D01*
X111613354Y-163757086D01*
X111643213Y-163677031D01*
X111685084Y-163621097D01*
X111750548Y-163596680D01*
X111818821Y-163611531D01*
X111847076Y-163632683D01*
X111897636Y-163683243D01*
X111897641Y-163683247D01*
X112053192Y-163796260D01*
X112075978Y-163812815D01*
X112192501Y-163872187D01*
X112272393Y-163912895D01*
X112272396Y-163912896D01*
X112296643Y-163920774D01*
X112482049Y-163981015D01*
X112699778Y-164015500D01*
X112699779Y-164015500D01*
X112920221Y-164015500D01*
X112920222Y-164015500D01*
X113137951Y-163981015D01*
X113347606Y-163912895D01*
X113544022Y-163812815D01*
X113722365Y-163683242D01*
X113878242Y-163527365D01*
X114007815Y-163349022D01*
X114107895Y-163152606D01*
X114176015Y-162942951D01*
X114210500Y-162725222D01*
X114210500Y-162504778D01*
X114176015Y-162287049D01*
X114141955Y-162182221D01*
X114107896Y-162077396D01*
X114107895Y-162077393D01*
X114066780Y-161996703D01*
X114007815Y-161880978D01*
X113939883Y-161787477D01*
X113878247Y-161702641D01*
X113878243Y-161702636D01*
X113722363Y-161546756D01*
X113722358Y-161546752D01*
X113544025Y-161417187D01*
X113544024Y-161417186D01*
X113544022Y-161417185D01*
X113481096Y-161385122D01*
X113347606Y-161317104D01*
X113347603Y-161317103D01*
X113137952Y-161248985D01*
X113029086Y-161231742D01*
X112920222Y-161214500D01*
X112699778Y-161214500D01*
X112627201Y-161225995D01*
X112482047Y-161248985D01*
X112272396Y-161317103D01*
X112272393Y-161317104D01*
X112075974Y-161417187D01*
X111897641Y-161546752D01*
X111897636Y-161546756D01*
X111847075Y-161597317D01*
X111785752Y-161630801D01*
X111716060Y-161625816D01*
X111660127Y-161583945D01*
X111643213Y-161552968D01*
X111613354Y-161472913D01*
X111613350Y-161472906D01*
X111527190Y-161357812D01*
X111527187Y-161357809D01*
X111412093Y-161271649D01*
X111412086Y-161271645D01*
X111277379Y-161221403D01*
X111277372Y-161221401D01*
X111217844Y-161215000D01*
X110520000Y-161215000D01*
X110520000Y-162239722D01*
X110443694Y-162195667D01*
X110329244Y-162165000D01*
X110210756Y-162165000D01*
X110096306Y-162195667D01*
X110020000Y-162239722D01*
X110020000Y-161215000D01*
X109322155Y-161215000D01*
X109262627Y-161221401D01*
X109262620Y-161221403D01*
X109127913Y-161271645D01*
X109127906Y-161271649D01*
X109012812Y-161357809D01*
X109012809Y-161357812D01*
X108926649Y-161472906D01*
X108926645Y-161472913D01*
X108876403Y-161607620D01*
X108876401Y-161607627D01*
X108870000Y-161667155D01*
X107010503Y-161667155D01*
X106892523Y-161549175D01*
X106629039Y-161339054D01*
X106343686Y-161159754D01*
X106343683Y-161159752D01*
X106040054Y-161013532D01*
X105721965Y-160902227D01*
X105721953Y-160902223D01*
X105393397Y-160827233D01*
X105393381Y-160827231D01*
X105058508Y-160789500D01*
X105058504Y-160789500D01*
X104721496Y-160789500D01*
X104721491Y-160789500D01*
X104386618Y-160827231D01*
X104386601Y-160827233D01*
X104258314Y-160856514D01*
X104188575Y-160852240D01*
X104132218Y-160810942D01*
X104107135Y-160745729D01*
X104121290Y-160677309D01*
X104127613Y-160666741D01*
X104159394Y-160619179D01*
X104219737Y-160473497D01*
X104250500Y-160318842D01*
X104250500Y-160161158D01*
X104250500Y-160161155D01*
X104250499Y-160161153D01*
X104219737Y-160006503D01*
X104185855Y-159924703D01*
X104159397Y-159860827D01*
X104159390Y-159860814D01*
X104071789Y-159729711D01*
X104071786Y-159729707D01*
X103960292Y-159618213D01*
X103960288Y-159618210D01*
X103829185Y-159530609D01*
X103829172Y-159530602D01*
X103683501Y-159470264D01*
X103683489Y-159470261D01*
X103528845Y-159439500D01*
X103528842Y-159439500D01*
X103371158Y-159439500D01*
X103371155Y-159439500D01*
X103216510Y-159470261D01*
X103216498Y-159470264D01*
X103070827Y-159530602D01*
X103070814Y-159530609D01*
X102939711Y-159618210D01*
X102939707Y-159618213D01*
X102828213Y-159729707D01*
X102828207Y-159729715D01*
X102740607Y-159860818D01*
X102740606Y-159860819D01*
X102730805Y-159884480D01*
X102703927Y-159924703D01*
X100985451Y-161643181D01*
X100924128Y-161676666D01*
X100897770Y-161679500D01*
X76012229Y-161679500D01*
X75945190Y-161659815D01*
X75924548Y-161643181D01*
X74571014Y-160289646D01*
X74126819Y-159845451D01*
X74093334Y-159784128D01*
X74090500Y-159757770D01*
X74090500Y-158538905D01*
X85230000Y-158538905D01*
X85230000Y-158801094D01*
X85264220Y-159061009D01*
X85264222Y-159061020D01*
X85332075Y-159314255D01*
X85432404Y-159556471D01*
X85432409Y-159556482D01*
X85563488Y-159783516D01*
X85563494Y-159783524D01*
X85650080Y-159896365D01*
X86257912Y-159288532D01*
X86352829Y-159419175D01*
X86480825Y-159547171D01*
X86611465Y-159642086D01*
X86003633Y-160249917D01*
X86003633Y-160249918D01*
X86116475Y-160336505D01*
X86116483Y-160336511D01*
X86343517Y-160467590D01*
X86343528Y-160467595D01*
X86585744Y-160567924D01*
X86838979Y-160635777D01*
X86838990Y-160635779D01*
X87098905Y-160669999D01*
X87098920Y-160670000D01*
X87361080Y-160670000D01*
X87361094Y-160669999D01*
X87621009Y-160635779D01*
X87621020Y-160635777D01*
X87874255Y-160567924D01*
X88116471Y-160467595D01*
X88116482Y-160467590D01*
X88343516Y-160336511D01*
X88343534Y-160336499D01*
X88456365Y-160249919D01*
X88456365Y-160249917D01*
X87848534Y-159642086D01*
X87979175Y-159547171D01*
X88107171Y-159419175D01*
X88202086Y-159288534D01*
X88809917Y-159896365D01*
X88809919Y-159896365D01*
X88896499Y-159783534D01*
X88896511Y-159783516D01*
X89027590Y-159556482D01*
X89027595Y-159556471D01*
X89127924Y-159314255D01*
X89195777Y-159061020D01*
X89195779Y-159061009D01*
X89229999Y-158801094D01*
X89230000Y-158801080D01*
X89230000Y-158538919D01*
X89229999Y-158538905D01*
X98370000Y-158538905D01*
X98370000Y-158801094D01*
X98404220Y-159061009D01*
X98404222Y-159061020D01*
X98472075Y-159314255D01*
X98572404Y-159556471D01*
X98572409Y-159556482D01*
X98703488Y-159783516D01*
X98703494Y-159783524D01*
X98790080Y-159896365D01*
X99397912Y-159288532D01*
X99492829Y-159419175D01*
X99620825Y-159547171D01*
X99751465Y-159642086D01*
X99143633Y-160249917D01*
X99143633Y-160249918D01*
X99256475Y-160336505D01*
X99256483Y-160336511D01*
X99483517Y-160467590D01*
X99483528Y-160467595D01*
X99725744Y-160567924D01*
X99978979Y-160635777D01*
X99978990Y-160635779D01*
X100238905Y-160669999D01*
X100238920Y-160670000D01*
X100501080Y-160670000D01*
X100501094Y-160669999D01*
X100761009Y-160635779D01*
X100761020Y-160635777D01*
X101014255Y-160567924D01*
X101256471Y-160467595D01*
X101256482Y-160467590D01*
X101483516Y-160336511D01*
X101483534Y-160336499D01*
X101596365Y-160249919D01*
X101596365Y-160249917D01*
X100988534Y-159642086D01*
X101119175Y-159547171D01*
X101247171Y-159419175D01*
X101342086Y-159288534D01*
X101949917Y-159896365D01*
X101949919Y-159896365D01*
X102036499Y-159783534D01*
X102036511Y-159783516D01*
X102167590Y-159556482D01*
X102167595Y-159556471D01*
X102267924Y-159314255D01*
X102335777Y-159061020D01*
X102335779Y-159061009D01*
X102369999Y-158801094D01*
X102370000Y-158801080D01*
X102370000Y-158538919D01*
X102369999Y-158538905D01*
X102335779Y-158278990D01*
X102335777Y-158278979D01*
X102267924Y-158025744D01*
X102167595Y-157783528D01*
X102167590Y-157783517D01*
X102036511Y-157556483D01*
X102036505Y-157556475D01*
X101949918Y-157443633D01*
X101949917Y-157443633D01*
X101342085Y-158051465D01*
X101247171Y-157920825D01*
X101119175Y-157792829D01*
X100988532Y-157697912D01*
X101596365Y-157090080D01*
X101483524Y-157003494D01*
X101483516Y-157003488D01*
X101256482Y-156872409D01*
X101256471Y-156872404D01*
X101014255Y-156772075D01*
X100761020Y-156704222D01*
X100761009Y-156704220D01*
X100501094Y-156670000D01*
X100238905Y-156670000D01*
X99978990Y-156704220D01*
X99978979Y-156704222D01*
X99725744Y-156772075D01*
X99483528Y-156872404D01*
X99483517Y-156872409D01*
X99256471Y-157003496D01*
X99143633Y-157090079D01*
X99143633Y-157090080D01*
X99751466Y-157697913D01*
X99620825Y-157792829D01*
X99492829Y-157920825D01*
X99397913Y-158051466D01*
X98790080Y-157443633D01*
X98790079Y-157443633D01*
X98703496Y-157556471D01*
X98572409Y-157783517D01*
X98572404Y-157783528D01*
X98472075Y-158025744D01*
X98404222Y-158278979D01*
X98404220Y-158278990D01*
X98370000Y-158538905D01*
X89229999Y-158538905D01*
X89195779Y-158278990D01*
X89195777Y-158278979D01*
X89127924Y-158025744D01*
X89027595Y-157783528D01*
X89027590Y-157783517D01*
X88896511Y-157556483D01*
X88896505Y-157556475D01*
X88809918Y-157443633D01*
X88809917Y-157443633D01*
X88202085Y-158051465D01*
X88107171Y-157920825D01*
X87979175Y-157792829D01*
X87848532Y-157697912D01*
X88456365Y-157090080D01*
X88343524Y-157003494D01*
X88343516Y-157003488D01*
X88116482Y-156872409D01*
X88116471Y-156872404D01*
X87874255Y-156772075D01*
X87621020Y-156704222D01*
X87621009Y-156704220D01*
X87361094Y-156670000D01*
X87098905Y-156670000D01*
X86838990Y-156704220D01*
X86838979Y-156704222D01*
X86585744Y-156772075D01*
X86343528Y-156872404D01*
X86343517Y-156872409D01*
X86116471Y-157003496D01*
X86003633Y-157090079D01*
X86003633Y-157090080D01*
X86611466Y-157697913D01*
X86480825Y-157792829D01*
X86352829Y-157920825D01*
X86257913Y-158051466D01*
X85650080Y-157443633D01*
X85650079Y-157443633D01*
X85563496Y-157556471D01*
X85432409Y-157783517D01*
X85432404Y-157783528D01*
X85332075Y-158025744D01*
X85264222Y-158278979D01*
X85264220Y-158278990D01*
X85230000Y-158538905D01*
X74090500Y-158538905D01*
X74090500Y-155899500D01*
X74110185Y-155832461D01*
X74162989Y-155786706D01*
X74214500Y-155775500D01*
X74305990Y-155775500D01*
X74306000Y-155775500D01*
X74413456Y-155763947D01*
X74464967Y-155752741D01*
X74499197Y-155741347D01*
X74567497Y-155718616D01*
X74567501Y-155718613D01*
X74567504Y-155718613D01*
X74688543Y-155640825D01*
X74741347Y-155595070D01*
X74835567Y-155486336D01*
X74895338Y-155355459D01*
X74915023Y-155288420D01*
X74915024Y-155288416D01*
X74935500Y-155146000D01*
X74935500Y-153024000D01*
X74923947Y-152916544D01*
X74912741Y-152865033D01*
X74909900Y-152856498D01*
X74878616Y-152762502D01*
X74878613Y-152762496D01*
X74845403Y-152710821D01*
X74800825Y-152641457D01*
X74799334Y-152639736D01*
X74755076Y-152588659D01*
X74755072Y-152588656D01*
X74755070Y-152588653D01*
X74646336Y-152494433D01*
X74646333Y-152494431D01*
X74646331Y-152494430D01*
X74515465Y-152434664D01*
X74515460Y-152434662D01*
X74515459Y-152434662D01*
X74448420Y-152414977D01*
X74448422Y-152414977D01*
X74448417Y-152414976D01*
X74400944Y-152408150D01*
X74306000Y-152394500D01*
X74305998Y-152394500D01*
X64449500Y-152394500D01*
X64382461Y-152374815D01*
X64336706Y-152322011D01*
X64325500Y-152270500D01*
X64325500Y-150281153D01*
X80279500Y-150281153D01*
X80279500Y-150438846D01*
X80310261Y-150593489D01*
X80310264Y-150593501D01*
X80370602Y-150739172D01*
X80370609Y-150739185D01*
X80458210Y-150870288D01*
X80458213Y-150870292D01*
X80569707Y-150981786D01*
X80569711Y-150981789D01*
X80700814Y-151069390D01*
X80700827Y-151069397D01*
X80801965Y-151111289D01*
X80846503Y-151129737D01*
X80998644Y-151160000D01*
X81001153Y-151160499D01*
X81001156Y-151160500D01*
X81001158Y-151160500D01*
X81158844Y-151160500D01*
X81158845Y-151160499D01*
X81313497Y-151129737D01*
X81459179Y-151069394D01*
X81590289Y-150981789D01*
X81701789Y-150870289D01*
X81789394Y-150739179D01*
X81849737Y-150593497D01*
X81880500Y-150438842D01*
X81880500Y-150281158D01*
X81880500Y-150281155D01*
X81880499Y-150281153D01*
X81851079Y-150133251D01*
X81849737Y-150126503D01*
X81833902Y-150088273D01*
X81789397Y-149980827D01*
X81789390Y-149980814D01*
X81729381Y-149891004D01*
X81719895Y-149860710D01*
X81708799Y-149830958D01*
X81709528Y-149827602D01*
X81708503Y-149824326D01*
X81716900Y-149793715D01*
X81723651Y-149762685D01*
X81726433Y-149758968D01*
X81726988Y-149756946D01*
X81744794Y-149734440D01*
X81822418Y-149656816D01*
X81883740Y-149623334D01*
X81910097Y-149620500D01*
X82290166Y-149620500D01*
X82357205Y-149640185D01*
X82359057Y-149641398D01*
X82460814Y-149709390D01*
X82460827Y-149709397D01*
X82589478Y-149762685D01*
X82606503Y-149769737D01*
X82727048Y-149793715D01*
X82761153Y-149800499D01*
X82761156Y-149800500D01*
X82761158Y-149800500D01*
X82918844Y-149800500D01*
X82918845Y-149800499D01*
X83073497Y-149769737D01*
X83219179Y-149709394D01*
X83350289Y-149621789D01*
X83461789Y-149510289D01*
X83549394Y-149379179D01*
X83609737Y-149233497D01*
X83640500Y-149078842D01*
X83640500Y-148921158D01*
X83640500Y-148921155D01*
X83640499Y-148921153D01*
X83609738Y-148766510D01*
X83609737Y-148766503D01*
X83609735Y-148766498D01*
X83549397Y-148620827D01*
X83549390Y-148620814D01*
X83461789Y-148489711D01*
X83461786Y-148489707D01*
X83350292Y-148378213D01*
X83350288Y-148378210D01*
X83219185Y-148290609D01*
X83219172Y-148290602D01*
X83073501Y-148230264D01*
X83073489Y-148230261D01*
X82918845Y-148199500D01*
X82918842Y-148199500D01*
X82761158Y-148199500D01*
X82761155Y-148199500D01*
X82606510Y-148230261D01*
X82606498Y-148230264D01*
X82460827Y-148290602D01*
X82460814Y-148290609D01*
X82329711Y-148378210D01*
X82329707Y-148378213D01*
X82324740Y-148383181D01*
X82263417Y-148416666D01*
X82237059Y-148419500D01*
X81689057Y-148419500D01*
X81530943Y-148419500D01*
X81378215Y-148460423D01*
X81378214Y-148460423D01*
X81378212Y-148460424D01*
X81378209Y-148460425D01*
X81336221Y-148484668D01*
X81336219Y-148484669D01*
X81241290Y-148539475D01*
X81241282Y-148539481D01*
X80599481Y-149181282D01*
X80599479Y-149181285D01*
X80568183Y-149235493D01*
X80568182Y-149235495D01*
X80520423Y-149318214D01*
X80514804Y-149339185D01*
X80479499Y-149470943D01*
X80479499Y-149470945D01*
X80479499Y-149639046D01*
X80479500Y-149639059D01*
X80479500Y-149780234D01*
X80459815Y-149847273D01*
X80458602Y-149849125D01*
X80370609Y-149980814D01*
X80370602Y-149980827D01*
X80310264Y-150126498D01*
X80310261Y-150126510D01*
X80279500Y-150281153D01*
X64325500Y-150281153D01*
X64325500Y-143054010D01*
X64325500Y-143054000D01*
X64313947Y-142946544D01*
X64302741Y-142895033D01*
X64288817Y-142853198D01*
X64268616Y-142792502D01*
X64268613Y-142792496D01*
X64219584Y-142716206D01*
X64190825Y-142671457D01*
X64183317Y-142662792D01*
X64145076Y-142618659D01*
X64145072Y-142618656D01*
X64145070Y-142618653D01*
X64036336Y-142524433D01*
X64036333Y-142524431D01*
X64036331Y-142524430D01*
X63905465Y-142464664D01*
X63905460Y-142464662D01*
X63905459Y-142464662D01*
X63838420Y-142444977D01*
X63838422Y-142444977D01*
X63838417Y-142444976D01*
X63776347Y-142436052D01*
X63696000Y-142424500D01*
X61334000Y-142424500D01*
X61333991Y-142424500D01*
X61333990Y-142424501D01*
X61226549Y-142436052D01*
X61226537Y-142436054D01*
X61175027Y-142447260D01*
X61072502Y-142481383D01*
X61072496Y-142481386D01*
X60951465Y-142559169D01*
X60951458Y-142559173D01*
X60898648Y-142604934D01*
X60888449Y-142616705D01*
X60829670Y-142654478D01*
X60794738Y-142659500D01*
X59932129Y-142659500D01*
X59932123Y-142659501D01*
X59872516Y-142665908D01*
X59737671Y-142716202D01*
X59737664Y-142716206D01*
X59622455Y-142802452D01*
X59622452Y-142802455D01*
X59536206Y-142917664D01*
X59536202Y-142917671D01*
X59485908Y-143052517D01*
X59479501Y-143112116D01*
X59479500Y-143112135D01*
X59479500Y-146707870D01*
X59479501Y-146707876D01*
X59485908Y-146767483D01*
X59536202Y-146902328D01*
X59536206Y-146902335D01*
X59622452Y-147017544D01*
X59622455Y-147017547D01*
X59737664Y-147103793D01*
X59737673Y-147103798D01*
X59784937Y-147121426D01*
X59840871Y-147163296D01*
X59865289Y-147228760D01*
X59850438Y-147297033D01*
X59801033Y-147346439D01*
X59735028Y-147361433D01*
X59698657Y-147359501D01*
X59698628Y-147359500D01*
X59698622Y-147359500D01*
X57761378Y-147359500D01*
X57761370Y-147359500D01*
X57761347Y-147359501D01*
X57708756Y-147362295D01*
X57708755Y-147362295D01*
X57478878Y-147406754D01*
X57478876Y-147406754D01*
X57478874Y-147406755D01*
X57404933Y-147434659D01*
X57259810Y-147489425D01*
X57057868Y-147607929D01*
X57057861Y-147607934D01*
X56878858Y-147758856D01*
X56878856Y-147758858D01*
X56727934Y-147937861D01*
X56727929Y-147937868D01*
X56609425Y-148139810D01*
X56575290Y-148230264D01*
X56526755Y-148358874D01*
X56526754Y-148358876D01*
X56526754Y-148358878D01*
X56482295Y-148588755D01*
X56482295Y-148588756D01*
X56479501Y-148641347D01*
X56479500Y-148641386D01*
X56479500Y-150578613D01*
X56479501Y-150578652D01*
X56482295Y-150631243D01*
X56482295Y-150631244D01*
X56507627Y-150762222D01*
X56526755Y-150861126D01*
X56571681Y-150980172D01*
X56609425Y-151080189D01*
X56727929Y-151282131D01*
X56727934Y-151282138D01*
X56878856Y-151461141D01*
X56878858Y-151461143D01*
X57057861Y-151612065D01*
X57057867Y-151612069D01*
X57057868Y-151612070D01*
X57259810Y-151730574D01*
X57478874Y-151813245D01*
X57708759Y-151857705D01*
X57761378Y-151860500D01*
X57761386Y-151860500D01*
X59698614Y-151860500D01*
X59698622Y-151860500D01*
X59751241Y-151857705D01*
X59981126Y-151813245D01*
X60200190Y-151730574D01*
X60402132Y-151612070D01*
X60500570Y-151529073D01*
X60564512Y-151500910D01*
X60633530Y-151511787D01*
X60685711Y-151558251D01*
X60704500Y-151623875D01*
X60704500Y-154620497D01*
X60684815Y-154687536D01*
X60632011Y-154733291D01*
X60562853Y-154743235D01*
X60507615Y-154720815D01*
X60421352Y-154658142D01*
X60239031Y-154565244D01*
X60044417Y-154502009D01*
X59842317Y-154470000D01*
X59637683Y-154470000D01*
X59435582Y-154502009D01*
X59240968Y-154565244D01*
X59058644Y-154658143D01*
X59014077Y-154690523D01*
X59014077Y-154690524D01*
X59631002Y-155307449D01*
X59556657Y-155327370D01*
X59448343Y-155389905D01*
X59359905Y-155478343D01*
X59297370Y-155586657D01*
X59277449Y-155661002D01*
X58660524Y-155044077D01*
X58660523Y-155044077D01*
X58628143Y-155088644D01*
X58600765Y-155142378D01*
X58552790Y-155193174D01*
X58484969Y-155209969D01*
X58418834Y-155187431D01*
X58379795Y-155142378D01*
X58375032Y-155133030D01*
X58352287Y-155088390D01*
X58352285Y-155088387D01*
X58352284Y-155088385D01*
X58231971Y-154922786D01*
X58087213Y-154778028D01*
X57921613Y-154657715D01*
X57921612Y-154657714D01*
X57921610Y-154657713D01*
X57848570Y-154620497D01*
X57739223Y-154564781D01*
X57544534Y-154501522D01*
X57369995Y-154473878D01*
X57342352Y-154469500D01*
X57137648Y-154469500D01*
X57113329Y-154473351D01*
X56935465Y-154501522D01*
X56740776Y-154564781D01*
X56558386Y-154657715D01*
X56392786Y-154778028D01*
X56392782Y-154778032D01*
X56327681Y-154843134D01*
X56266358Y-154876619D01*
X56196666Y-154871635D01*
X56152319Y-154843134D01*
X56087213Y-154778028D01*
X55921613Y-154657715D01*
X55921612Y-154657714D01*
X55921610Y-154657713D01*
X55848570Y-154620497D01*
X55739223Y-154564781D01*
X55544534Y-154501522D01*
X55369995Y-154473878D01*
X55342352Y-154469500D01*
X55137648Y-154469500D01*
X55113329Y-154473351D01*
X54935465Y-154501522D01*
X54740776Y-154564781D01*
X54558386Y-154657715D01*
X54392786Y-154778028D01*
X54248032Y-154922782D01*
X54248026Y-154922789D01*
X54244964Y-154927004D01*
X54189631Y-154969666D01*
X54120017Y-154975641D01*
X54058225Y-154943030D01*
X54028469Y-154897444D01*
X53983798Y-154777673D01*
X53983793Y-154777664D01*
X53897547Y-154662455D01*
X53891215Y-154657715D01*
X53841499Y-154620497D01*
X53790188Y-154582085D01*
X53748318Y-154526151D01*
X53740500Y-154482819D01*
X53740500Y-146712578D01*
X53760185Y-146645539D01*
X53812989Y-146599784D01*
X53882147Y-146589840D01*
X53945703Y-146618865D01*
X53966429Y-146641963D01*
X54016561Y-146714325D01*
X54016569Y-146714335D01*
X54175664Y-146873430D01*
X54175676Y-146873440D01*
X54360619Y-147001568D01*
X54360625Y-147001571D01*
X54565480Y-147094622D01*
X54783667Y-147149599D01*
X54915810Y-147159999D01*
X55479999Y-147159999D01*
X55480000Y-147159998D01*
X55480000Y-146343012D01*
X55537007Y-146375925D01*
X55664174Y-146410000D01*
X55795826Y-146410000D01*
X55922993Y-146375925D01*
X55980000Y-146343012D01*
X55980000Y-147159999D01*
X56544182Y-147159999D01*
X56544197Y-147159998D01*
X56676332Y-147149599D01*
X56894519Y-147094622D01*
X57099374Y-147001571D01*
X57099380Y-147001568D01*
X57284323Y-146873440D01*
X57284335Y-146873430D01*
X57443430Y-146714335D01*
X57443440Y-146714323D01*
X57571568Y-146529380D01*
X57571571Y-146529374D01*
X57664622Y-146324519D01*
X57719599Y-146106332D01*
X57729999Y-145974196D01*
X57730000Y-145974184D01*
X57730000Y-145160000D01*
X56230000Y-145160000D01*
X56230000Y-144660000D01*
X57729999Y-144660000D01*
X57729999Y-143845817D01*
X57729998Y-143845802D01*
X57719599Y-143713667D01*
X57664622Y-143495480D01*
X57571571Y-143290625D01*
X57571568Y-143290619D01*
X57443440Y-143105676D01*
X57443430Y-143105664D01*
X57284335Y-142946569D01*
X57284323Y-142946559D01*
X57099380Y-142818431D01*
X57099374Y-142818428D01*
X56894519Y-142725377D01*
X56676332Y-142670400D01*
X56544196Y-142660000D01*
X55980000Y-142660000D01*
X55980000Y-143476988D01*
X55922993Y-143444075D01*
X55795826Y-143410000D01*
X55664174Y-143410000D01*
X55537007Y-143444075D01*
X55480000Y-143476988D01*
X55480000Y-142660000D01*
X54915817Y-142660000D01*
X54915792Y-142660002D01*
X54891727Y-142661895D01*
X54823350Y-142647528D01*
X54773595Y-142598475D01*
X54758259Y-142530309D01*
X54782211Y-142464673D01*
X54794306Y-142450613D01*
X54818106Y-142426813D01*
X54879429Y-142393333D01*
X54905782Y-142390500D01*
X58388543Y-142390500D01*
X58426229Y-142383003D01*
X58546614Y-142359057D01*
X58581836Y-142352051D01*
X58658006Y-142320500D01*
X58763914Y-142276632D01*
X58927782Y-142167139D01*
X59067139Y-142027782D01*
X59067139Y-142027780D01*
X59077347Y-142017573D01*
X59077348Y-142017570D01*
X60437140Y-140657781D01*
X60546632Y-140493914D01*
X60585055Y-140401153D01*
X75719500Y-140401153D01*
X75719500Y-140558846D01*
X75750261Y-140713489D01*
X75750264Y-140713501D01*
X75810602Y-140859172D01*
X75810606Y-140859179D01*
X75848602Y-140916044D01*
X75869480Y-140982721D01*
X75869500Y-140984935D01*
X75869500Y-142444070D01*
X75876923Y-142481386D01*
X75885485Y-142524430D01*
X75892396Y-142559169D01*
X75892396Y-142559178D01*
X75892398Y-142559178D01*
X75894499Y-142569745D01*
X75894500Y-142569747D01*
X75943533Y-142688125D01*
X76014726Y-142794673D01*
X77655325Y-144435272D01*
X77655332Y-144435278D01*
X77749824Y-144498415D01*
X77749825Y-144498415D01*
X77753859Y-144501110D01*
X77761873Y-144506465D01*
X77880256Y-144555501D01*
X77880260Y-144555501D01*
X77880261Y-144555502D01*
X78005928Y-144580500D01*
X78005931Y-144580500D01*
X79765065Y-144580500D01*
X79832104Y-144600185D01*
X79833909Y-144601366D01*
X79890821Y-144639394D01*
X79890823Y-144639395D01*
X79890827Y-144639397D01*
X80036498Y-144699735D01*
X80036503Y-144699737D01*
X80191153Y-144730499D01*
X80191156Y-144730500D01*
X80191158Y-144730500D01*
X80348844Y-144730500D01*
X80348845Y-144730499D01*
X80503497Y-144699737D01*
X80649179Y-144639394D01*
X80780289Y-144551789D01*
X80891789Y-144440289D01*
X80979394Y-144309179D01*
X81039737Y-144163497D01*
X81070500Y-144008842D01*
X81070500Y-143851158D01*
X81070500Y-143851155D01*
X81070499Y-143851153D01*
X81055503Y-143775764D01*
X81039737Y-143696503D01*
X81037521Y-143691153D01*
X80979397Y-143550827D01*
X80979390Y-143550814D01*
X80891789Y-143419711D01*
X80891786Y-143419707D01*
X80857572Y-143385493D01*
X80824087Y-143324170D01*
X80823636Y-143273619D01*
X80824456Y-143269500D01*
X80840500Y-143188842D01*
X80840500Y-143031158D01*
X80840500Y-143031155D01*
X80840499Y-143031153D01*
X80813423Y-142895033D01*
X80809737Y-142876503D01*
X80779065Y-142802454D01*
X80749397Y-142730827D01*
X80749390Y-142730814D01*
X80681370Y-142629015D01*
X80671883Y-142598717D01*
X80660788Y-142568970D01*
X80661518Y-142565613D01*
X80660492Y-142562337D01*
X80668890Y-142531722D01*
X80675640Y-142500697D01*
X80678421Y-142496980D01*
X80678977Y-142494957D01*
X80696783Y-142472451D01*
X80862418Y-142306816D01*
X80923739Y-142273334D01*
X80950097Y-142270500D01*
X81860234Y-142270500D01*
X81927273Y-142290185D01*
X81929125Y-142291398D01*
X82060814Y-142379390D01*
X82060827Y-142379397D01*
X82197609Y-142436053D01*
X82206503Y-142439737D01*
X82331809Y-142464662D01*
X82361153Y-142470499D01*
X82361156Y-142470500D01*
X82361158Y-142470500D01*
X82518844Y-142470500D01*
X82518845Y-142470499D01*
X82673497Y-142439737D01*
X82819179Y-142379394D01*
X82819185Y-142379390D01*
X82950875Y-142291398D01*
X83017553Y-142270520D01*
X83019766Y-142270500D01*
X83409903Y-142270500D01*
X83476942Y-142290185D01*
X83497584Y-142306819D01*
X83753181Y-142562416D01*
X83786666Y-142623739D01*
X83789500Y-142650097D01*
X83789500Y-143190234D01*
X83769815Y-143257273D01*
X83768602Y-143259125D01*
X83680609Y-143390814D01*
X83680602Y-143390827D01*
X83620264Y-143536498D01*
X83620261Y-143536510D01*
X83589500Y-143691153D01*
X83589500Y-143848846D01*
X83620261Y-144003489D01*
X83620264Y-144003501D01*
X83680602Y-144149172D01*
X83680609Y-144149185D01*
X83768209Y-144280287D01*
X83768210Y-144280288D01*
X83768211Y-144280289D01*
X83823182Y-144335260D01*
X83856666Y-144396581D01*
X83859500Y-144422940D01*
X83859500Y-147490234D01*
X83839815Y-147557273D01*
X83838602Y-147559125D01*
X83750609Y-147690814D01*
X83750602Y-147690827D01*
X83690264Y-147836498D01*
X83690261Y-147836510D01*
X83659500Y-147991153D01*
X83659500Y-148148846D01*
X83690261Y-148303489D01*
X83690264Y-148303501D01*
X83750602Y-148449172D01*
X83750609Y-148449185D01*
X83838209Y-148580287D01*
X83838210Y-148580288D01*
X83838211Y-148580289D01*
X83853180Y-148595258D01*
X83886666Y-148656579D01*
X83889500Y-148682940D01*
X83889500Y-150021234D01*
X83869815Y-150088273D01*
X83868602Y-150090125D01*
X83780609Y-150221814D01*
X83780602Y-150221827D01*
X83720264Y-150367498D01*
X83720261Y-150367510D01*
X83689500Y-150522153D01*
X83689500Y-150679846D01*
X83720261Y-150834489D01*
X83720264Y-150834501D01*
X83780602Y-150980172D01*
X83780609Y-150980185D01*
X83868210Y-151111288D01*
X83868213Y-151111292D01*
X83979707Y-151222786D01*
X83979711Y-151222789D01*
X84110814Y-151310390D01*
X84110827Y-151310397D01*
X84250499Y-151368250D01*
X84256503Y-151370737D01*
X84398695Y-151399021D01*
X84411153Y-151401499D01*
X84411156Y-151401500D01*
X84411158Y-151401500D01*
X84568843Y-151401500D01*
X84573474Y-151400578D01*
X84581304Y-151399021D01*
X84650895Y-151405245D01*
X84706074Y-151448106D01*
X84729322Y-151513994D01*
X84729500Y-151520637D01*
X84729500Y-152129192D01*
X84709815Y-152196231D01*
X84693181Y-152216873D01*
X83016873Y-153893181D01*
X82955550Y-153926666D01*
X82929192Y-153929500D01*
X79864935Y-153929500D01*
X79797896Y-153909815D01*
X79796090Y-153908633D01*
X79739179Y-153870606D01*
X79739172Y-153870602D01*
X79593501Y-153810264D01*
X79593489Y-153810261D01*
X79438845Y-153779500D01*
X79438842Y-153779500D01*
X79281158Y-153779500D01*
X79281155Y-153779500D01*
X79126510Y-153810261D01*
X79126498Y-153810264D01*
X78980827Y-153870602D01*
X78980814Y-153870609D01*
X78849711Y-153958210D01*
X78849707Y-153958213D01*
X78738213Y-154069707D01*
X78738210Y-154069711D01*
X78650609Y-154200814D01*
X78650602Y-154200827D01*
X78590264Y-154346498D01*
X78590261Y-154346510D01*
X78559500Y-154501153D01*
X78559500Y-154658846D01*
X78590261Y-154813489D01*
X78590264Y-154813501D01*
X78650602Y-154959172D01*
X78650609Y-154959185D01*
X78738210Y-155090288D01*
X78738213Y-155090292D01*
X78849707Y-155201786D01*
X78849711Y-155201789D01*
X78980814Y-155289390D01*
X78980827Y-155289397D01*
X79084594Y-155332378D01*
X79126503Y-155349737D01*
X79265729Y-155377431D01*
X79281153Y-155380499D01*
X79281156Y-155380500D01*
X79281158Y-155380500D01*
X79438844Y-155380500D01*
X79438845Y-155380499D01*
X79593497Y-155349737D01*
X79739179Y-155289394D01*
X79796044Y-155251397D01*
X79862721Y-155230520D01*
X79864935Y-155230500D01*
X83314071Y-155230500D01*
X83417282Y-155209969D01*
X83439744Y-155205501D01*
X83544438Y-155162135D01*
X88999500Y-155162135D01*
X88999500Y-156757870D01*
X88999501Y-156757876D01*
X89005908Y-156817483D01*
X89056202Y-156952328D01*
X89056206Y-156952335D01*
X89142452Y-157067544D01*
X89142455Y-157067547D01*
X89257664Y-157153793D01*
X89257671Y-157153797D01*
X89392517Y-157204091D01*
X89392516Y-157204091D01*
X89399444Y-157204835D01*
X89452127Y-157210500D01*
X91147872Y-157210499D01*
X91207483Y-157204091D01*
X91342331Y-157153796D01*
X91457546Y-157067546D01*
X91543796Y-156952331D01*
X91588470Y-156832553D01*
X91630339Y-156776621D01*
X91695803Y-156752203D01*
X91764076Y-156767054D01*
X91804968Y-156803001D01*
X91808026Y-156807210D01*
X91808032Y-156807217D01*
X91952786Y-156951971D01*
X92107749Y-157064556D01*
X92118390Y-157072287D01*
X92234607Y-157131503D01*
X92300776Y-157165218D01*
X92300778Y-157165218D01*
X92300781Y-157165220D01*
X92405137Y-157199127D01*
X92495465Y-157228477D01*
X92596557Y-157244488D01*
X92697648Y-157260500D01*
X92697649Y-157260500D01*
X92902351Y-157260500D01*
X92902352Y-157260500D01*
X93104534Y-157228477D01*
X93299219Y-157165220D01*
X93481610Y-157072287D01*
X93576304Y-157003488D01*
X93647213Y-156951971D01*
X93647215Y-156951968D01*
X93647219Y-156951966D01*
X93712319Y-156886866D01*
X93773642Y-156853381D01*
X93843334Y-156858365D01*
X93887681Y-156886866D01*
X93952786Y-156951971D01*
X94107749Y-157064556D01*
X94118390Y-157072287D01*
X94234607Y-157131503D01*
X94300776Y-157165218D01*
X94300778Y-157165218D01*
X94300781Y-157165220D01*
X94405137Y-157199127D01*
X94495465Y-157228477D01*
X94596557Y-157244488D01*
X94697648Y-157260500D01*
X94697649Y-157260500D01*
X94902351Y-157260500D01*
X94902352Y-157260500D01*
X95104534Y-157228477D01*
X95299219Y-157165220D01*
X95481610Y-157072287D01*
X95576304Y-157003488D01*
X95647213Y-156951971D01*
X95647215Y-156951968D01*
X95647219Y-156951966D01*
X95791966Y-156807219D01*
X95791968Y-156807215D01*
X95791971Y-156807213D01*
X95891661Y-156670000D01*
X95912287Y-156641610D01*
X95939795Y-156587621D01*
X95987769Y-156536826D01*
X96055589Y-156520030D01*
X96121725Y-156542567D01*
X96160765Y-156587621D01*
X96188141Y-156641350D01*
X96188147Y-156641359D01*
X96220523Y-156685921D01*
X96220524Y-156685922D01*
X96837449Y-156068997D01*
X96857370Y-156143343D01*
X96919905Y-156251657D01*
X97008343Y-156340095D01*
X97116657Y-156402630D01*
X97191002Y-156422550D01*
X96574076Y-157039474D01*
X96618650Y-157071859D01*
X96800968Y-157164755D01*
X96995582Y-157227990D01*
X97197683Y-157260000D01*
X97402317Y-157260000D01*
X97604417Y-157227990D01*
X97799031Y-157164755D01*
X97981351Y-157071858D01*
X97981353Y-157071857D01*
X98025921Y-157039475D01*
X98025921Y-157039474D01*
X97408997Y-156422550D01*
X97483343Y-156402630D01*
X97591657Y-156340095D01*
X97680095Y-156251657D01*
X97742630Y-156143343D01*
X97762550Y-156068997D01*
X98379474Y-156685921D01*
X98411859Y-156641349D01*
X98504755Y-156459031D01*
X98567990Y-156264417D01*
X98600000Y-156062317D01*
X98600000Y-155857682D01*
X98567990Y-155655582D01*
X98504755Y-155460968D01*
X98411859Y-155278650D01*
X98379474Y-155234077D01*
X98379474Y-155234076D01*
X97762550Y-155851001D01*
X97742630Y-155776657D01*
X97680095Y-155668343D01*
X97591657Y-155579905D01*
X97483343Y-155517370D01*
X97408996Y-155497449D01*
X98025922Y-154880524D01*
X98025921Y-154880523D01*
X97981359Y-154848147D01*
X97981350Y-154848141D01*
X97799031Y-154755244D01*
X97604417Y-154692009D01*
X97402317Y-154660000D01*
X97197683Y-154660000D01*
X96995582Y-154692009D01*
X96800968Y-154755244D01*
X96618644Y-154848143D01*
X96574077Y-154880523D01*
X96574077Y-154880524D01*
X97191003Y-155497449D01*
X97116657Y-155517370D01*
X97008343Y-155579905D01*
X96919905Y-155668343D01*
X96857370Y-155776657D01*
X96837449Y-155851002D01*
X96220524Y-155234077D01*
X96220523Y-155234077D01*
X96188143Y-155278644D01*
X96160765Y-155332378D01*
X96112790Y-155383174D01*
X96044969Y-155399969D01*
X95978834Y-155377431D01*
X95939795Y-155332378D01*
X95912287Y-155278390D01*
X95912285Y-155278387D01*
X95912284Y-155278385D01*
X95791971Y-155112786D01*
X95647213Y-154968028D01*
X95481613Y-154847715D01*
X95481612Y-154847714D01*
X95481610Y-154847713D01*
X95414465Y-154813501D01*
X95299223Y-154754781D01*
X95104534Y-154691522D01*
X94921009Y-154662455D01*
X94902352Y-154659500D01*
X94697648Y-154659500D01*
X94678991Y-154662455D01*
X94495465Y-154691522D01*
X94300776Y-154754781D01*
X94118386Y-154847715D01*
X93952786Y-154968028D01*
X93952782Y-154968032D01*
X93887681Y-155033134D01*
X93826358Y-155066619D01*
X93756666Y-155061635D01*
X93712319Y-155033134D01*
X93647213Y-154968028D01*
X93481613Y-154847715D01*
X93481612Y-154847714D01*
X93481610Y-154847713D01*
X93414465Y-154813501D01*
X93299223Y-154754781D01*
X93104534Y-154691522D01*
X92921009Y-154662455D01*
X92902352Y-154659500D01*
X92697648Y-154659500D01*
X92678991Y-154662455D01*
X92495465Y-154691522D01*
X92300776Y-154754781D01*
X92118386Y-154847715D01*
X91952786Y-154968028D01*
X91808032Y-155112782D01*
X91808026Y-155112789D01*
X91804964Y-155117004D01*
X91749631Y-155159666D01*
X91680017Y-155165641D01*
X91618225Y-155133030D01*
X91588469Y-155087444D01*
X91543798Y-154967673D01*
X91543793Y-154967664D01*
X91457547Y-154852455D01*
X91457544Y-154852452D01*
X91342335Y-154766206D01*
X91342328Y-154766202D01*
X91207482Y-154715908D01*
X91207483Y-154715908D01*
X91147883Y-154709501D01*
X91147881Y-154709500D01*
X91147873Y-154709500D01*
X91147864Y-154709500D01*
X89452129Y-154709500D01*
X89452123Y-154709501D01*
X89392516Y-154715908D01*
X89257671Y-154766202D01*
X89257664Y-154766206D01*
X89142455Y-154852452D01*
X89142452Y-154852455D01*
X89056206Y-154967664D01*
X89056202Y-154967671D01*
X89005908Y-155102517D01*
X88999501Y-155162116D01*
X88999500Y-155162135D01*
X83544438Y-155162135D01*
X83558127Y-155156465D01*
X83558132Y-155156461D01*
X83558135Y-155156460D01*
X83571658Y-155147424D01*
X83571659Y-155147422D01*
X83573789Y-155146000D01*
X83664669Y-155085277D01*
X85885277Y-152864669D01*
X85956465Y-152758127D01*
X86005501Y-152639744D01*
X86012043Y-152606851D01*
X86016445Y-152584726D01*
X86016445Y-152584724D01*
X86030500Y-152514070D01*
X86030500Y-148619917D01*
X86050185Y-148552878D01*
X86102989Y-148507123D01*
X86172147Y-148497179D01*
X86235703Y-148526204D01*
X86242181Y-148532236D01*
X86563080Y-148853135D01*
X86563090Y-148853146D01*
X86567420Y-148857476D01*
X86567421Y-148857477D01*
X86679225Y-148969281D01*
X86758656Y-149015139D01*
X86766036Y-149019400D01*
X86766038Y-149019402D01*
X86799709Y-149038842D01*
X86816156Y-149048338D01*
X86968884Y-149089262D01*
X86968887Y-149089262D01*
X87134594Y-149089262D01*
X87134610Y-149089261D01*
X88368664Y-149089261D01*
X88435703Y-149108946D01*
X88456345Y-149125580D01*
X89043181Y-149712416D01*
X89076666Y-149773739D01*
X89079500Y-149800097D01*
X89079500Y-150640234D01*
X89059815Y-150707273D01*
X89058602Y-150709125D01*
X88970609Y-150840814D01*
X88970602Y-150840827D01*
X88910264Y-150986498D01*
X88910261Y-150986510D01*
X88879500Y-151141153D01*
X88879500Y-151298846D01*
X88910261Y-151453489D01*
X88910264Y-151453501D01*
X88970602Y-151599172D01*
X88970609Y-151599185D01*
X89058602Y-151730874D01*
X89064252Y-151748920D01*
X89074477Y-151764830D01*
X89078928Y-151795789D01*
X89079480Y-151797551D01*
X89079500Y-151799765D01*
X89079500Y-151909903D01*
X89059815Y-151976942D01*
X89043181Y-151997584D01*
X88587584Y-152453181D01*
X88526261Y-152486666D01*
X88499903Y-152489500D01*
X87779766Y-152489500D01*
X87712727Y-152469815D01*
X87710875Y-152468602D01*
X87579185Y-152380609D01*
X87579172Y-152380602D01*
X87433501Y-152320264D01*
X87433489Y-152320261D01*
X87278845Y-152289500D01*
X87278842Y-152289500D01*
X87121158Y-152289500D01*
X87121155Y-152289500D01*
X86966510Y-152320261D01*
X86966498Y-152320264D01*
X86820827Y-152380602D01*
X86820814Y-152380609D01*
X86689711Y-152468210D01*
X86689707Y-152468213D01*
X86578213Y-152579707D01*
X86578210Y-152579711D01*
X86490609Y-152710814D01*
X86490602Y-152710827D01*
X86430264Y-152856498D01*
X86430261Y-152856510D01*
X86399500Y-153011153D01*
X86399500Y-153168846D01*
X86430261Y-153323489D01*
X86430264Y-153323501D01*
X86490602Y-153469172D01*
X86490609Y-153469185D01*
X86578210Y-153600288D01*
X86578213Y-153600292D01*
X86689707Y-153711786D01*
X86689711Y-153711789D01*
X86820814Y-153799390D01*
X86820827Y-153799397D01*
X86966498Y-153859735D01*
X86966503Y-153859737D01*
X87121153Y-153890499D01*
X87121156Y-153890500D01*
X87121158Y-153890500D01*
X87278844Y-153890500D01*
X87278845Y-153890499D01*
X87433497Y-153859737D01*
X87579179Y-153799394D01*
X87579185Y-153799390D01*
X87710875Y-153711398D01*
X87777553Y-153690520D01*
X87779766Y-153690500D01*
X88713331Y-153690500D01*
X88713347Y-153690501D01*
X88720943Y-153690501D01*
X88879054Y-153690501D01*
X88879057Y-153690501D01*
X89031785Y-153649577D01*
X89081904Y-153620639D01*
X89168716Y-153570520D01*
X89280520Y-153458716D01*
X89280520Y-153458714D01*
X89290728Y-153448507D01*
X89290730Y-153448504D01*
X90038506Y-152700728D01*
X90038511Y-152700724D01*
X90048714Y-152690520D01*
X90048716Y-152690520D01*
X90160520Y-152578716D01*
X90226463Y-152464499D01*
X90239577Y-152441785D01*
X90280501Y-152289057D01*
X90280501Y-152130943D01*
X90280501Y-152123348D01*
X90280500Y-152123330D01*
X90280500Y-151799765D01*
X90300185Y-151732726D01*
X90301398Y-151730874D01*
X90389390Y-151599185D01*
X90389390Y-151599184D01*
X90389394Y-151599179D01*
X90449737Y-151453497D01*
X90480500Y-151298842D01*
X90480500Y-151141158D01*
X90480499Y-151141153D01*
X90480499Y-151141150D01*
X90449738Y-150986510D01*
X90449737Y-150986503D01*
X90401689Y-150870504D01*
X90389397Y-150840827D01*
X90389390Y-150840814D01*
X90336876Y-150762222D01*
X90336876Y-150762221D01*
X90301398Y-150709124D01*
X90286016Y-150660000D01*
X116635138Y-150660000D01*
X117438012Y-150660000D01*
X117420795Y-150669940D01*
X117364940Y-150725795D01*
X117325444Y-150794204D01*
X117305000Y-150870504D01*
X117305000Y-150949496D01*
X117325444Y-151025796D01*
X117364940Y-151094205D01*
X117420795Y-151150060D01*
X117438012Y-151160000D01*
X116635138Y-151160000D01*
X116643430Y-151201690D01*
X116643430Y-151201692D01*
X116718807Y-151383671D01*
X116718814Y-151383684D01*
X116828248Y-151547462D01*
X116828251Y-151547466D01*
X116967533Y-151686748D01*
X116967537Y-151686751D01*
X117131315Y-151796185D01*
X117131328Y-151796192D01*
X117313306Y-151871569D01*
X117313318Y-151871572D01*
X117506504Y-151909999D01*
X117506508Y-151910000D01*
X117905000Y-151910000D01*
X117905000Y-151210000D01*
X118405000Y-151210000D01*
X118405000Y-151910000D01*
X118803492Y-151910000D01*
X118803495Y-151909999D01*
X118996681Y-151871572D01*
X118996693Y-151871569D01*
X119178671Y-151796192D01*
X119178684Y-151796185D01*
X119342462Y-151686751D01*
X119342466Y-151686748D01*
X119481748Y-151547466D01*
X119481751Y-151547462D01*
X119591185Y-151383684D01*
X119591192Y-151383671D01*
X119666569Y-151201692D01*
X119666569Y-151201690D01*
X119674862Y-151160000D01*
X118871988Y-151160000D01*
X118889205Y-151150060D01*
X118945060Y-151094205D01*
X118984556Y-151025796D01*
X119005000Y-150949496D01*
X119005000Y-150870504D01*
X118984556Y-150794204D01*
X118945060Y-150725795D01*
X118889205Y-150669940D01*
X118871988Y-150660000D01*
X119674862Y-150660000D01*
X120985138Y-150660000D01*
X121788012Y-150660000D01*
X121770795Y-150669940D01*
X121714940Y-150725795D01*
X121675444Y-150794204D01*
X121655000Y-150870504D01*
X121655000Y-150949496D01*
X121675444Y-151025796D01*
X121714940Y-151094205D01*
X121770795Y-151150060D01*
X121788012Y-151160000D01*
X120985138Y-151160000D01*
X120993430Y-151201690D01*
X120993430Y-151201692D01*
X121068807Y-151383671D01*
X121068814Y-151383684D01*
X121178248Y-151547462D01*
X121178251Y-151547466D01*
X121317533Y-151686748D01*
X121317537Y-151686751D01*
X121481315Y-151796185D01*
X121481328Y-151796192D01*
X121663306Y-151871569D01*
X121663318Y-151871572D01*
X121856504Y-151909999D01*
X121856508Y-151910000D01*
X122105000Y-151910000D01*
X122105000Y-151210000D01*
X122605000Y-151210000D01*
X122605000Y-151910000D01*
X122853492Y-151910000D01*
X122853495Y-151909999D01*
X123046681Y-151871572D01*
X123046693Y-151871569D01*
X123228671Y-151796192D01*
X123228684Y-151796185D01*
X123392462Y-151686751D01*
X123392466Y-151686748D01*
X123531748Y-151547466D01*
X123531751Y-151547462D01*
X123641185Y-151383684D01*
X123641192Y-151383671D01*
X123716569Y-151201692D01*
X123716569Y-151201690D01*
X123724862Y-151160000D01*
X122921988Y-151160000D01*
X122939205Y-151150060D01*
X122995060Y-151094205D01*
X123034556Y-151025796D01*
X123055000Y-150949496D01*
X123055000Y-150870504D01*
X123034556Y-150794204D01*
X122995060Y-150725795D01*
X122939205Y-150669940D01*
X122921988Y-150660000D01*
X123724862Y-150660000D01*
X123716569Y-150618309D01*
X123716569Y-150618307D01*
X123641192Y-150436328D01*
X123641185Y-150436315D01*
X123531751Y-150272537D01*
X123531748Y-150272533D01*
X123392466Y-150133251D01*
X123392462Y-150133248D01*
X123228684Y-150023814D01*
X123228671Y-150023807D01*
X123046693Y-149948430D01*
X123046681Y-149948427D01*
X122853495Y-149910000D01*
X122605000Y-149910000D01*
X122605000Y-150610000D01*
X122105000Y-150610000D01*
X122105000Y-149910000D01*
X121856504Y-149910000D01*
X121663318Y-149948427D01*
X121663306Y-149948430D01*
X121481328Y-150023807D01*
X121481315Y-150023814D01*
X121317537Y-150133248D01*
X121317533Y-150133251D01*
X121178251Y-150272533D01*
X121178248Y-150272537D01*
X121068814Y-150436315D01*
X121068807Y-150436328D01*
X120993430Y-150618307D01*
X120993430Y-150618309D01*
X120985138Y-150660000D01*
X119674862Y-150660000D01*
X119666569Y-150618309D01*
X119666569Y-150618307D01*
X119591192Y-150436328D01*
X119591185Y-150436315D01*
X119481751Y-150272537D01*
X119481748Y-150272533D01*
X119342466Y-150133251D01*
X119342462Y-150133248D01*
X119178680Y-150023812D01*
X119173335Y-150020955D01*
X119123489Y-149971994D01*
X119108027Y-149903857D01*
X119131856Y-149838177D01*
X119133412Y-149836105D01*
X119135506Y-149833373D01*
X119135515Y-149833365D01*
X119211281Y-149702135D01*
X119250500Y-149555766D01*
X119250500Y-149404234D01*
X119211281Y-149257865D01*
X119135515Y-149126635D01*
X119028365Y-149019485D01*
X118962750Y-148981602D01*
X118897136Y-148943719D01*
X118812924Y-148921155D01*
X118750766Y-148904500D01*
X118599234Y-148904500D01*
X118452863Y-148943719D01*
X118321635Y-149019485D01*
X118321632Y-149019487D01*
X118214487Y-149126632D01*
X118214485Y-149126635D01*
X118138719Y-149257863D01*
X118099500Y-149404234D01*
X118099500Y-149555765D01*
X118138719Y-149702136D01*
X118170364Y-149756946D01*
X118214485Y-149833365D01*
X118321635Y-149940515D01*
X118343000Y-149952850D01*
X118391216Y-150003417D01*
X118405000Y-150060237D01*
X118405000Y-150610000D01*
X117905000Y-150610000D01*
X117905000Y-149910000D01*
X117506504Y-149910000D01*
X117313318Y-149948427D01*
X117313306Y-149948430D01*
X117131328Y-150023807D01*
X117131315Y-150023814D01*
X116967537Y-150133248D01*
X116967533Y-150133251D01*
X116828251Y-150272533D01*
X116828248Y-150272537D01*
X116718814Y-150436315D01*
X116718807Y-150436328D01*
X116643430Y-150618307D01*
X116643430Y-150618309D01*
X116635138Y-150660000D01*
X90286016Y-150660000D01*
X90280520Y-150642447D01*
X90280500Y-150640234D01*
X90280500Y-149589059D01*
X90280501Y-149589046D01*
X90280501Y-149420945D01*
X90280501Y-149420943D01*
X90239577Y-149268215D01*
X90196438Y-149193497D01*
X90196438Y-149193495D01*
X90160524Y-149131290D01*
X90160521Y-149131286D01*
X90160520Y-149131284D01*
X90048716Y-149019480D01*
X90048715Y-149019479D01*
X90044385Y-149015149D01*
X90044374Y-149015139D01*
X89156351Y-148127116D01*
X89156349Y-148127113D01*
X89037478Y-148008242D01*
X89037470Y-148008236D01*
X88938922Y-147951340D01*
X88938920Y-147951339D01*
X88900551Y-147929186D01*
X88900550Y-147929185D01*
X88888024Y-147925828D01*
X88747818Y-147888260D01*
X88589704Y-147888260D01*
X88582108Y-147888260D01*
X88582092Y-147888261D01*
X88154500Y-147888261D01*
X88152416Y-147887649D01*
X88150315Y-147888190D01*
X88119042Y-147877849D01*
X88087461Y-147868576D01*
X88086040Y-147866937D01*
X88083978Y-147866255D01*
X88063245Y-147840629D01*
X88041706Y-147815772D01*
X88040969Y-147813096D01*
X88040031Y-147811937D01*
X88038391Y-147803736D01*
X88031237Y-147777756D01*
X88030500Y-147771024D01*
X88030500Y-147691158D01*
X88011052Y-147593390D01*
X88010462Y-147587995D01*
X88015684Y-147558720D01*
X88018335Y-147529099D01*
X88021754Y-147524697D01*
X88022733Y-147519211D01*
X88042952Y-147497409D01*
X88061198Y-147473922D01*
X88066455Y-147472067D01*
X88070244Y-147467982D01*
X88099039Y-147460572D01*
X88127088Y-147450678D01*
X88133725Y-147450500D01*
X90580234Y-147450500D01*
X90647273Y-147470185D01*
X90649125Y-147471398D01*
X90780814Y-147559390D01*
X90780827Y-147559397D01*
X90926498Y-147619735D01*
X90926503Y-147619737D01*
X91081153Y-147650499D01*
X91081156Y-147650500D01*
X91081158Y-147650500D01*
X91238844Y-147650500D01*
X91238845Y-147650499D01*
X91393497Y-147619737D01*
X91539179Y-147559394D01*
X91670289Y-147471789D01*
X91781789Y-147360289D01*
X91869394Y-147229179D01*
X91929737Y-147083497D01*
X91960500Y-146928842D01*
X91960500Y-146771158D01*
X91960500Y-146771155D01*
X91960499Y-146771153D01*
X91949195Y-146714323D01*
X91929737Y-146616503D01*
X91918693Y-146589840D01*
X91869397Y-146470827D01*
X91869390Y-146470814D01*
X91781789Y-146339711D01*
X91781786Y-146339707D01*
X91670292Y-146228213D01*
X91670288Y-146228210D01*
X91539185Y-146140609D01*
X91539172Y-146140602D01*
X91393501Y-146080264D01*
X91393489Y-146080261D01*
X91238845Y-146049500D01*
X91238842Y-146049500D01*
X91081158Y-146049500D01*
X91081155Y-146049500D01*
X90926510Y-146080261D01*
X90926498Y-146080264D01*
X90780827Y-146140602D01*
X90780814Y-146140609D01*
X90649125Y-146228602D01*
X90582447Y-146249480D01*
X90580234Y-146249500D01*
X87726670Y-146249500D01*
X87726654Y-146249499D01*
X87719058Y-146249499D01*
X87560943Y-146249499D01*
X87484579Y-146269961D01*
X87408214Y-146290423D01*
X87408209Y-146290426D01*
X87271290Y-146369475D01*
X87271286Y-146369478D01*
X87024255Y-146616508D01*
X86962932Y-146649992D01*
X86893240Y-146645008D01*
X86837307Y-146603136D01*
X86814957Y-146553017D01*
X86799738Y-146476510D01*
X86799737Y-146476503D01*
X86797386Y-146470827D01*
X86739397Y-146330827D01*
X86739390Y-146330814D01*
X86651789Y-146199711D01*
X86651786Y-146199707D01*
X86540292Y-146088213D01*
X86540288Y-146088210D01*
X86409185Y-146000609D01*
X86409172Y-146000602D01*
X86263501Y-145940264D01*
X86263491Y-145940261D01*
X86130308Y-145913769D01*
X86068397Y-145881384D01*
X86033823Y-145820668D01*
X86030500Y-145792152D01*
X86030500Y-145514934D01*
X86034704Y-145499329D01*
X86034079Y-145485358D01*
X86045386Y-145459687D01*
X86047289Y-145452629D01*
X86049231Y-145449285D01*
X86089394Y-145389179D01*
X86102372Y-145357844D01*
X86106542Y-145350670D01*
X86113566Y-145344009D01*
X86126069Y-145325297D01*
X86644548Y-144806819D01*
X86705871Y-144773334D01*
X86732229Y-144770500D01*
X114100099Y-144770500D01*
X114167138Y-144790185D01*
X114168964Y-144791381D01*
X114192110Y-144806846D01*
X114210897Y-144822265D01*
X114713181Y-145324549D01*
X114746666Y-145385872D01*
X114749500Y-145412230D01*
X114749500Y-148484996D01*
X114729815Y-148552035D01*
X114728602Y-148553887D01*
X114710609Y-148580814D01*
X114710602Y-148580827D01*
X114650264Y-148726498D01*
X114650261Y-148726510D01*
X114619500Y-148881153D01*
X114619500Y-149038846D01*
X114650261Y-149193489D01*
X114650263Y-149193497D01*
X114710602Y-149339172D01*
X114710609Y-149339185D01*
X114798210Y-149470288D01*
X114798213Y-149470292D01*
X114909707Y-149581786D01*
X114909711Y-149581789D01*
X115040814Y-149669390D01*
X115040827Y-149669397D01*
X115144686Y-149712416D01*
X115186503Y-149729737D01*
X115323291Y-149756946D01*
X115341153Y-149760499D01*
X115341156Y-149760500D01*
X115341158Y-149760500D01*
X115498844Y-149760500D01*
X115498845Y-149760499D01*
X115653497Y-149729737D01*
X115799179Y-149669394D01*
X115930289Y-149581789D01*
X116041789Y-149470289D01*
X116129394Y-149339179D01*
X116189737Y-149193497D01*
X116196083Y-149161585D01*
X116199773Y-149151884D01*
X116200300Y-149151188D01*
X116201112Y-149148512D01*
X116221658Y-149098913D01*
X116225650Y-149078844D01*
X116250500Y-148953920D01*
X116250500Y-146230153D01*
X118199500Y-146230153D01*
X118199500Y-146387846D01*
X118230261Y-146542489D01*
X118230264Y-146542501D01*
X118290602Y-146688172D01*
X118290609Y-146688185D01*
X118378210Y-146819288D01*
X118378213Y-146819292D01*
X118489707Y-146930786D01*
X118489711Y-146930789D01*
X118620814Y-147018390D01*
X118620827Y-147018397D01*
X118766498Y-147078735D01*
X118766503Y-147078737D01*
X118919967Y-147109263D01*
X118921153Y-147109499D01*
X118921156Y-147109500D01*
X119028903Y-147109500D01*
X119058343Y-147118144D01*
X119088330Y-147124668D01*
X119093345Y-147128422D01*
X119095942Y-147129185D01*
X119116584Y-147145819D01*
X119127600Y-147156835D01*
X119161085Y-147218158D01*
X119161536Y-147220325D01*
X119176362Y-147294860D01*
X119176365Y-147294872D01*
X119236703Y-147440543D01*
X119236710Y-147440556D01*
X119324311Y-147571659D01*
X119324314Y-147571663D01*
X119435808Y-147683157D01*
X119435812Y-147683160D01*
X119566915Y-147770761D01*
X119566928Y-147770768D01*
X119675579Y-147815772D01*
X119712604Y-147831108D01*
X119867254Y-147861870D01*
X119867257Y-147861871D01*
X119867259Y-147861871D01*
X120024945Y-147861871D01*
X120024946Y-147861870D01*
X120179598Y-147831108D01*
X120325280Y-147770765D01*
X120456390Y-147683160D01*
X120567890Y-147571660D01*
X120655495Y-147440550D01*
X120715838Y-147294868D01*
X120746601Y-147140213D01*
X120746601Y-146982529D01*
X120746601Y-146982526D01*
X120746600Y-146982524D01*
X120736309Y-146930789D01*
X120715838Y-146827874D01*
X120692346Y-146771158D01*
X120655498Y-146682198D01*
X120655491Y-146682185D01*
X120567890Y-146551082D01*
X120567887Y-146551078D01*
X120456393Y-146439584D01*
X120456389Y-146439581D01*
X120325286Y-146351980D01*
X120325273Y-146351973D01*
X120179602Y-146291635D01*
X120179590Y-146291632D01*
X120024946Y-146260871D01*
X120024943Y-146260871D01*
X119981468Y-146260871D01*
X119952027Y-146252226D01*
X119922041Y-146245703D01*
X119917025Y-146241948D01*
X119914429Y-146241186D01*
X119893787Y-146224552D01*
X119802542Y-146133307D01*
X119773785Y-146080644D01*
X119771506Y-146081336D01*
X119769738Y-146075510D01*
X119769737Y-146075503D01*
X119713720Y-145940264D01*
X119709397Y-145929827D01*
X119709390Y-145929814D01*
X119621789Y-145798711D01*
X119621786Y-145798707D01*
X119510292Y-145687213D01*
X119510288Y-145687210D01*
X119379185Y-145599609D01*
X119379172Y-145599602D01*
X119233501Y-145539264D01*
X119233489Y-145539261D01*
X119078845Y-145508500D01*
X119078842Y-145508500D01*
X118921158Y-145508500D01*
X118921155Y-145508500D01*
X118766510Y-145539261D01*
X118766498Y-145539264D01*
X118620827Y-145599602D01*
X118620814Y-145599609D01*
X118489711Y-145687210D01*
X118489707Y-145687213D01*
X118378213Y-145798707D01*
X118378210Y-145798711D01*
X118290609Y-145929814D01*
X118290602Y-145929827D01*
X118230264Y-146075498D01*
X118230261Y-146075510D01*
X118199500Y-146230153D01*
X116250500Y-146230153D01*
X116250500Y-144976079D01*
X116221659Y-144831092D01*
X116221658Y-144831091D01*
X116221658Y-144831087D01*
X116167251Y-144699737D01*
X116165085Y-144694507D01*
X116165084Y-144694505D01*
X116103910Y-144602951D01*
X116082952Y-144571584D01*
X115394355Y-143882987D01*
X115393431Y-143881728D01*
X115392722Y-143881324D01*
X115389322Y-143876131D01*
X115372106Y-143852677D01*
X115369573Y-143847825D01*
X115329394Y-143750821D01*
X115241789Y-143619711D01*
X115241786Y-143619707D01*
X115130292Y-143508213D01*
X115130288Y-143508210D01*
X114999185Y-143420609D01*
X114999176Y-143420604D01*
X114917400Y-143386732D01*
X114895963Y-143375274D01*
X114865495Y-143354916D01*
X114865492Y-143354914D01*
X114865491Y-143354914D01*
X114728917Y-143298343D01*
X114728907Y-143298340D01*
X114583920Y-143269500D01*
X114583918Y-143269500D01*
X86443917Y-143269500D01*
X86296082Y-143269500D01*
X86296080Y-143269500D01*
X86151092Y-143298340D01*
X86151082Y-143298343D01*
X86014511Y-143354912D01*
X86014498Y-143354919D01*
X85891584Y-143437048D01*
X85891580Y-143437051D01*
X85402181Y-143926451D01*
X85340858Y-143959936D01*
X85271166Y-143954952D01*
X85215233Y-143913080D01*
X85190816Y-143847616D01*
X85190500Y-143838770D01*
X85190500Y-143691155D01*
X85190499Y-143691153D01*
X85162585Y-143550821D01*
X85159737Y-143536503D01*
X85135448Y-143477863D01*
X85099397Y-143390827D01*
X85099390Y-143390814D01*
X85011398Y-143259125D01*
X84990520Y-143192447D01*
X84990500Y-143190234D01*
X84990500Y-142270945D01*
X84990500Y-142270943D01*
X84990382Y-142270500D01*
X84949577Y-142118215D01*
X84897365Y-142027782D01*
X84892873Y-142020000D01*
X116635138Y-142020000D01*
X117438012Y-142020000D01*
X117420795Y-142029940D01*
X117364940Y-142085795D01*
X117325444Y-142154204D01*
X117305000Y-142230504D01*
X117305000Y-142309496D01*
X117325444Y-142385796D01*
X117364940Y-142454205D01*
X117420795Y-142510060D01*
X117438012Y-142520000D01*
X116635138Y-142520000D01*
X116643430Y-142561690D01*
X116643430Y-142561692D01*
X116718807Y-142743671D01*
X116718814Y-142743684D01*
X116828248Y-142907462D01*
X116828251Y-142907466D01*
X116967533Y-143046748D01*
X116967537Y-143046751D01*
X117131315Y-143156185D01*
X117131328Y-143156192D01*
X117313306Y-143231569D01*
X117313318Y-143231572D01*
X117506504Y-143269999D01*
X117506508Y-143270000D01*
X117905000Y-143270000D01*
X117905000Y-142570000D01*
X118405000Y-142570000D01*
X118405000Y-143119762D01*
X118385315Y-143186801D01*
X118343003Y-143227148D01*
X118321633Y-143239486D01*
X118214485Y-143346635D01*
X118138719Y-143477863D01*
X118119169Y-143550827D01*
X118099500Y-143624234D01*
X118099500Y-143775766D01*
X118119109Y-143848950D01*
X118138719Y-143922136D01*
X118176602Y-143987750D01*
X118214485Y-144053365D01*
X118321635Y-144160515D01*
X118452865Y-144236281D01*
X118599234Y-144275500D01*
X118599236Y-144275500D01*
X118750764Y-144275500D01*
X118750766Y-144275500D01*
X118897135Y-144236281D01*
X119028365Y-144160515D01*
X119135515Y-144053365D01*
X119211281Y-143922135D01*
X119250500Y-143775766D01*
X119250500Y-143624234D01*
X119211281Y-143477865D01*
X119135515Y-143346635D01*
X119135513Y-143346633D01*
X119133412Y-143343895D01*
X119132356Y-143341165D01*
X119131451Y-143339597D01*
X119131695Y-143339455D01*
X119108214Y-143278727D01*
X119122249Y-143210282D01*
X119171061Y-143160290D01*
X119173346Y-143159037D01*
X119178690Y-143156181D01*
X119342462Y-143046751D01*
X119342466Y-143046748D01*
X119481748Y-142907466D01*
X119481751Y-142907462D01*
X119591185Y-142743684D01*
X119591192Y-142743671D01*
X119666569Y-142561692D01*
X119666569Y-142561690D01*
X119674862Y-142520000D01*
X118871988Y-142520000D01*
X118889205Y-142510060D01*
X118945060Y-142454205D01*
X118984556Y-142385796D01*
X119005000Y-142309496D01*
X119005000Y-142230504D01*
X118984556Y-142154204D01*
X118945060Y-142085795D01*
X118889205Y-142029940D01*
X118871988Y-142020000D01*
X119674862Y-142020000D01*
X120985138Y-142020000D01*
X121788012Y-142020000D01*
X121770795Y-142029940D01*
X121714940Y-142085795D01*
X121675444Y-142154204D01*
X121655000Y-142230504D01*
X121655000Y-142309496D01*
X121675444Y-142385796D01*
X121714940Y-142454205D01*
X121770795Y-142510060D01*
X121788012Y-142520000D01*
X120985138Y-142520000D01*
X120993430Y-142561690D01*
X120993430Y-142561692D01*
X121068807Y-142743671D01*
X121068814Y-142743684D01*
X121178248Y-142907462D01*
X121178251Y-142907466D01*
X121317533Y-143046748D01*
X121317537Y-143046751D01*
X121481315Y-143156185D01*
X121481328Y-143156192D01*
X121663306Y-143231569D01*
X121663318Y-143231572D01*
X121856504Y-143269999D01*
X121856508Y-143270000D01*
X122105000Y-143270000D01*
X122105000Y-142570000D01*
X122605000Y-142570000D01*
X122605000Y-143270000D01*
X122853492Y-143270000D01*
X122853495Y-143269999D01*
X123046681Y-143231572D01*
X123046693Y-143231569D01*
X123228671Y-143156192D01*
X123228684Y-143156185D01*
X123392462Y-143046751D01*
X123392466Y-143046748D01*
X123531748Y-142907466D01*
X123531751Y-142907462D01*
X123641185Y-142743684D01*
X123641192Y-142743671D01*
X123716569Y-142561692D01*
X123716569Y-142561690D01*
X123724862Y-142520000D01*
X122921988Y-142520000D01*
X122939205Y-142510060D01*
X122995060Y-142454205D01*
X123034556Y-142385796D01*
X123055000Y-142309496D01*
X123055000Y-142230504D01*
X123034556Y-142154204D01*
X122995060Y-142085795D01*
X122939205Y-142029940D01*
X122921988Y-142020000D01*
X123724862Y-142020000D01*
X123716569Y-141978309D01*
X123716569Y-141978307D01*
X123641192Y-141796328D01*
X123641185Y-141796315D01*
X123531751Y-141632537D01*
X123531748Y-141632533D01*
X123392466Y-141493251D01*
X123392462Y-141493248D01*
X123228684Y-141383814D01*
X123228671Y-141383807D01*
X123046693Y-141308430D01*
X123046681Y-141308427D01*
X122853495Y-141270000D01*
X122605000Y-141270000D01*
X122605000Y-141970000D01*
X122105000Y-141970000D01*
X122105000Y-141270000D01*
X121856504Y-141270000D01*
X121663318Y-141308427D01*
X121663306Y-141308430D01*
X121481328Y-141383807D01*
X121481315Y-141383814D01*
X121317537Y-141493248D01*
X121317533Y-141493251D01*
X121178251Y-141632533D01*
X121178248Y-141632537D01*
X121068814Y-141796315D01*
X121068807Y-141796328D01*
X120993430Y-141978307D01*
X120993430Y-141978309D01*
X120985138Y-142020000D01*
X119674862Y-142020000D01*
X119666569Y-141978309D01*
X119666569Y-141978307D01*
X119591192Y-141796328D01*
X119591185Y-141796315D01*
X119481751Y-141632537D01*
X119481748Y-141632533D01*
X119342466Y-141493251D01*
X119342462Y-141493248D01*
X119178684Y-141383814D01*
X119178671Y-141383807D01*
X118996693Y-141308430D01*
X118996681Y-141308427D01*
X118803495Y-141270000D01*
X118405000Y-141270000D01*
X118405000Y-141970000D01*
X117905000Y-141970000D01*
X117905000Y-141270000D01*
X117506504Y-141270000D01*
X117313318Y-141308427D01*
X117313306Y-141308430D01*
X117131328Y-141383807D01*
X117131315Y-141383814D01*
X116967537Y-141493248D01*
X116967533Y-141493251D01*
X116828251Y-141632533D01*
X116828248Y-141632537D01*
X116718814Y-141796315D01*
X116718807Y-141796328D01*
X116643430Y-141978307D01*
X116643430Y-141978309D01*
X116635138Y-142020000D01*
X84892873Y-142020000D01*
X84891468Y-142017567D01*
X84870522Y-141981287D01*
X84870521Y-141981286D01*
X84870520Y-141981284D01*
X84758716Y-141869480D01*
X84758715Y-141869479D01*
X84754385Y-141865149D01*
X84754374Y-141865139D01*
X84197590Y-141308355D01*
X84197588Y-141308352D01*
X84078717Y-141189481D01*
X84078709Y-141189475D01*
X83976560Y-141130500D01*
X83941788Y-141110424D01*
X83941787Y-141110423D01*
X83880693Y-141094053D01*
X83789057Y-141069499D01*
X83630943Y-141069499D01*
X83623347Y-141069499D01*
X83623331Y-141069500D01*
X83019766Y-141069500D01*
X82952727Y-141049815D01*
X82950875Y-141048602D01*
X82819185Y-140960609D01*
X82819172Y-140960602D01*
X82673501Y-140900264D01*
X82673489Y-140900261D01*
X82518845Y-140869500D01*
X82518842Y-140869500D01*
X82361158Y-140869500D01*
X82361155Y-140869500D01*
X82206510Y-140900261D01*
X82206498Y-140900264D01*
X82060827Y-140960602D01*
X82060814Y-140960609D01*
X81929125Y-141048602D01*
X81862447Y-141069480D01*
X81860234Y-141069500D01*
X80729057Y-141069500D01*
X80570942Y-141069500D01*
X80418215Y-141110423D01*
X80418214Y-141110423D01*
X80418212Y-141110424D01*
X80418211Y-141110424D01*
X80383440Y-141130500D01*
X80281287Y-141189477D01*
X80281282Y-141189481D01*
X79559481Y-141911282D01*
X79559479Y-141911285D01*
X79520890Y-141978125D01*
X79520889Y-141978126D01*
X79490974Y-142029940D01*
X79480423Y-142048215D01*
X79439499Y-142200943D01*
X79439499Y-142200945D01*
X79439499Y-142369046D01*
X79439500Y-142369059D01*
X79439500Y-142530234D01*
X79419815Y-142597273D01*
X79418602Y-142599125D01*
X79330609Y-142730814D01*
X79330602Y-142730827D01*
X79270264Y-142876498D01*
X79270261Y-142876510D01*
X79239500Y-143031153D01*
X79239500Y-143155500D01*
X79219815Y-143222539D01*
X79167011Y-143268294D01*
X79115500Y-143279500D01*
X78390808Y-143279500D01*
X78323769Y-143259815D01*
X78303127Y-143243181D01*
X77206819Y-142146873D01*
X77173334Y-142085550D01*
X77170500Y-142059192D01*
X77170500Y-140984935D01*
X77190185Y-140917896D01*
X77191366Y-140916090D01*
X77229394Y-140859179D01*
X77289737Y-140713497D01*
X77320500Y-140558842D01*
X77320500Y-140401158D01*
X77320500Y-140401155D01*
X77320499Y-140401153D01*
X77289738Y-140246510D01*
X77289737Y-140246503D01*
X77289735Y-140246498D01*
X77229397Y-140100827D01*
X77229390Y-140100814D01*
X77141789Y-139969711D01*
X77141786Y-139969707D01*
X77030292Y-139858213D01*
X77030288Y-139858210D01*
X76899185Y-139770609D01*
X76899172Y-139770602D01*
X76753501Y-139710264D01*
X76753489Y-139710261D01*
X76598845Y-139679500D01*
X76598842Y-139679500D01*
X76441158Y-139679500D01*
X76441155Y-139679500D01*
X76286510Y-139710261D01*
X76286498Y-139710264D01*
X76140827Y-139770602D01*
X76140814Y-139770609D01*
X76009711Y-139858210D01*
X76009707Y-139858213D01*
X75898213Y-139969707D01*
X75898210Y-139969711D01*
X75810609Y-140100814D01*
X75810602Y-140100827D01*
X75750264Y-140246498D01*
X75750261Y-140246510D01*
X75719500Y-140401153D01*
X60585055Y-140401153D01*
X60622052Y-140311835D01*
X60660501Y-140118540D01*
X60660501Y-139921459D01*
X60660501Y-139916349D01*
X60660500Y-139916323D01*
X60660500Y-137067180D01*
X60680185Y-137000141D01*
X60710187Y-136967914D01*
X60817546Y-136887546D01*
X60903796Y-136772331D01*
X60929903Y-136702335D01*
X60931191Y-136698882D01*
X60954091Y-136637482D01*
X60954157Y-136636866D01*
X60960500Y-136577873D01*
X60960499Y-135607682D01*
X89000000Y-135607682D01*
X89000000Y-135812317D01*
X89032009Y-136014417D01*
X89095244Y-136209031D01*
X89188141Y-136391350D01*
X89188147Y-136391359D01*
X89220523Y-136435921D01*
X89220524Y-136435922D01*
X89837449Y-135818997D01*
X89857370Y-135893343D01*
X89919905Y-136001657D01*
X90008343Y-136090095D01*
X90116657Y-136152630D01*
X90191002Y-136172550D01*
X89574076Y-136789474D01*
X89618650Y-136821859D01*
X89800968Y-136914755D01*
X89995582Y-136977990D01*
X90197683Y-137010000D01*
X90402317Y-137010000D01*
X90604417Y-136977990D01*
X90799031Y-136914755D01*
X90981349Y-136821859D01*
X91025921Y-136789474D01*
X90408997Y-136172550D01*
X90483343Y-136152630D01*
X90591657Y-136090095D01*
X90680095Y-136001657D01*
X90742630Y-135893343D01*
X90762550Y-135818997D01*
X91379474Y-136435921D01*
X91411859Y-136391349D01*
X91439233Y-136337624D01*
X91487207Y-136286827D01*
X91555028Y-136270031D01*
X91621163Y-136292567D01*
X91660203Y-136337621D01*
X91687713Y-136391611D01*
X91808028Y-136557213D01*
X91952786Y-136701971D01*
X92049636Y-136772335D01*
X92118390Y-136822287D01*
X92234607Y-136881503D01*
X92300776Y-136915218D01*
X92300778Y-136915218D01*
X92300781Y-136915220D01*
X92405137Y-136949127D01*
X92495465Y-136978477D01*
X92564411Y-136989397D01*
X92697648Y-137010500D01*
X92697649Y-137010500D01*
X92902351Y-137010500D01*
X92902352Y-137010500D01*
X93104534Y-136978477D01*
X93299219Y-136915220D01*
X93481610Y-136822287D01*
X93640475Y-136706866D01*
X93647213Y-136701971D01*
X93647215Y-136701968D01*
X93647219Y-136701966D01*
X93712319Y-136636866D01*
X93773642Y-136603381D01*
X93843334Y-136608365D01*
X93887681Y-136636866D01*
X93952786Y-136701971D01*
X94049636Y-136772335D01*
X94118390Y-136822287D01*
X94234607Y-136881503D01*
X94300776Y-136915218D01*
X94300778Y-136915218D01*
X94300781Y-136915220D01*
X94405137Y-136949127D01*
X94495465Y-136978477D01*
X94564411Y-136989397D01*
X94697648Y-137010500D01*
X94697649Y-137010500D01*
X94902351Y-137010500D01*
X94902352Y-137010500D01*
X95104534Y-136978477D01*
X95299219Y-136915220D01*
X95481610Y-136822287D01*
X95640475Y-136706866D01*
X95647213Y-136701971D01*
X95647215Y-136701968D01*
X95647219Y-136701966D01*
X95791966Y-136557219D01*
X95795025Y-136553009D01*
X95850352Y-136510339D01*
X95919965Y-136504355D01*
X95981762Y-136536957D01*
X96011530Y-136582554D01*
X96056202Y-136702328D01*
X96056206Y-136702335D01*
X96142452Y-136817544D01*
X96142455Y-136817547D01*
X96257664Y-136903793D01*
X96257671Y-136903797D01*
X96392517Y-136954091D01*
X96392516Y-136954091D01*
X96399444Y-136954835D01*
X96452127Y-136960500D01*
X98147872Y-136960499D01*
X98207483Y-136954091D01*
X98342331Y-136903796D01*
X98457546Y-136817546D01*
X98543796Y-136702331D01*
X98594091Y-136567483D01*
X98600500Y-136507873D01*
X98600499Y-134912128D01*
X98594091Y-134852517D01*
X98573606Y-134797595D01*
X98543797Y-134717671D01*
X98543796Y-134717669D01*
X98509948Y-134672454D01*
X98460406Y-134606275D01*
X98460406Y-134606273D01*
X98457547Y-134602455D01*
X98457544Y-134602452D01*
X98342335Y-134516206D01*
X98342328Y-134516202D01*
X98207482Y-134465908D01*
X98207483Y-134465908D01*
X98147883Y-134459501D01*
X98147881Y-134459500D01*
X98147873Y-134459500D01*
X98147864Y-134459500D01*
X96452129Y-134459500D01*
X96452123Y-134459501D01*
X96392516Y-134465908D01*
X96257671Y-134516202D01*
X96257664Y-134516206D01*
X96142455Y-134602452D01*
X96142452Y-134602455D01*
X96056206Y-134717664D01*
X96056202Y-134717671D01*
X96011530Y-134837445D01*
X95969659Y-134893379D01*
X95904195Y-134917796D01*
X95835922Y-134902944D01*
X95795029Y-134866996D01*
X95791969Y-134862784D01*
X95647213Y-134718028D01*
X95481613Y-134597715D01*
X95481612Y-134597714D01*
X95481610Y-134597713D01*
X95424653Y-134568691D01*
X95299223Y-134504781D01*
X95104534Y-134441522D01*
X94929995Y-134413878D01*
X94902352Y-134409500D01*
X94697648Y-134409500D01*
X94673329Y-134413351D01*
X94495465Y-134441522D01*
X94300776Y-134504781D01*
X94118386Y-134597715D01*
X93952786Y-134718028D01*
X93952782Y-134718032D01*
X93887681Y-134783134D01*
X93826358Y-134816619D01*
X93756666Y-134811635D01*
X93712319Y-134783134D01*
X93647213Y-134718028D01*
X93481613Y-134597715D01*
X93481612Y-134597714D01*
X93481610Y-134597713D01*
X93424653Y-134568691D01*
X93299223Y-134504781D01*
X93104534Y-134441522D01*
X92929995Y-134413878D01*
X92902352Y-134409500D01*
X92697648Y-134409500D01*
X92673329Y-134413351D01*
X92495465Y-134441522D01*
X92300776Y-134504781D01*
X92118386Y-134597715D01*
X91952786Y-134718028D01*
X91808028Y-134862786D01*
X91687714Y-135028386D01*
X91660203Y-135082379D01*
X91612227Y-135133174D01*
X91544406Y-135149968D01*
X91478272Y-135127429D01*
X91439234Y-135082376D01*
X91411861Y-135028652D01*
X91379474Y-134984077D01*
X91379474Y-134984076D01*
X90762550Y-135601001D01*
X90742630Y-135526657D01*
X90680095Y-135418343D01*
X90591657Y-135329905D01*
X90483343Y-135267370D01*
X90408996Y-135247449D01*
X91025922Y-134630524D01*
X91025921Y-134630523D01*
X90981359Y-134598147D01*
X90981350Y-134598141D01*
X90799031Y-134505244D01*
X90604417Y-134442009D01*
X90402317Y-134410000D01*
X90197683Y-134410000D01*
X89995582Y-134442009D01*
X89800968Y-134505244D01*
X89618644Y-134598143D01*
X89574077Y-134630523D01*
X89574077Y-134630524D01*
X90191003Y-135247449D01*
X90116657Y-135267370D01*
X90008343Y-135329905D01*
X89919905Y-135418343D01*
X89857370Y-135526657D01*
X89837449Y-135601002D01*
X89220524Y-134984077D01*
X89220523Y-134984077D01*
X89188143Y-135028644D01*
X89095244Y-135210968D01*
X89032009Y-135405582D01*
X89000000Y-135607682D01*
X60960499Y-135607682D01*
X60960499Y-134982128D01*
X60954091Y-134922517D01*
X60952330Y-134917796D01*
X60903797Y-134787671D01*
X60903796Y-134787669D01*
X60820407Y-134676276D01*
X60820406Y-134676273D01*
X60817547Y-134672455D01*
X60817544Y-134672452D01*
X60702335Y-134586206D01*
X60702328Y-134586202D01*
X60567482Y-134535908D01*
X60567483Y-134535908D01*
X60507883Y-134529501D01*
X60507881Y-134529500D01*
X60507873Y-134529500D01*
X60507864Y-134529500D01*
X58812129Y-134529500D01*
X58812123Y-134529501D01*
X58752516Y-134535908D01*
X58617671Y-134586202D01*
X58617664Y-134586206D01*
X58502455Y-134672452D01*
X58502452Y-134672455D01*
X58416206Y-134787664D01*
X58416202Y-134787671D01*
X58371530Y-134907445D01*
X58329659Y-134963379D01*
X58264195Y-134987796D01*
X58195922Y-134972944D01*
X58155029Y-134936996D01*
X58151969Y-134932784D01*
X58007213Y-134788028D01*
X57841613Y-134667715D01*
X57841612Y-134667714D01*
X57841610Y-134667713D01*
X57768621Y-134630523D01*
X57659223Y-134574781D01*
X57464534Y-134511522D01*
X57289995Y-134483878D01*
X57262352Y-134479500D01*
X57057648Y-134479500D01*
X57033329Y-134483351D01*
X56855465Y-134511522D01*
X56660776Y-134574781D01*
X56478386Y-134667715D01*
X56312786Y-134788028D01*
X56312782Y-134788032D01*
X56247681Y-134853134D01*
X56186358Y-134886619D01*
X56116666Y-134881635D01*
X56072319Y-134853134D01*
X56007213Y-134788028D01*
X55841613Y-134667715D01*
X55841612Y-134667714D01*
X55841610Y-134667713D01*
X55768621Y-134630523D01*
X55659223Y-134574781D01*
X55464534Y-134511522D01*
X55289995Y-134483878D01*
X55262352Y-134479500D01*
X55057648Y-134479500D01*
X55033329Y-134483351D01*
X54855465Y-134511522D01*
X54660776Y-134574781D01*
X54478386Y-134667715D01*
X54312786Y-134788028D01*
X54168028Y-134932786D01*
X54047714Y-135098386D01*
X54020203Y-135152379D01*
X53972227Y-135203174D01*
X53904406Y-135219968D01*
X53838272Y-135197429D01*
X53799234Y-135152376D01*
X53771861Y-135098652D01*
X53739474Y-135054077D01*
X53739474Y-135054076D01*
X53122550Y-135671001D01*
X53102630Y-135596657D01*
X53040095Y-135488343D01*
X52951657Y-135399905D01*
X52843343Y-135337370D01*
X52768996Y-135317449D01*
X53385922Y-134700524D01*
X53385921Y-134700523D01*
X53341359Y-134668147D01*
X53341350Y-134668141D01*
X53159031Y-134575244D01*
X52964417Y-134512009D01*
X52762317Y-134480000D01*
X52557683Y-134480000D01*
X52355582Y-134512009D01*
X52160968Y-134575244D01*
X51978644Y-134668143D01*
X51934077Y-134700523D01*
X51934077Y-134700524D01*
X52551003Y-135317449D01*
X52476657Y-135337370D01*
X52368343Y-135399905D01*
X52279905Y-135488343D01*
X52217370Y-135596657D01*
X52197449Y-135671002D01*
X51580524Y-135054077D01*
X51580523Y-135054077D01*
X51548143Y-135098644D01*
X51455244Y-135280968D01*
X51392009Y-135475582D01*
X51360000Y-135677682D01*
X48290500Y-135677682D01*
X48290500Y-134843907D01*
X48310185Y-134776868D01*
X48362989Y-134731113D01*
X48432147Y-134721169D01*
X48476501Y-134736520D01*
X48703524Y-134867593D01*
X48703528Y-134867595D01*
X48945744Y-134967924D01*
X49198979Y-135035777D01*
X49198990Y-135035779D01*
X49458905Y-135069999D01*
X49458920Y-135070000D01*
X49721080Y-135070000D01*
X49721094Y-135069999D01*
X49981009Y-135035779D01*
X49981020Y-135035777D01*
X50234255Y-134967924D01*
X50476471Y-134867595D01*
X50476482Y-134867590D01*
X50703516Y-134736511D01*
X50703534Y-134736499D01*
X50816365Y-134649920D01*
X50816365Y-134649917D01*
X50208534Y-134042086D01*
X50339175Y-133947171D01*
X50467171Y-133819175D01*
X50562086Y-133688534D01*
X51169917Y-134296365D01*
X51169919Y-134296365D01*
X51256499Y-134183534D01*
X51256511Y-134183516D01*
X51387590Y-133956482D01*
X51387595Y-133956471D01*
X51487924Y-133714255D01*
X51555777Y-133461020D01*
X51555779Y-133461009D01*
X51589999Y-133201094D01*
X51590000Y-133201080D01*
X51590000Y-132938919D01*
X51589999Y-132938905D01*
X60730000Y-132938905D01*
X60730000Y-133201094D01*
X60764220Y-133461009D01*
X60764222Y-133461020D01*
X60832075Y-133714255D01*
X60932404Y-133956471D01*
X60932409Y-133956482D01*
X61063488Y-134183516D01*
X61063494Y-134183524D01*
X61150080Y-134296365D01*
X61757912Y-133688532D01*
X61852829Y-133819175D01*
X61980825Y-133947171D01*
X62111465Y-134042086D01*
X61503633Y-134649917D01*
X61503633Y-134649918D01*
X61616475Y-134736505D01*
X61616483Y-134736511D01*
X61843517Y-134867590D01*
X61843528Y-134867595D01*
X62085744Y-134967924D01*
X62338979Y-135035777D01*
X62338990Y-135035779D01*
X62598905Y-135069999D01*
X62598920Y-135070000D01*
X62861080Y-135070000D01*
X62861094Y-135069999D01*
X63121009Y-135035779D01*
X63121020Y-135035777D01*
X63374255Y-134967924D01*
X63616471Y-134867595D01*
X63616482Y-134867590D01*
X63843516Y-134736511D01*
X63843534Y-134736499D01*
X63956365Y-134649919D01*
X63956365Y-134649917D01*
X63926094Y-134619646D01*
X63348534Y-134042086D01*
X63479175Y-133947171D01*
X63607171Y-133819175D01*
X63702086Y-133688534D01*
X64309917Y-134296365D01*
X64309919Y-134296365D01*
X64396499Y-134183534D01*
X64396511Y-134183516D01*
X64527590Y-133956482D01*
X64527595Y-133956471D01*
X64627924Y-133714255D01*
X64695777Y-133461020D01*
X64695779Y-133461009D01*
X64729999Y-133201094D01*
X64730000Y-133201080D01*
X64730000Y-132938919D01*
X64729998Y-132938902D01*
X64722381Y-132881039D01*
X64720783Y-132868905D01*
X85230000Y-132868905D01*
X85230000Y-133131094D01*
X85264220Y-133391009D01*
X85264222Y-133391020D01*
X85332075Y-133644255D01*
X85432404Y-133886471D01*
X85432409Y-133886482D01*
X85563488Y-134113516D01*
X85563494Y-134113524D01*
X85650080Y-134226365D01*
X86257912Y-133618532D01*
X86352829Y-133749175D01*
X86480825Y-133877171D01*
X86611465Y-133972086D01*
X86003633Y-134579917D01*
X86003633Y-134579918D01*
X86116475Y-134666505D01*
X86116483Y-134666511D01*
X86343517Y-134797590D01*
X86343528Y-134797595D01*
X86585744Y-134897924D01*
X86838979Y-134965777D01*
X86838990Y-134965779D01*
X87098905Y-134999999D01*
X87098920Y-135000000D01*
X87361080Y-135000000D01*
X87361094Y-134999999D01*
X87621009Y-134965779D01*
X87621020Y-134965777D01*
X87874255Y-134897924D01*
X88116471Y-134797595D01*
X88116482Y-134797590D01*
X88343516Y-134666511D01*
X88343534Y-134666499D01*
X88456365Y-134579920D01*
X88456365Y-134579917D01*
X87848534Y-133972086D01*
X87979175Y-133877171D01*
X88107171Y-133749175D01*
X88202086Y-133618534D01*
X88809917Y-134226365D01*
X88809919Y-134226365D01*
X88896499Y-134113534D01*
X88896511Y-134113516D01*
X89027590Y-133886482D01*
X89027595Y-133886471D01*
X89127924Y-133644255D01*
X89195777Y-133391020D01*
X89195779Y-133391009D01*
X89229999Y-133131094D01*
X89230000Y-133131080D01*
X89230000Y-132868919D01*
X89229999Y-132868905D01*
X98370000Y-132868905D01*
X98370000Y-133131094D01*
X98404220Y-133391009D01*
X98404222Y-133391020D01*
X98472075Y-133644255D01*
X98572404Y-133886471D01*
X98572409Y-133886482D01*
X98703488Y-134113516D01*
X98703494Y-134113524D01*
X98790080Y-134226365D01*
X99397912Y-133618532D01*
X99492829Y-133749175D01*
X99620825Y-133877171D01*
X99751465Y-133972086D01*
X99143633Y-134579917D01*
X99143633Y-134579918D01*
X99256475Y-134666505D01*
X99256483Y-134666511D01*
X99483517Y-134797590D01*
X99483528Y-134797595D01*
X99725744Y-134897924D01*
X99978979Y-134965777D01*
X99978990Y-134965779D01*
X100238905Y-134999999D01*
X100238920Y-135000000D01*
X100501080Y-135000000D01*
X100501094Y-134999999D01*
X100761009Y-134965779D01*
X100761020Y-134965777D01*
X101014255Y-134897924D01*
X101256471Y-134797595D01*
X101256482Y-134797590D01*
X101483516Y-134666511D01*
X101483534Y-134666499D01*
X101596365Y-134579919D01*
X101596365Y-134579917D01*
X100988534Y-133972086D01*
X101119175Y-133877171D01*
X101247171Y-133749175D01*
X101342086Y-133618534D01*
X101949917Y-134226365D01*
X101949919Y-134226365D01*
X102036499Y-134113534D01*
X102036511Y-134113516D01*
X102167590Y-133886482D01*
X102167595Y-133886471D01*
X102267924Y-133644255D01*
X102335777Y-133391020D01*
X102335779Y-133391009D01*
X102369999Y-133131094D01*
X102370000Y-133131080D01*
X102370000Y-132868919D01*
X102369999Y-132868905D01*
X102335779Y-132608990D01*
X102335777Y-132608979D01*
X102267924Y-132355744D01*
X102167595Y-132113528D01*
X102167590Y-132113517D01*
X102036511Y-131886483D01*
X102036505Y-131886475D01*
X101949918Y-131773633D01*
X101949917Y-131773633D01*
X101342085Y-132381465D01*
X101247171Y-132250825D01*
X101119175Y-132122829D01*
X100988532Y-132027912D01*
X101596365Y-131420080D01*
X101483524Y-131333494D01*
X101483516Y-131333488D01*
X101256482Y-131202409D01*
X101256471Y-131202404D01*
X101014255Y-131102075D01*
X100761020Y-131034222D01*
X100761009Y-131034220D01*
X100501094Y-131000000D01*
X100238905Y-131000000D01*
X99978990Y-131034220D01*
X99978979Y-131034222D01*
X99725744Y-131102075D01*
X99483528Y-131202404D01*
X99483517Y-131202409D01*
X99256471Y-131333496D01*
X99143633Y-131420079D01*
X99143633Y-131420080D01*
X99751466Y-132027913D01*
X99620825Y-132122829D01*
X99492829Y-132250825D01*
X99397913Y-132381466D01*
X98790080Y-131773633D01*
X98790079Y-131773633D01*
X98703496Y-131886471D01*
X98572409Y-132113517D01*
X98572404Y-132113528D01*
X98472075Y-132355744D01*
X98404222Y-132608979D01*
X98404220Y-132608990D01*
X98370000Y-132868905D01*
X89229999Y-132868905D01*
X89195779Y-132608990D01*
X89195777Y-132608979D01*
X89127924Y-132355744D01*
X89027595Y-132113528D01*
X89027590Y-132113517D01*
X88896511Y-131886483D01*
X88896505Y-131886475D01*
X88809918Y-131773633D01*
X88809917Y-131773633D01*
X88202085Y-132381465D01*
X88107171Y-132250825D01*
X87979175Y-132122829D01*
X87848532Y-132027912D01*
X88456365Y-131420080D01*
X88343524Y-131333494D01*
X88343516Y-131333488D01*
X88116482Y-131202409D01*
X88116471Y-131202404D01*
X87874255Y-131102075D01*
X87621020Y-131034222D01*
X87621009Y-131034220D01*
X87361094Y-131000000D01*
X87098905Y-131000000D01*
X86838990Y-131034220D01*
X86838979Y-131034222D01*
X86585744Y-131102075D01*
X86343528Y-131202404D01*
X86343517Y-131202409D01*
X86116471Y-131333496D01*
X86003633Y-131420079D01*
X86003633Y-131420080D01*
X86611466Y-132027913D01*
X86480825Y-132122829D01*
X86352829Y-132250825D01*
X86257913Y-132381466D01*
X85650080Y-131773633D01*
X85650079Y-131773633D01*
X85563496Y-131886471D01*
X85432409Y-132113517D01*
X85432404Y-132113528D01*
X85332075Y-132355744D01*
X85264222Y-132608979D01*
X85264220Y-132608990D01*
X85230000Y-132868905D01*
X64720783Y-132868905D01*
X64695779Y-132678990D01*
X64695777Y-132678979D01*
X64627924Y-132425744D01*
X64527595Y-132183528D01*
X64527590Y-132183517D01*
X64396511Y-131956483D01*
X64396505Y-131956475D01*
X64309918Y-131843633D01*
X64309917Y-131843633D01*
X63702085Y-132451465D01*
X63607171Y-132320825D01*
X63479175Y-132192829D01*
X63348532Y-132097912D01*
X63956365Y-131490080D01*
X63843524Y-131403494D01*
X63843516Y-131403488D01*
X63616482Y-131272409D01*
X63616471Y-131272404D01*
X63374255Y-131172075D01*
X63121020Y-131104222D01*
X63121009Y-131104220D01*
X62861094Y-131070000D01*
X62598905Y-131070000D01*
X62338990Y-131104220D01*
X62338979Y-131104222D01*
X62085744Y-131172075D01*
X61843528Y-131272404D01*
X61843517Y-131272409D01*
X61616471Y-131403496D01*
X61503633Y-131490079D01*
X61503633Y-131490080D01*
X62111466Y-132097913D01*
X61980825Y-132192829D01*
X61852829Y-132320825D01*
X61757913Y-132451466D01*
X61150080Y-131843633D01*
X61150079Y-131843633D01*
X61063496Y-131956471D01*
X60932409Y-132183517D01*
X60932404Y-132183528D01*
X60832075Y-132425744D01*
X60764222Y-132678979D01*
X60764220Y-132678990D01*
X60730000Y-132938905D01*
X51589999Y-132938905D01*
X51555779Y-132678990D01*
X51555777Y-132678979D01*
X51487924Y-132425744D01*
X51387595Y-132183528D01*
X51387590Y-132183517D01*
X51256511Y-131956483D01*
X51256505Y-131956475D01*
X51169918Y-131843633D01*
X51169917Y-131843633D01*
X50562085Y-132451465D01*
X50467171Y-132320825D01*
X50339175Y-132192829D01*
X50208532Y-132097912D01*
X50816365Y-131490080D01*
X50703524Y-131403494D01*
X50703516Y-131403488D01*
X50476482Y-131272409D01*
X50476471Y-131272404D01*
X50234255Y-131172075D01*
X49981020Y-131104222D01*
X49981009Y-131104220D01*
X49721094Y-131070000D01*
X49458905Y-131070000D01*
X49198990Y-131104220D01*
X49198979Y-131104222D01*
X48945744Y-131172075D01*
X48703528Y-131272404D01*
X48703517Y-131272409D01*
X48476500Y-131403478D01*
X48408600Y-131419951D01*
X48342573Y-131397098D01*
X48299382Y-131342177D01*
X48290500Y-131296091D01*
X48290500Y-127421491D01*
X65089500Y-127421491D01*
X65089500Y-127758508D01*
X65127231Y-128093381D01*
X65127233Y-128093397D01*
X65202223Y-128421953D01*
X65202227Y-128421965D01*
X65313532Y-128740054D01*
X65459752Y-129043683D01*
X65459754Y-129043686D01*
X65639054Y-129329039D01*
X65849175Y-129592523D01*
X66087477Y-129830825D01*
X66350961Y-130040946D01*
X66636314Y-130220246D01*
X66939949Y-130366469D01*
X67178848Y-130450063D01*
X67258034Y-130477772D01*
X67258046Y-130477776D01*
X67586606Y-130552767D01*
X67921492Y-130590499D01*
X67921493Y-130590500D01*
X67921496Y-130590500D01*
X68258507Y-130590500D01*
X68258507Y-130590499D01*
X68593394Y-130552767D01*
X68921954Y-130477776D01*
X69240051Y-130366469D01*
X69543686Y-130220246D01*
X69829039Y-130040946D01*
X70092523Y-129830825D01*
X70330825Y-129592523D01*
X70540946Y-129329039D01*
X70720246Y-129043686D01*
X70866469Y-128740051D01*
X70977776Y-128421954D01*
X71052767Y-128093394D01*
X71090500Y-127758504D01*
X71090500Y-127421496D01*
X71090499Y-127421491D01*
X101889500Y-127421491D01*
X101889500Y-127758508D01*
X101927231Y-128093381D01*
X101927233Y-128093397D01*
X102002223Y-128421953D01*
X102002227Y-128421965D01*
X102113532Y-128740054D01*
X102259752Y-129043683D01*
X102259754Y-129043686D01*
X102439054Y-129329039D01*
X102649175Y-129592523D01*
X102887477Y-129830825D01*
X103150961Y-130040946D01*
X103436314Y-130220246D01*
X103739949Y-130366469D01*
X103978848Y-130450063D01*
X104058034Y-130477772D01*
X104058046Y-130477776D01*
X104386606Y-130552767D01*
X104721492Y-130590499D01*
X104721493Y-130590500D01*
X104721496Y-130590500D01*
X105058507Y-130590500D01*
X105058507Y-130590499D01*
X105393394Y-130552767D01*
X105721954Y-130477776D01*
X106040051Y-130366469D01*
X106343686Y-130220246D01*
X106629039Y-130040946D01*
X106892523Y-129830825D01*
X107130825Y-129592523D01*
X107340946Y-129329039D01*
X107520246Y-129043686D01*
X107666469Y-128740051D01*
X107777776Y-128421954D01*
X107852767Y-128093394D01*
X107890500Y-127758504D01*
X107890500Y-127421496D01*
X107852767Y-127086606D01*
X107777776Y-126758046D01*
X107666469Y-126439949D01*
X107520246Y-126136314D01*
X107340946Y-125850961D01*
X107130825Y-125587477D01*
X106892523Y-125349175D01*
X106629039Y-125139054D01*
X106343686Y-124959754D01*
X106343683Y-124959752D01*
X106040054Y-124813532D01*
X105721965Y-124702227D01*
X105721953Y-124702223D01*
X105393397Y-124627233D01*
X105393381Y-124627231D01*
X105058508Y-124589500D01*
X105058504Y-124589500D01*
X104721496Y-124589500D01*
X104721491Y-124589500D01*
X104386618Y-124627231D01*
X104386602Y-124627233D01*
X104058046Y-124702223D01*
X104058034Y-124702227D01*
X103739945Y-124813532D01*
X103436316Y-124959752D01*
X103150962Y-125139053D01*
X102887477Y-125349174D01*
X102649174Y-125587477D01*
X102439053Y-125850962D01*
X102259752Y-126136316D01*
X102113532Y-126439945D01*
X102002227Y-126758034D01*
X102002223Y-126758046D01*
X101927233Y-127086602D01*
X101927231Y-127086618D01*
X101889500Y-127421491D01*
X71090499Y-127421491D01*
X71052767Y-127086606D01*
X70977776Y-126758046D01*
X70866469Y-126439949D01*
X70720246Y-126136314D01*
X70540946Y-125850961D01*
X70330825Y-125587477D01*
X70092523Y-125349175D01*
X69829039Y-125139054D01*
X69543686Y-124959754D01*
X69543683Y-124959752D01*
X69240054Y-124813532D01*
X68921965Y-124702227D01*
X68921953Y-124702223D01*
X68593397Y-124627233D01*
X68593381Y-124627231D01*
X68258508Y-124589500D01*
X68258504Y-124589500D01*
X67921496Y-124589500D01*
X67921491Y-124589500D01*
X67586618Y-124627231D01*
X67586602Y-124627233D01*
X67258046Y-124702223D01*
X67258034Y-124702227D01*
X66939945Y-124813532D01*
X66636316Y-124959752D01*
X66350962Y-125139053D01*
X66087477Y-125349174D01*
X65849174Y-125587477D01*
X65639053Y-125850962D01*
X65459752Y-126136316D01*
X65313532Y-126439945D01*
X65202227Y-126758034D01*
X65202223Y-126758046D01*
X65127233Y-127086602D01*
X65127231Y-127086618D01*
X65089500Y-127421491D01*
X48290500Y-127421491D01*
X48290500Y-122714500D01*
X48310185Y-122647461D01*
X48362989Y-122601706D01*
X48414500Y-122590500D01*
X124565500Y-122590500D01*
X124632539Y-122610185D01*
G37*
%TD.AperFunction*%
%TD*%
%TA.AperFunction,Conductor*%
%TO.N,+5VP*%
G36*
X63763039Y-142949685D02*
G01*
X63808794Y-143002489D01*
X63820000Y-143054000D01*
X63820000Y-152900000D01*
X74306000Y-152900000D01*
X74373039Y-152919685D01*
X74418794Y-152972489D01*
X74430000Y-153024000D01*
X74430000Y-155146000D01*
X74410315Y-155213039D01*
X74357511Y-155258794D01*
X74306000Y-155270000D01*
X61334000Y-155270000D01*
X61266961Y-155250315D01*
X61221206Y-155197511D01*
X61210000Y-155146000D01*
X61210000Y-143054000D01*
X61229685Y-142986961D01*
X61282489Y-142941206D01*
X61334000Y-142930000D01*
X63696000Y-142930000D01*
X63763039Y-142949685D01*
G37*
%TD.AperFunction*%
%TD*%
M02*
